{"glyphs":{"0":{"ha":850,"x_min":71,"x_max":779,"o":"m 425 -17 q 263 26 333 -17 q 152 139 193 68 q 91 292 111 210 q 71 463 71 374 q 91 633 71 551 q 152 785 111 715 q 263 898 193 856 q 425 940 333 940 q 586 898 515 940 q 698 785 657 856 q 759 633 739 715 q 779 463 779 551 q 759 292 779 374 q 698 139 739 210 q 586 26 657 68 q 425 -17 515 -17 m 286 144 q 314 115 286 144 q 425 86 342 86 q 564 144 508 86 q 640 282 619 201 q 661 463 661 363 q 640 643 661 563 q 564 781 619 724 q 425 838 508 838 q 286 781 342 838 q 210 643 231 724 q 189 463 189 563 q 210 282 189 363 q 286 144 231 201 z "},"1":{"ha":471,"x_min":29,"x_max":363,"o":"m 363 0 l 247 0 l 247 774 l 99 617 l 29 688 l 261 926 l 363 926 l 363 0 z "},"2":{"ha":817,"x_min":74,"x_max":711,"o":"m 711 0 l 75 0 l 75 92 q 299 273 219 206 q 453 416 379 340 q 558 551 528 492 q 589 668 589 610 q 532 794 589 751 q 396 838 475 838 q 144 721 236 838 l 74 794 q 212 902 126 864 q 396 940 297 940 q 615 869 522 940 q 707 668 707 799 q 596 410 707 539 q 257 103 485 282 l 711 103 l 711 0 z "},"3":{"ha":774,"x_min":40,"x_max":697,"o":"m 369 -17 q 172 26 258 -17 q 40 136 86 69 l 108 208 q 218 119 150 153 q 367 86 286 86 q 526 133 468 86 q 583 260 583 179 q 522 383 583 343 q 353 424 460 424 q 257 422 271 424 l 257 528 q 353 526 272 526 q 508 565 447 526 q 568 679 568 603 q 509 795 568 753 q 361 838 450 838 q 117 725 221 838 l 53 797 q 369 940 171 940 q 595 874 507 940 q 683 693 683 808 q 622 547 683 601 q 483 478 561 492 q 628 411 560 471 q 697 250 697 351 q 608 58 697 132 q 369 -17 519 -17 z "},"4":{"ha":775,"x_min":44,"x_max":731,"o":"m 600 0 l 485 0 l 485 235 l 44 235 l 44 331 l 442 926 l 600 926 l 600 336 l 731 336 l 731 235 l 600 235 l 600 0 m 485 336 l 485 819 l 160 336 l 485 336 z "},"5":{"ha":819,"x_min":92,"x_max":747,"o":"m 418 -17 q 92 132 204 -17 l 163 208 q 418 86 258 86 q 572 143 513 86 q 632 285 632 200 q 573 430 632 375 q 419 485 514 485 q 206 397 294 485 l 121 426 l 121 926 l 688 926 l 688 824 l 236 824 l 236 501 q 453 585 319 585 q 661 505 575 585 q 747 289 747 425 q 654 67 747 150 q 418 -17 561 -17 z "},"6":{"ha":821,"x_min":71,"x_max":753,"o":"m 428 -17 q 264 22 335 -17 q 152 128 193 61 q 91 280 111 196 q 71 461 71 364 q 110 697 71 592 q 235 872 149 803 q 447 940 322 940 q 704 829 607 940 l 646 743 q 447 838 565 838 q 301 783 361 838 q 213 649 240 729 q 186 474 186 569 q 188 438 186 450 q 295 538 222 493 q 450 582 368 582 q 667 505 582 582 q 753 286 753 428 q 664 72 753 160 q 428 -17 575 -17 m 424 86 q 580 147 524 86 q 636 282 636 207 q 576 431 636 379 q 422 482 517 482 q 292 444 354 482 q 190 343 229 406 q 257 163 200 240 q 424 86 314 86 z "},"7":{"ha":715,"x_min":43,"x_max":675,"o":"m 296 0 l 168 0 l 542 824 l 43 824 l 43 926 l 675 926 l 675 847 l 296 0 z "},"8":{"ha":807,"x_min":72,"x_max":736,"o":"m 641 52 q 593 18 641 52 q 404 -17 546 -17 q 167 51 263 -17 q 72 235 72 119 q 135 386 72 322 q 293 478 199 450 q 146 559 204 503 q 88 700 88 615 q 182 878 88 817 q 404 940 276 940 q 627 878 532 940 q 722 700 722 817 q 664 559 722 615 q 515 478 606 503 q 673 386 610 450 q 736 235 736 322 q 641 52 736 121 m 404 525 q 460 539 432 529 q 525 566 489 549 q 583 615 561 583 q 606 685 606 646 q 548 796 606 754 q 404 838 490 838 q 260 796 317 838 q 203 685 203 754 q 225 615 203 646 q 283 566 247 583 q 348 540 319 549 q 404 525 376 531 m 404 86 q 556 131 493 86 q 619 247 619 175 q 576 345 619 303 q 487 405 532 388 q 404 426 442 422 q 322 405 367 422 q 232 345 276 388 q 188 247 188 303 q 251 131 188 175 q 404 86 314 86 z "},"9":{"ha":821,"x_min":68,"x_max":750,"o":"m 374 -15 q 117 96 214 -15 l 175 182 q 374 88 256 88 q 524 143 463 88 q 610 278 585 199 q 635 450 635 357 q 633 488 635 475 q 526 388 599 432 q 372 343 454 343 q 154 420 240 343 q 68 639 68 497 q 157 853 68 764 q 392 942 246 942 q 557 903 486 942 q 669 796 628 864 q 730 644 710 728 q 750 463 750 561 q 711 227 750 332 q 585 53 672 122 q 374 -15 499 -15 m 399 443 q 530 481 467 443 q 629 581 593 518 q 564 761 621 683 q 397 839 507 839 q 242 778 299 839 q 185 643 185 717 q 244 494 185 546 q 399 443 304 443 z "},"\u0000":{"ha":0,"x_min":0,"x_max":0,"o":""},"\r":{"ha":0,"x_min":0,"x_max":0,"o":""}," ":{"ha":358,"x_min":0,"x_max":0,"o":""},"!":{"ha":319,"x_min":83,"x_max":236,"o":"m 203 260 l 117 260 l 94 926 l 225 926 l 203 260 m 213 9 q 202 -2 213 9 q 160 -14 190 -14 q 106 9 129 -14 q 83 63 83 32 q 106 117 83 94 q 160 139 128 139 q 214 117 192 139 q 236 63 236 94 q 213 9 236 32 z "},"\"":{"ha":476,"x_min":75,"x_max":403,"o":"m 164 572 l 113 572 q 75 876 75 857 q 93 922 75 903 q 138 940 111 940 q 183 922 164 940 q 201 876 201 903 l 164 572 m 365 572 l 314 572 q 276 876 276 857 q 295 922 276 903 q 340 940 314 940 q 385 922 367 940 q 403 876 403 903 l 365 572 z "},"#":{"ha":819,"x_min":31,"x_max":790,"o":"m 417 0 l 332 0 l 417 251 l 263 251 l 179 0 l 93 0 l 178 251 l 31 251 l 54 325 l 203 325 l 294 601 l 144 601 l 167 674 l 319 674 l 403 926 l 489 926 l 406 674 l 558 674 l 642 926 l 726 926 l 642 674 l 790 674 l 769 601 l 618 601 l 525 325 l 679 325 l 657 251 l 500 251 l 417 0 m 440 325 l 532 601 l 379 601 l 288 325 l 440 325 z "},"$":{"ha":824,"x_min":58,"x_max":756,"o":"m 376 -139 l 376 -15 q 58 131 176 -4 l 126 218 q 376 88 228 104 l 376 426 q 291 451 324 440 q 215 484 258 463 q 147 531 172 506 q 105 594 122 556 q 88 683 88 633 q 168 861 88 790 q 376 939 249 932 l 376 1067 l 461 1067 l 461 938 q 735 811 629 921 l 665 726 q 461 832 583 814 l 461 531 q 569 495 526 513 q 660 447 613 478 q 732 367 708 415 q 756 256 756 319 q 683 73 756 150 q 461 -15 611 -4 l 461 -139 l 376 -139 m 636 246 q 591 343 636 308 q 461 403 546 378 l 461 88 q 594 143 551 97 q 636 246 636 189 m 207 690 q 250 608 207 638 q 376 553 293 578 l 376 836 q 254 791 301 831 q 207 690 207 751 z "},"%":{"ha":1015,"x_min":43,"x_max":972,"o":"m 427 548 q 395 516 427 548 q 265 483 364 483 q 105 548 167 483 q 43 710 43 613 q 106 874 43 808 q 265 940 168 940 q 427 874 364 940 q 490 710 490 808 q 427 548 490 613 m 253 0 l 178 0 l 769 926 l 846 926 l 253 0 m 910 48 q 878 16 910 48 q 749 -17 847 -17 q 588 48 650 -17 q 526 210 526 113 q 589 374 526 308 q 749 440 651 440 q 910 374 847 440 q 972 210 972 308 q 910 48 972 113 m 165 598 q 185 575 165 598 q 265 553 204 553 q 367 598 326 553 q 407 710 407 643 q 367 824 407 779 q 265 869 328 869 q 165 824 204 869 q 126 710 126 779 q 165 598 126 643 m 648 98 q 668 75 648 98 q 749 53 688 53 q 850 98 810 53 q 890 210 890 143 q 851 324 890 279 q 749 369 811 369 q 647 324 686 369 q 608 210 608 279 q 648 98 608 143 z "},"&":{"ha":890,"x_min":50,"x_max":851,"o":"m 851 0 l 707 0 q 606 97 665 36 q 339 -17 492 -17 q 131 51 213 -17 q 50 242 50 118 q 104 403 50 340 q 254 517 158 465 q 183 725 183 638 q 251 878 183 817 q 417 940 318 940 q 568 892 510 940 q 626 758 626 844 q 608 669 626 708 q 550 597 590 629 q 479 546 510 564 q 390 497 449 528 q 497 365 435 436 q 607 242 547 306 q 707 453 668 332 l 797 414 q 671 175 729 256 q 851 0 740 103 m 349 69 q 543 161 451 69 q 415 301 451 257 q 299 449 351 375 q 198 362 233 408 q 163 249 163 315 q 217 117 163 165 q 349 69 272 69 m 292 724 q 347 564 292 658 q 484 650 438 608 q 531 754 531 692 q 500 831 531 804 q 421 858 469 858 q 329 820 367 858 q 292 724 292 782 z "},"'":{"ha":276,"x_min":75,"x_max":201,"o":"m 164 572 l 113 572 q 75 876 75 857 q 93 922 75 903 q 138 940 111 940 q 183 922 164 940 q 201 876 201 903 l 164 572 z "},"(":{"ha":344,"x_min":61,"x_max":319,"o":"m 319 -228 l 257 -276 q 61 338 61 -8 q 257 951 61 682 l 319 904 q 210 629 246 758 q 175 338 175 500 q 210 45 175 175 q 319 -228 246 -85 z "},")":{"ha":344,"x_min":24,"x_max":283,"o":"m 86 -276 l 24 -228 q 133 45 97 -85 q 169 338 169 175 q 133 631 169 501 q 24 904 97 760 l 86 951 q 283 338 283 683 q 86 -276 283 -10 z "},"*":{"ha":472,"x_min":47,"x_max":425,"o":"m 268 540 l 204 540 l 211 700 l 78 613 l 47 668 l 189 740 l 47 813 l 78 867 l 211 781 l 204 940 l 268 940 l 260 781 l 393 867 l 425 813 l 283 740 l 425 668 l 393 613 l 260 700 l 268 540 z "},"+":{"ha":693,"x_min":40,"x_max":653,"o":"m 653 432 l 386 432 l 386 136 l 307 136 l 307 432 l 40 432 l 40 504 l 307 504 l 307 792 l 386 792 l 386 504 l 653 504 l 653 432 z "},",":{"ha":319,"x_min":79,"x_max":244,"o":"m 244 33 q 213 -84 244 -28 q 131 -176 181 -140 l 79 -133 q 140 -74 114 -111 q 169 -4 165 -37 q 150 -7 164 -7 q 102 13 121 -7 q 83 64 83 33 q 105 117 83 94 q 157 139 126 139 q 219 110 193 139 q 244 33 244 82 z "},"-":{"ha":417,"x_min":42,"x_max":375,"o":"m 375 290 l 42 290 l 42 382 l 375 382 l 375 290 z "},".":{"ha":319,"x_min":83,"x_max":236,"o":"m 214 8 q 203 -3 214 8 q 160 -14 192 -14 q 106 8 128 -14 q 83 63 83 31 q 106 117 83 94 q 160 139 128 139 q 214 117 192 139 q 236 63 236 94 q 214 8 236 31 z "},"/":{"ha":411,"x_min":0,"x_max":411,"o":"m 82 -28 l 0 -28 l 329 954 l 411 954 l 82 -28 z "},":":{"ha":319,"x_min":83,"x_max":236,"o":"m 214 550 q 203 539 214 550 q 160 528 192 528 q 106 550 128 528 q 83 604 83 572 q 106 658 83 636 q 160 681 128 681 q 214 658 192 681 q 236 604 236 636 q 214 550 236 572 m 214 8 q 203 -3 214 8 q 160 -14 192 -14 q 106 8 128 -14 q 83 63 83 31 q 106 117 83 94 q 160 139 128 139 q 214 117 192 139 q 236 63 236 94 q 214 8 236 31 z "},";":{"ha":319,"x_min":79,"x_max":244,"o":"m 213 551 q 202 539 213 551 q 160 528 190 528 q 106 551 129 528 q 83 604 83 574 q 106 658 83 636 q 160 681 128 681 q 214 658 192 681 q 236 604 236 636 q 213 551 236 574 m 244 36 q 213 -83 244 -26 q 131 -174 181 -139 l 79 -132 q 139 -72 113 -110 q 169 -1 165 -35 q 150 -6 161 -6 q 102 15 121 -6 q 83 65 83 35 q 105 119 83 97 q 157 142 126 142 q 219 113 193 142 q 244 36 244 85 z "},"<":{"ha":693,"x_min":40,"x_max":653,"o":"m 653 125 l 40 428 l 40 501 l 653 806 l 653 718 l 129 464 l 653 211 l 653 125 z "},"=":{"ha":693,"x_min":40,"x_max":653,"o":"m 653 561 l 40 561 l 40 635 l 653 635 l 653 561 m 653 293 l 40 293 l 40 365 l 653 365 l 653 293 z "},">":{"ha":693,"x_min":40,"x_max":653,"o":"m 653 428 l 40 125 l 40 211 l 563 464 l 40 718 l 40 806 l 653 501 l 653 428 z "},"?":{"ha":642,"x_min":25,"x_max":599,"o":"m 282 257 q 228 369 228 303 q 247 446 228 411 q 293 503 265 481 q 353 549 321 525 q 414 594 386 574 q 460 644 442 615 q 479 708 479 674 q 437 801 479 764 q 315 838 394 838 q 94 724 181 838 l 25 799 q 326 940 135 940 q 524 878 450 940 q 599 725 599 817 q 556 599 599 654 q 464 515 514 544 q 372 446 414 486 q 329 361 329 406 q 367 293 329 322 l 282 257 m 365 8 q 353 -3 365 8 q 311 -14 342 -14 q 258 8 281 -14 q 235 63 235 31 q 258 117 235 94 q 311 139 281 139 q 365 117 342 139 q 388 63 388 94 q 365 8 388 31 z "},"@":{"ha":1088,"x_min":49,"x_max":1038,"o":"m 489 -97 q 174 28 300 -97 q 49 339 49 154 q 215 724 49 561 q 600 886 381 886 q 915 759 793 886 q 1038 446 1038 632 q 965 205 1038 292 q 797 118 893 118 q 708 151 742 118 q 671 231 674 183 l 669 239 q 573 152 632 186 q 450 118 514 118 q 296 181 354 118 q 238 344 238 243 q 338 590 238 486 q 564 693 438 693 q 674 663 628 693 q 742 585 721 632 l 760 671 l 854 671 l 775 294 q 772 265 772 278 q 791 212 772 231 q 838 193 810 193 q 939 256 890 193 q 988 446 988 318 q 878 728 988 618 q 594 839 769 839 q 245 688 394 839 q 96 342 96 538 q 209 61 96 174 q 494 -51 322 -51 q 753 26 629 -51 l 778 -10 q 489 -97 642 -97 m 478 196 q 685 321 599 196 l 725 513 q 674 584 711 553 q 582 615 638 615 q 408 534 481 615 q 336 350 336 453 q 374 239 336 282 q 478 196 413 196 z "},"A":{"ha":914,"x_min":13,"x_max":901,"o":"m 901 0 l 769 0 l 688 206 l 226 206 l 144 0 l 13 0 l 385 926 l 528 926 l 901 0 m 653 308 l 457 807 l 260 308 l 653 308 z "},"B":{"ha":874,"x_min":108,"x_max":799,"o":"m 531 0 l 108 0 l 108 926 l 521 926 q 710 861 640 926 q 781 690 781 796 q 733 549 781 607 q 618 478 686 492 q 745 400 692 467 q 799 250 799 333 q 727 69 799 138 q 531 0 656 0 m 501 525 q 619 567 578 525 q 661 674 661 608 q 619 781 661 739 q 501 824 576 824 l 224 824 l 224 525 l 501 525 m 507 103 q 633 146 588 103 q 679 263 679 189 q 634 376 679 331 q 507 422 589 422 l 224 422 l 224 103 l 507 103 z "},"C":{"ha":939,"x_min":71,"x_max":900,"o":"m 547 -17 q 208 117 344 -17 q 71 463 71 251 q 208 808 71 674 q 547 942 344 942 q 899 758 769 942 l 801 704 q 693 801 761 764 q 547 839 625 839 q 292 733 394 839 q 190 463 190 626 q 292 192 190 299 q 547 86 394 86 q 693 123 625 86 q 801 221 761 160 l 900 167 q 547 -17 765 -17 z "},"D":{"ha":972,"x_min":108,"x_max":900,"o":"m 425 0 l 108 0 l 108 926 l 425 926 q 769 794 638 926 q 900 463 900 663 q 769 131 900 261 q 425 0 638 0 m 425 103 q 685 206 589 103 q 781 463 781 308 q 686 721 781 618 q 425 824 592 824 l 224 824 l 224 103 l 425 103 z "},"E":{"ha":790,"x_min":108,"x_max":715,"o":"m 715 0 l 108 0 l 108 926 l 715 926 l 715 824 l 224 824 l 224 525 l 706 525 l 706 422 l 224 422 l 224 103 l 715 103 l 715 0 z "},"F":{"ha":764,"x_min":108,"x_max":715,"o":"m 224 0 l 108 0 l 108 926 l 715 926 l 715 824 l 224 824 l 224 525 l 706 525 l 706 422 l 224 422 l 224 0 z "},"G":{"ha":990,"x_min":71,"x_max":911,"o":"m 547 -18 q 208 116 346 -18 q 71 463 71 250 q 208 808 71 675 q 547 942 346 942 q 907 768 767 942 l 815 711 q 699 804 771 769 q 547 839 628 839 q 292 733 394 839 q 190 463 190 626 q 292 192 190 299 q 547 85 394 85 q 690 115 624 85 q 796 185 756 144 l 796 374 l 478 374 l 478 476 l 911 476 l 911 142 q 547 -18 768 -18 z "},"H":{"ha":989,"x_min":108,"x_max":881,"o":"m 881 0 l 765 0 l 765 425 l 224 425 l 224 0 l 108 0 l 108 926 l 224 926 l 224 528 l 765 528 l 765 926 l 881 926 l 881 0 z "},"I":{"ha":332,"x_min":108,"x_max":224,"o":"m 224 0 l 108 0 l 108 926 l 224 926 l 224 0 z "},"J":{"ha":660,"x_min":15,"x_max":551,"o":"m 257 -17 q 15 90 107 -17 l 75 178 q 250 86 151 86 q 385 140 335 86 q 436 281 436 193 l 436 926 l 551 926 l 551 279 q 469 59 551 135 q 257 -17 388 -17 z "},"K":{"ha":835,"x_min":108,"x_max":811,"o":"m 811 0 l 668 0 l 317 417 l 224 311 l 224 0 l 108 0 l 108 926 l 224 926 l 224 447 l 633 926 l 778 926 l 392 486 l 811 0 z "},"L":{"ha":708,"x_min":108,"x_max":654,"o":"m 654 0 l 108 0 l 108 926 l 224 926 l 224 103 l 654 103 l 654 0 z "},"M":{"ha":1124,"x_min":108,"x_max":1015,"o":"m 1015 0 l 900 0 l 900 763 l 585 0 l 538 0 l 224 763 l 224 0 l 108 0 l 108 926 l 274 926 l 561 229 l 850 926 l 1015 926 l 1015 0 z "},"N":{"ha":983,"x_min":108,"x_max":875,"o":"m 875 0 l 764 0 l 224 739 l 224 0 l 108 0 l 108 926 l 226 926 l 760 203 l 760 926 l 875 926 l 875 0 z "},"O":{"ha":1063,"x_min":71,"x_max":990,"o":"m 531 -17 q 199 119 326 -17 q 71 463 71 256 q 199 806 71 669 q 531 942 326 942 q 862 806 733 942 q 990 463 990 669 q 862 119 990 256 q 531 -17 733 -17 m 531 86 q 777 192 683 86 q 871 463 871 299 q 777 733 871 628 q 531 839 683 839 q 283 733 376 839 q 190 463 190 628 q 283 192 190 299 q 531 86 376 86 z "},"P":{"ha":815,"x_min":108,"x_max":771,"o":"m 224 0 l 108 0 l 108 926 l 481 926 q 693 846 615 926 q 771 647 771 765 q 692 449 771 529 q 481 368 614 368 l 224 368 l 224 0 m 467 471 q 600 520 549 471 q 651 647 651 569 q 600 774 651 725 q 467 824 549 824 l 224 824 l 224 471 l 467 471 z "},"Q":{"ha":1063,"x_min":71,"x_max":990,"o":"m 531 -17 q 199 119 326 -17 q 71 463 71 256 q 199 806 71 669 q 531 942 326 942 q 862 806 733 942 q 990 463 990 669 q 863 121 990 256 l 951 26 l 871 -43 l 781 53 q 531 -17 672 -17 m 531 86 q 707 133 629 86 l 575 276 l 656 344 l 786 203 q 871 463 871 307 q 777 733 871 628 q 531 839 683 839 q 283 733 376 839 q 190 463 190 628 q 283 192 190 299 q 531 86 376 86 z "},"R":{"ha":844,"x_min":108,"x_max":781,"o":"m 781 0 l 644 0 l 408 368 l 224 368 l 224 0 l 108 0 l 108 926 l 481 926 q 690 850 610 926 q 771 647 771 774 q 701 457 771 528 q 531 378 632 386 l 781 0 m 467 469 q 600 519 549 469 q 651 647 651 569 q 600 774 651 725 q 467 824 549 824 l 224 824 l 224 469 l 467 469 z "},"S":{"ha":814,"x_min":53,"x_max":750,"o":"m 408 -17 q 53 131 183 -17 l 121 218 q 413 86 239 86 q 578 134 525 86 q 631 246 631 182 q 600 328 631 294 q 522 380 569 361 q 415 414 474 399 q 298 448 357 429 q 191 493 239 467 q 113 568 143 519 q 82 683 82 617 q 172 869 82 797 q 400 940 263 940 q 729 811 607 940 l 660 726 q 392 838 558 838 q 255 797 308 838 q 201 690 201 756 q 242 610 201 642 q 344 563 283 578 q 476 524 404 547 q 608 476 547 501 q 709 393 668 450 q 750 256 750 336 q 666 63 750 142 q 408 -17 582 -17 z "},"T":{"ha":792,"x_min":44,"x_max":747,"o":"m 453 0 l 338 0 l 338 824 l 44 824 l 44 926 l 747 926 l 747 824 l 453 824 l 453 0 z "},"U":{"ha":972,"x_min":108,"x_max":864,"o":"m 767 84 q 719 34 767 84 q 486 -17 671 -17 q 205 84 301 -17 q 108 360 108 185 l 108 926 l 224 926 l 224 363 q 292 160 224 233 q 486 86 360 86 q 681 160 613 86 q 749 363 749 233 l 749 926 l 864 926 l 864 361 q 767 84 864 185 z "},"V":{"ha":914,"x_min":13,"x_max":901,"o":"m 528 0 l 385 0 l 13 926 l 144 926 l 457 126 l 769 926 l 901 926 l 528 0 z "},"W":{"ha":1226,"x_min":19,"x_max":1206,"o":"m 942 0 l 817 0 l 613 747 l 408 0 l 283 0 l 19 926 l 147 926 l 353 154 l 565 926 l 661 926 l 874 154 l 1078 926 l 1206 926 l 942 0 z "},"X":{"ha":906,"x_min":17,"x_max":888,"o":"m 888 0 l 749 0 l 453 394 l 157 0 l 17 0 l 378 475 l 38 926 l 178 926 l 453 556 l 726 926 l 867 926 l 528 476 l 888 0 z "},"Y":{"ha":869,"x_min":13,"x_max":857,"o":"m 493 0 l 378 0 l 378 392 l 13 926 l 147 926 l 435 496 l 722 926 l 857 926 l 493 392 l 493 0 z "},"Z":{"ha":813,"x_min":67,"x_max":744,"o":"m 744 0 l 67 0 l 67 96 l 588 824 l 67 824 l 67 926 l 735 926 l 735 831 l 214 103 l 744 103 l 744 0 z "},"[":{"ha":338,"x_min":56,"x_max":314,"o":"m 314 -264 l 56 -264 l 56 942 l 314 942 l 314 865 l 136 865 l 136 -187 l 314 -187 l 314 -264 z "},"\\":{"ha":411,"x_min":0,"x_max":411,"o":"m 329 -28 l 0 954 l 82 954 l 411 -28 l 329 -28 z "},"]":{"ha":338,"x_min":24,"x_max":282,"o":"m 282 -264 l 24 -264 l 24 -187 l 201 -187 l 201 865 l 24 865 l 24 942 l 282 942 l 282 -264 z "},"^":{"ha":600,"x_min":26,"x_max":574,"o":"m 574 463 l 488 463 l 300 850 l 113 463 l 26 463 l 261 926 l 340 926 l 574 463 z "},"_":{"ha":783,"x_min":-4,"x_max":788,"o":"m 788 -132 l -4 -132 l -4 -56 l 788 -56 l 788 -132 z "},"`":{"ha":314,"x_min":0,"x_max":314,"o":"m 314 772 l 235 772 l 0 972 l 108 972 l 314 772 z "},"a":{"ha":732,"x_min":67,"x_max":628,"o":"m 628 0 l 524 0 l 524 76 q 301 -17 439 -17 q 138 43 208 -17 q 67 206 67 103 q 137 369 67 311 q 301 426 207 426 q 524 335 444 426 l 524 456 q 476 560 524 522 q 354 597 429 597 q 149 504 236 597 l 100 576 q 368 688 207 688 q 556 632 483 688 q 628 461 628 576 l 628 0 m 339 58 q 524 142 464 58 l 524 268 q 339 351 464 351 q 220 310 267 351 q 174 204 174 269 q 220 99 174 140 q 339 58 267 58 z "},"b":{"ha":799,"x_min":104,"x_max":733,"o":"m 208 182 q 292 107 236 138 q 408 76 349 76 q 567 149 508 76 q 625 335 625 221 q 567 522 625 449 q 408 594 508 594 q 292 563 349 594 q 208 486 236 532 l 208 182 m 208 0 l 104 0 l 104 926 l 208 926 l 208 569 q 435 688 296 688 q 650 591 567 688 q 733 335 733 494 q 651 78 733 174 q 435 -17 568 -17 q 208 100 294 -17 l 208 0 z "},"c":{"ha":688,"x_min":65,"x_max":646,"o":"m 400 -17 q 158 84 251 -17 q 65 336 65 185 q 158 588 65 488 q 400 688 251 688 q 646 571 556 688 l 576 507 q 406 594 513 594 q 237 522 300 594 q 174 336 174 450 q 237 149 174 222 q 406 76 300 76 q 576 164 511 76 l 646 100 q 400 -17 556 -17 z "},"d":{"ha":799,"x_min":65,"x_max":694,"o":"m 694 0 l 590 0 l 590 100 q 364 -17 504 -17 q 148 78 231 -17 q 65 335 65 174 q 148 591 65 494 q 364 688 231 688 q 590 569 503 688 l 590 926 l 694 926 l 694 0 m 389 76 q 506 107 450 76 q 590 182 561 138 l 590 486 q 505 563 561 532 q 389 594 449 594 q 232 522 290 594 q 174 335 174 449 q 232 149 174 221 q 389 76 290 76 z "},"e":{"ha":782,"x_min":65,"x_max":718,"o":"m 407 -17 q 161 81 257 -17 q 65 336 65 179 q 160 585 65 483 q 396 688 254 688 q 631 585 544 688 q 718 328 718 483 l 718 301 l 175 301 q 247 136 182 203 q 417 69 313 69 q 624 154 542 69 l 674 86 q 407 -17 571 -17 m 615 378 q 557 533 614 464 q 394 601 500 601 q 237 533 294 601 q 175 378 179 465 l 615 378 z "},"f":{"ha":393,"x_min":22,"x_max":469,"o":"m 238 0 l 133 0 l 133 579 l 22 579 l 22 671 l 133 671 l 133 722 q 185 883 133 825 q 328 940 238 940 q 469 889 414 940 l 426 821 q 343 854 389 854 q 265 820 292 854 q 238 722 238 786 l 238 671 l 374 671 l 374 579 l 238 579 l 238 0 z "},"g":{"ha":797,"x_min":65,"x_max":693,"o":"m 374 -272 q 222 -251 285 -272 q 103 -172 160 -229 l 156 -94 q 374 -186 232 -186 q 528 -137 467 -186 q 589 15 589 -87 l 589 111 q 492 25 551 58 q 364 -8 432 -8 q 148 85 231 -8 q 65 339 65 179 q 148 593 65 499 q 364 688 231 688 q 589 569 501 688 l 589 671 l 693 671 l 693 19 q 603 -203 693 -135 q 374 -272 513 -272 m 389 83 q 505 115 449 83 q 589 193 561 147 l 589 486 q 506 563 561 532 q 389 594 450 594 q 231 524 289 594 q 174 339 174 453 q 232 155 174 226 q 389 83 290 83 z "},"h":{"ha":767,"x_min":104,"x_max":663,"o":"m 663 0 l 558 0 l 558 442 q 519 560 558 525 q 407 594 481 594 q 295 564 350 594 q 208 490 240 533 l 208 0 l 104 0 l 104 926 l 208 926 l 208 574 q 313 653 247 619 q 449 688 378 688 q 663 474 663 688 l 663 0 z "},"i":{"ha":313,"x_min":86,"x_max":226,"o":"m 156 767 q 107 787 128 767 q 86 836 86 807 q 107 886 86 865 q 156 907 128 907 q 206 886 185 907 q 226 836 226 865 q 206 787 226 807 q 156 767 185 767 m 208 0 l 104 0 l 104 671 l 208 671 l 208 0 z "},"j":{"ha":313,"x_min":-137,"x_max":226,"o":"m 156 767 q 107 787 128 767 q 86 836 86 807 q 107 886 86 865 q 156 907 128 907 q 206 886 185 907 q 226 836 226 865 q 206 787 226 807 q 156 767 185 767 m 10 -272 q -137 -222 -72 -272 l -100 -143 q -4 -186 -57 -186 q 75 -156 46 -186 q 104 -65 104 -126 l 104 671 l 208 671 l 208 -65 q 157 -218 208 -164 q 10 -272 106 -272 z "},"k":{"ha":714,"x_min":104,"x_max":694,"o":"m 694 0 l 561 0 l 319 301 l 208 192 l 208 0 l 104 0 l 104 926 l 208 926 l 208 314 l 561 671 l 693 671 l 396 367 l 694 0 z "},"l":{"ha":313,"x_min":104,"x_max":208,"o":"m 208 0 l 104 0 l 104 926 l 208 926 l 208 0 z "},"m":{"ha":1122,"x_min":104,"x_max":1018,"o":"m 1018 0 l 914 0 l 914 456 q 790 594 914 594 q 690 564 740 594 q 613 492 640 533 l 613 0 l 508 0 l 508 456 q 385 594 508 594 q 287 564 336 594 q 208 490 238 533 l 208 0 l 104 0 l 104 671 l 208 671 l 208 574 q 296 650 233 613 q 425 688 358 688 q 544 653 499 688 q 606 563 590 618 q 699 650 636 613 q 831 688 761 688 q 1018 485 1018 688 l 1018 0 z "},"n":{"ha":765,"x_min":104,"x_max":661,"o":"m 661 0 l 557 0 l 557 439 q 518 559 557 524 q 407 594 479 594 q 294 564 349 594 q 208 490 239 533 l 208 0 l 104 0 l 104 671 l 208 671 l 208 574 q 313 653 247 619 q 447 688 378 688 q 661 471 661 688 l 661 0 z "},"o":{"ha":794,"x_min":65,"x_max":729,"o":"m 638 85 q 593 34 638 85 q 397 -17 547 -17 q 156 85 247 -17 q 65 336 65 186 q 156 587 65 486 q 397 688 247 688 q 638 587 547 688 q 729 336 729 486 q 638 85 729 186 m 234 152 q 264 114 234 152 q 397 76 294 76 q 560 152 500 76 q 619 336 619 228 q 560 519 619 444 q 397 594 500 594 q 234 519 294 594 q 174 336 174 443 q 234 152 174 228 z "},"p":{"ha":794,"x_min":104,"x_max":733,"o":"m 435 -17 q 208 101 293 -17 l 208 -256 l 104 -256 l 104 671 l 208 671 l 208 571 q 306 656 246 624 q 435 688 365 688 q 651 592 568 688 q 733 336 733 497 q 651 79 733 175 q 435 -17 568 -17 m 408 76 q 565 149 507 76 q 624 336 624 222 q 565 522 624 450 q 408 594 507 594 q 292 563 349 594 q 208 488 236 532 l 208 185 q 292 108 236 139 q 408 76 349 76 z "},"q":{"ha":794,"x_min":61,"x_max":689,"o":"m 385 76 q 502 108 446 76 q 585 185 558 139 l 585 488 q 502 563 558 532 q 385 594 446 594 q 228 522 286 594 q 171 336 171 450 q 228 149 171 222 q 385 76 286 76 m 360 -17 q 144 79 226 -17 q 61 336 61 175 q 144 592 61 497 q 360 688 226 688 q 489 656 429 688 q 585 571 549 624 l 585 671 l 689 671 l 689 -256 l 585 -256 l 585 101 q 360 -17 500 -17 z "},"r":{"ha":458,"x_min":104,"x_max":432,"o":"m 208 0 l 104 0 l 104 671 l 208 671 l 208 563 q 432 685 301 685 l 432 578 q 390 582 414 582 q 288 549 343 582 q 208 475 232 515 l 208 0 z "},"s":{"ha":646,"x_min":46,"x_max":581,"o":"m 317 -17 q 46 89 146 -17 l 100 164 q 195 96 135 124 q 321 68 256 68 q 438 100 396 68 q 479 183 479 132 q 436 253 479 228 q 333 292 393 279 q 211 323 272 306 q 107 383 150 340 q 64 494 64 425 q 131 632 64 576 q 314 688 199 688 q 563 590 465 688 l 514 518 q 314 603 443 603 q 206 573 246 603 q 165 497 165 543 q 208 434 165 457 q 313 398 251 411 q 434 367 374 385 q 538 303 494 349 q 581 186 581 258 q 511 40 581 97 q 317 -17 442 -17 z "},"t":{"ha":408,"x_min":14,"x_max":399,"o":"m 274 -17 q 163 24 200 -17 q 125 140 125 64 l 125 579 l 14 579 l 14 671 l 125 671 l 125 854 l 229 854 l 229 671 l 365 671 l 365 579 l 229 579 l 229 163 q 247 100 229 124 q 297 76 264 76 q 368 104 343 76 l 399 26 q 274 -17 353 -17 z "},"u":{"ha":765,"x_min":104,"x_max":661,"o":"m 661 0 l 557 0 l 557 94 q 452 15 515 47 q 318 -17 389 -17 q 104 197 104 -17 l 104 671 l 208 671 l 208 229 q 247 111 208 146 q 358 76 285 76 q 472 106 417 76 q 557 178 526 135 l 557 671 l 661 671 l 661 0 z "},"v":{"ha":681,"x_min":4,"x_max":676,"o":"m 397 0 l 283 0 l 4 671 l 117 671 l 340 121 l 563 671 l 676 671 l 397 0 z "},"w":{"ha":1019,"x_min":17,"x_max":1003,"o":"m 789 0 l 685 0 l 510 539 l 335 0 l 231 0 l 17 671 l 125 671 l 289 136 l 465 671 l 554 671 l 731 136 l 894 671 l 1003 671 l 789 0 z "},"x":{"ha":675,"x_min":17,"x_max":660,"o":"m 660 0 l 539 0 l 338 275 l 136 0 l 17 0 l 274 344 l 31 671 l 151 671 l 338 415 l 524 671 l 644 671 l 401 344 l 660 0 z "},"y":{"ha":681,"x_min":4,"x_max":676,"o":"m 67 -262 l 83 -168 q 140 -179 108 -179 q 200 -164 176 -179 q 240 -108 224 -149 l 285 -7 l 4 671 l 117 671 l 340 121 l 563 671 l 676 671 l 340 -136 q 143 -272 285 -269 q 67 -262 100 -272 z "},"z":{"ha":656,"x_min":72,"x_max":583,"o":"m 583 0 l 72 0 l 72 81 l 442 579 l 72 579 l 72 671 l 578 671 l 578 592 l 206 90 l 583 90 l 583 0 z "},"{":{"ha":361,"x_min":7,"x_max":338,"o":"m 338 -264 l 253 -264 q 131 -212 183 -264 q 79 -78 79 -160 l 79 208 q 60 277 79 250 q 7 304 42 304 l 7 374 q 60 401 42 374 q 79 469 79 428 l 79 754 q 131 890 79 838 q 253 942 183 942 l 338 942 l 338 865 l 253 865 q 188 834 215 865 q 161 754 161 803 l 161 461 q 97 339 161 367 q 161 217 161 311 l 161 -76 q 188 -156 161 -124 q 253 -187 215 -187 l 338 -187 l 338 -264 z "},"|":{"ha":293,"x_min":108,"x_max":185,"o":"m 185 -28 l 108 -28 l 108 954 l 185 954 l 185 -28 z "},"}":{"ha":361,"x_min":24,"x_max":354,"o":"m 24 -264 l 24 -187 l 108 -187 q 173 -156 146 -187 q 200 -76 200 -124 l 200 217 q 264 339 200 311 q 200 461 200 367 l 200 754 q 173 834 200 803 q 108 865 146 865 l 24 865 l 24 942 l 108 942 q 230 890 178 942 q 282 754 282 838 l 282 469 q 301 401 282 428 q 354 374 319 374 l 354 304 q 301 277 319 304 q 282 208 282 250 l 282 -78 q 230 -212 282 -160 q 108 -264 178 -264 l 24 -264 z "},"~":{"ha":699,"x_min":38,"x_max":660,"o":"m 582 926 l 660 917 q 642 793 653 846 q 611 690 632 740 q 554 614 590 640 q 468 588 518 588 q 388 615 419 588 q 340 681 356 642 q 310 758 324 719 q 278 824 297 797 q 229 851 258 851 q 115 586 142 851 l 38 596 q 56 719 44 665 q 88 822 67 772 q 144 899 108 872 q 229 925 181 925 q 310 898 278 925 q 359 831 343 871 q 388 753 375 792 q 419 687 400 714 q 468 660 439 660 q 582 926 558 660 z "}," ":{"ha":358,"x_min":0,"x_max":0,"o":""},"¡":{"ha":319,"x_min":83,"x_max":236,"o":"m 96 -256 l 117 411 l 203 411 l 225 -256 l 96 -256 m 106 555 q 94 566 106 555 q 83 608 83 578 q 106 662 83 639 q 160 685 129 685 q 213 662 190 685 q 236 608 236 639 q 214 555 236 578 q 160 532 192 532 q 106 555 128 532 z "},"¢":{"ha":688,"x_min":65,"x_max":646,"o":"m 350 -139 l 350 -12 q 144 101 222 4 q 65 336 65 197 q 144 569 65 472 q 350 683 222 665 l 350 785 l 432 785 l 432 686 q 646 571 563 675 l 576 507 q 432 593 521 582 l 432 78 q 576 164 519 86 l 646 100 q 432 -15 565 -4 l 432 -139 l 350 -139 m 174 336 q 221 169 174 239 q 350 82 268 100 l 350 588 q 221 501 268 569 q 174 336 174 432 z "},"£":{"ha":719,"x_min":26,"x_max":706,"o":"m 26 372 l 26 447 l 174 447 q 120 510 135 492 q 86 574 106 529 q 67 667 67 619 q 158 860 67 781 q 378 940 250 940 q 546 899 472 940 q 658 785 619 858 l 565 729 q 498 810 546 776 q 389 843 450 843 q 249 794 307 843 q 190 665 190 746 q 203 596 190 629 q 227 544 215 563 q 267 492 239 526 q 303 447 294 458 l 511 447 l 511 372 l 342 372 q 351 313 351 340 q 246 129 351 204 q 318 142 281 142 q 424 113 364 142 q 524 85 485 85 q 603 102 567 85 q 656 140 639 119 l 706 47 q 518 -18 638 -18 q 386 14 453 -18 q 269 46 319 46 q 106 -10 211 46 l 64 76 q 201 172 153 117 q 249 289 249 226 q 228 372 249 331 l 26 372 z "},"¤":{"ha":831,"x_min":38,"x_max":790,"o":"m 415 129 q 208 194 296 129 l 104 89 l 39 151 l 146 258 q 83 463 83 347 q 147 667 83 582 l 38 776 l 103 840 l 211 731 q 415 794 297 794 q 618 731 535 794 l 726 839 l 790 775 l 682 667 q 747 463 747 579 q 683 257 747 347 l 790 151 l 726 89 l 619 193 q 415 129 533 129 m 251 294 q 281 259 251 294 q 415 224 311 224 q 580 294 519 224 q 640 463 640 364 q 580 630 640 561 q 415 699 519 699 q 251 629 311 699 q 190 463 190 560 q 251 294 190 364 z "},"¥":{"ha":869,"x_min":13,"x_max":857,"o":"m 493 0 l 378 0 l 378 169 l 31 169 l 31 243 l 378 243 l 378 392 l 31 392 l 31 464 l 328 464 l 13 926 l 147 926 l 435 496 l 722 926 l 857 926 l 542 464 l 840 464 l 840 392 l 493 392 l 493 243 l 840 243 l 840 169 l 493 169 l 493 0 z "},"¦":{"ha":293,"x_min":108,"x_max":185,"o":"m 185 -28 l 108 -28 l 108 411 l 185 411 l 185 -28 m 185 515 l 108 515 l 108 954 l 185 954 l 185 515 z "},"§":{"ha":650,"x_min":47,"x_max":581,"o":"m 581 438 q 453 260 581 317 q 581 92 581 211 q 508 -58 581 -4 q 317 -112 436 -112 q 47 -4 158 -112 l 100 64 q 317 -36 183 -36 q 435 -4 390 -36 q 479 85 479 28 q 436 159 479 132 q 333 201 393 186 q 211 233 272 215 q 107 292 150 250 q 64 403 64 335 q 109 517 64 472 q 224 581 154 563 q 64 751 64 631 q 131 886 64 832 q 314 940 199 940 q 561 842 476 940 l 514 779 q 317 863 444 863 q 208 832 250 863 q 165 751 165 801 q 208 684 165 708 q 313 647 251 660 q 434 617 374 635 q 538 554 494 599 q 581 438 581 510 m 478 424 q 435 506 478 478 q 321 551 393 533 q 200 496 235 529 q 165 414 165 463 q 196 352 165 378 q 253 317 226 326 q 347 292 281 308 q 363 288 357 289 q 478 424 478 338 z "},"¨":{"ha":378,"x_min":-19,"x_max":397,"o":"m 378 884 q 388 875 378 884 q 397 839 397 865 q 378 793 397 813 q 332 774 358 774 q 286 793 306 774 q 267 839 267 813 q 286 884 267 865 q 332 903 306 903 q 378 884 358 903 m 91 884 q 100 875 91 884 q 110 839 110 865 q 91 793 110 813 q 46 774 72 774 q 0 792 19 774 q -19 839 -19 811 q 0 884 -19 865 q 46 903 19 903 q 91 884 72 903 z "},"©":{"ha":1081,"x_min":61,"x_max":1019,"o":"m 879 803 q 949 733 879 803 q 1019 464 1019 663 q 879 125 1019 265 q 540 -15 739 -15 q 201 126 342 -15 q 61 464 61 267 q 201 803 61 663 q 540 943 342 943 q 879 803 739 943 m 849 156 q 913 219 849 156 q 976 464 976 283 q 849 772 976 644 q 540 900 721 900 q 232 772 360 900 q 104 464 104 644 q 232 156 104 283 q 540 28 360 28 q 849 156 721 28 m 711 294 l 747 260 q 543 168 668 168 q 338 253 422 168 q 254 465 254 339 q 338 676 254 592 q 543 761 422 761 q 746 669 668 761 l 711 636 q 638 694 685 672 q 543 715 592 715 q 376 645 446 715 q 306 465 306 575 q 376 286 306 358 q 543 214 447 214 q 638 236 593 214 q 711 294 683 258 z "},"ª":{"ha":525,"x_min":57,"x_max":440,"o":"m 440 453 l 361 453 l 361 501 q 213 442 306 442 q 104 481 151 442 q 57 586 57 519 q 103 692 57 654 q 213 729 150 729 q 361 671 306 729 l 361 747 q 329 813 361 789 q 251 838 297 838 q 114 774 169 838 l 79 825 q 261 900 153 900 q 390 863 340 900 q 440 746 440 825 l 440 453 m 243 494 q 361 547 322 494 l 361 625 q 243 678 322 678 q 167 652 197 678 q 138 586 138 626 q 167 519 138 544 q 243 494 197 494 z "},"«":{"ha":610,"x_min":42,"x_max":568,"o":"m 568 88 l 464 88 l 242 338 l 464 583 l 568 583 l 346 338 l 568 88 m 368 88 l 264 88 l 42 338 l 264 583 l 368 583 l 146 338 l 368 88 z "},"¬":{"ha":700,"x_min":40,"x_max":653,"o":"m 653 635 l 653 293 l 576 293 l 576 561 l 40 561 l 40 635 l 653 635 z "},"­":{"ha":417,"x_min":42,"x_max":375,"o":"m 375 290 l 42 290 l 42 382 l 375 382 l 375 290 z "},"®":{"ha":686,"x_min":49,"x_max":638,"o":"m 638 646 q 551 438 638 524 q 343 351 465 351 q 135 438 221 351 q 49 646 49 524 q 135 854 49 768 q 343 940 221 940 q 552 855 467 940 q 638 646 638 769 m 523 465 q 560 503 523 465 q 597 646 597 540 q 523 826 597 751 q 343 900 449 900 q 162 826 236 900 q 88 646 88 751 q 163 465 88 540 q 343 390 238 390 q 523 465 449 390 m 479 476 l 424 476 l 336 610 l 275 610 l 275 476 l 231 476 l 231 814 l 368 814 q 444 785 413 814 q 475 711 475 757 q 444 637 475 663 q 389 611 413 611 l 479 476 m 429 711 q 410 756 429 738 q 368 775 392 775 l 275 775 l 275 650 l 368 650 q 410 668 390 650 q 429 711 429 686 z "},"¯":{"ha":504,"x_min":0,"x_max":504,"o":"m 504 794 l 0 794 l 0 861 l 504 861 l 504 794 z "},"°":{"ha":403,"x_min":32,"x_max":371,"o":"m 371 771 q 321 651 371 700 q 200 601 271 601 q 81 651 131 601 q 32 771 32 700 q 81 890 32 840 q 200 940 131 940 q 321 890 271 940 q 371 771 371 840 m 304 771 q 274 843 304 813 q 200 874 243 874 q 129 843 158 874 q 100 771 100 813 q 129 698 100 728 q 200 668 158 668 q 274 698 243 668 q 304 771 304 728 z "},"±":{"ha":693,"x_min":40,"x_max":653,"o":"m 653 450 l 386 450 l 386 153 l 307 153 l 307 450 l 40 450 l 40 522 l 307 522 l 307 810 l 386 810 l 386 522 l 653 522 l 653 450 m 653 0 l 40 0 l 40 72 l 653 72 l 653 0 z "},"²":{"ha":539,"x_min":68,"x_max":474,"o":"m 474 585 l 69 585 l 69 647 q 315 842 242 769 q 388 979 388 915 q 353 1055 388 1029 q 269 1081 318 1081 q 114 1008 168 1081 l 68 1061 q 272 1149 138 1149 q 413 1106 356 1149 q 471 985 471 1064 q 401 830 471 907 q 192 653 332 753 l 474 653 l 474 585 z "},"³":{"ha":539,"x_min":58,"x_max":476,"o":"m 476 736 q 419 619 476 664 q 267 575 363 575 q 58 665 124 575 l 103 718 q 264 643 164 643 q 358 669 324 643 q 393 740 393 696 q 249 836 393 836 q 193 835 201 836 l 193 904 q 247 903 203 903 q 383 992 383 903 q 348 1057 383 1033 q 260 1081 313 1081 q 108 1013 171 1081 l 65 1063 q 267 1149 142 1149 q 411 1108 356 1149 q 467 1000 467 1068 q 429 912 467 944 q 343 871 392 879 q 433 832 390 867 q 476 736 476 797 z "},"´":{"ha":314,"x_min":0,"x_max":314,"o":"m 314 972 l 79 772 l 0 772 l 206 972 l 314 972 z "},"µ":{"ha":785,"x_min":104,"x_max":761,"o":"m 208 50 l 208 -256 l 104 -256 l 104 671 l 208 671 l 208 229 q 361 74 208 74 q 472 104 418 74 q 557 178 526 135 l 557 671 l 661 671 l 661 157 q 726 76 661 76 q 753 79 742 76 l 761 -11 q 706 -17 731 -17 q 561 103 583 -17 q 467 17 524 51 q 349 -17 410 -17 q 208 50 244 -17 z "},"¶":{"ha":624,"x_min":38,"x_max":525,"o":"m 525 -139 l 463 -139 l 463 864 l 339 864 l 339 -139 l 276 -139 l 276 449 q 108 519 178 449 q 38 688 38 589 q 108 856 38 786 q 276 926 178 926 l 525 926 l 525 -139 z "},"·":{"ha":319,"x_min":83,"x_max":236,"o":"m 214 392 q 225 381 214 392 q 236 339 236 369 q 213 286 236 308 q 160 264 190 264 q 106 286 129 264 q 83 339 83 308 q 106 392 83 369 q 160 415 128 415 q 214 392 192 415 z "},"¸":{"ha":285,"x_min":0,"x_max":285,"o":"m 140 -265 q 0 -224 53 -265 l 26 -171 q 138 -211 75 -211 q 197 -195 172 -211 q 222 -153 222 -179 q 171 -104 222 -104 q 118 -128 139 -104 l 72 -101 l 115 15 l 178 15 l 142 -76 q 193 -61 164 -61 q 259 -87 233 -61 q 285 -154 285 -112 q 243 -235 285 -204 q 140 -265 201 -265 z "},"¹":{"ha":326,"x_min":19,"x_max":243,"o":"m 243 585 l 160 585 l 160 1032 l 68 936 l 19 988 l 169 1140 l 243 1140 l 243 585 z "},"º":{"ha":563,"x_min":56,"x_max":507,"o":"m 281 442 q 117 508 179 442 q 56 671 56 574 q 117 834 56 768 q 281 900 179 900 q 445 834 383 900 q 507 671 507 768 q 445 508 507 574 q 281 442 383 442 m 281 508 q 386 554 347 508 q 425 671 425 600 q 386 785 425 740 q 281 831 347 831 q 177 785 215 831 q 139 671 139 740 q 177 554 139 600 q 281 508 215 508 z "},"»":{"ha":610,"x_min":42,"x_max":568,"o":"m 368 338 l 146 88 l 42 88 l 264 338 l 42 583 l 146 583 l 368 338 m 568 338 l 346 88 l 242 88 l 464 338 l 242 583 l 346 583 l 568 338 z "},"¼":{"ha":1069,"x_min":19,"x_max":1018,"o":"m 243 371 l 160 371 l 160 818 l 68 722 l 19 774 l 169 926 l 243 926 l 243 371 m 1018 139 l 938 139 l 938 0 l 856 0 l 856 139 l 583 139 l 583 200 l 822 556 l 938 556 l 938 207 l 1018 207 l 1018 139 m 856 207 l 856 482 l 667 207 l 856 207 m 819 926 l 226 0 l 150 0 l 742 926 l 819 926 z "},"½":{"ha":1121,"x_min":19,"x_max":1054,"o":"m 243 371 l 160 371 l 160 818 l 68 722 l 19 774 l 169 926 l 243 926 l 243 371 m 1054 0 l 650 0 l 650 63 q 895 258 822 185 q 968 394 968 331 q 933 470 968 444 q 850 496 899 496 q 694 424 749 496 l 649 476 q 853 564 717 564 q 994 522 936 564 q 1051 400 1051 479 q 982 245 1051 322 q 772 68 913 168 l 1054 68 l 1054 0 m 819 926 l 226 0 l 150 0 l 742 926 l 819 926 z "},"¾":{"ha":1219,"x_min":58,"x_max":1169,"o":"m 1169 139 l 1089 139 l 1089 0 l 1007 0 l 1007 139 l 735 139 l 735 200 l 974 556 l 1089 556 l 1089 207 l 1169 207 l 1169 139 m 1007 207 l 1007 482 l 818 207 l 1007 207 m 969 926 l 376 0 l 300 0 l 892 926 l 969 926 m 476 522 q 419 406 476 450 q 267 361 363 361 q 58 451 124 361 l 103 504 q 264 429 164 429 q 358 456 324 429 q 393 526 393 482 q 249 622 393 622 q 193 621 201 622 l 193 690 q 247 689 203 689 q 383 778 383 689 q 348 843 383 819 q 260 867 313 867 q 108 799 171 867 l 65 849 q 267 935 142 935 q 411 894 356 935 q 467 786 467 854 q 429 698 467 731 q 343 657 392 665 q 433 618 390 653 q 476 522 476 583 z "},"¿":{"ha":547,"x_min":43,"x_max":615,"o":"m 358 411 q 413 297 413 363 q 387 210 413 249 q 324 144 361 171 q 251 92 288 117 q 188 33 214 67 q 163 -42 163 -1 q 205 -133 163 -96 q 325 -169 247 -169 q 547 -57 463 -169 l 615 -131 q 315 -272 507 -272 q 117 -210 192 -272 q 43 -57 43 -149 q 71 48 43 1 q 138 124 99 94 q 217 179 178 153 q 283 238 256 206 q 311 307 311 269 q 275 374 311 347 l 358 411 m 277 662 q 289 673 277 662 q 331 685 300 685 q 384 662 361 685 q 407 607 407 639 q 384 554 407 576 q 331 532 361 532 q 277 554 300 532 q 254 607 254 576 q 277 662 254 639 z "},"À":{"ha":914,"x_min":13,"x_max":901,"o":"m 901 0 l 769 0 l 688 206 l 226 206 l 144 0 l 13 0 l 385 926 l 528 926 l 901 0 m 653 308 l 457 807 l 260 308 l 653 308 m 536 1004 l 457 1004 l 222 1204 l 331 1204 l 536 1004 z "},"Á":{"ha":914,"x_min":13,"x_max":901,"o":"m 901 0 l 769 0 l 688 206 l 226 206 l 144 0 l 13 0 l 385 926 l 528 926 l 901 0 m 653 308 l 457 807 l 260 308 l 653 308 m 692 1204 l 457 1004 l 378 1004 l 583 1204 l 692 1204 z "},"Â":{"ha":914,"x_min":13,"x_max":901,"o":"m 643 1004 l 572 1004 l 457 1151 l 346 1004 l 275 1004 l 407 1204 l 507 1204 l 643 1004 m 901 0 l 769 0 l 688 206 l 226 206 l 144 0 l 13 0 l 385 926 l 528 926 l 901 0 m 653 308 l 457 807 l 260 308 l 653 308 z "},"Ã":{"ha":914,"x_min":13,"x_max":901,"o":"m 901 0 l 769 0 l 688 206 l 226 206 l 144 0 l 13 0 l 385 926 l 528 926 l 901 0 m 653 308 l 457 807 l 260 308 l 653 308 m 540 1001 q 480 1022 506 1001 q 442 1065 454 1042 q 410 1109 429 1089 q 369 1129 392 1129 q 322 1099 340 1129 q 303 1010 303 1069 l 240 1010 q 276 1144 240 1093 q 375 1196 311 1196 q 434 1176 408 1196 q 473 1132 460 1156 q 505 1088 486 1108 q 546 1068 524 1068 q 594 1098 575 1068 q 613 1188 613 1128 l 675 1188 q 640 1053 675 1104 q 540 1001 604 1001 z "},"Ä":{"ha":914,"x_min":13,"x_max":901,"o":"m 647 1116 q 657 1107 647 1116 q 667 1071 667 1097 q 647 1025 667 1044 q 601 1006 628 1006 q 556 1025 575 1006 q 536 1071 536 1044 q 556 1116 536 1097 q 601 1135 575 1135 q 647 1116 628 1135 m 360 1116 q 370 1107 360 1116 q 379 1071 379 1097 q 360 1025 379 1044 q 315 1006 342 1006 q 269 1025 289 1006 q 250 1071 250 1044 q 269 1116 250 1097 q 315 1135 289 1135 q 360 1116 342 1135 m 901 0 l 769 0 l 688 206 l 226 206 l 144 0 l 13 0 l 385 926 l 528 926 l 901 0 m 653 308 l 457 807 l 260 308 l 653 308 z "},"Å":{"ha":914,"x_min":13,"x_max":901,"o":"m 901 0 l 769 0 l 688 206 l 226 206 l 144 0 l 13 0 l 385 926 l 528 926 l 901 0 m 653 308 l 457 807 l 260 308 l 653 308 m 553 999 q 534 978 553 999 q 457 958 514 958 q 360 999 400 958 q 321 1094 321 1039 q 361 1192 321 1151 q 457 1232 401 1232 q 553 1192 513 1232 q 593 1094 593 1151 q 553 999 593 1039 m 400 1037 q 412 1025 400 1037 q 457 1013 424 1013 q 514 1037 490 1013 q 538 1094 538 1061 q 515 1153 538 1129 q 457 1176 492 1176 q 400 1153 424 1176 q 376 1094 376 1129 q 400 1037 376 1061 z "},"Æ":{"ha":1315,"x_min":10,"x_max":1240,"o":"m 1240 0 l 633 0 l 633 206 l 268 206 l 142 0 l 10 0 l 588 926 l 1240 926 l 1240 824 l 749 824 l 749 525 l 1231 525 l 1231 422 l 749 422 l 749 103 l 1240 103 l 1240 0 m 633 308 l 633 807 l 325 308 l 633 308 z "},"Ç":{"ha":939,"x_min":71,"x_max":900,"o":"m 539 -260 q 399 -218 450 -260 l 425 -165 q 536 -206 474 -206 q 596 -190 571 -206 q 621 -147 621 -174 q 569 -99 621 -99 q 517 -122 538 -99 l 471 -96 l 500 -14 q 192 133 314 1 q 71 463 71 264 q 208 808 71 674 q 547 942 344 942 q 899 758 769 942 l 801 704 q 693 801 761 764 q 547 839 625 839 q 292 733 394 839 q 190 463 190 626 q 292 192 190 299 q 547 86 394 86 q 693 123 625 86 q 801 221 761 160 l 900 167 q 561 -17 768 -11 l 540 -71 q 592 -56 563 -56 q 658 -81 632 -56 q 683 -149 683 -107 q 642 -229 683 -199 q 539 -260 600 -260 z "},"È":{"ha":790,"x_min":108,"x_max":715,"o":"m 715 0 l 108 0 l 108 926 l 715 926 l 715 824 l 224 824 l 224 525 l 706 525 l 706 422 l 224 422 l 224 103 l 715 103 l 715 0 m 490 1004 l 411 1004 l 176 1204 l 285 1204 l 490 1004 z "},"É":{"ha":790,"x_min":108,"x_max":715,"o":"m 646 1204 l 411 1004 l 332 1004 l 538 1204 l 646 1204 m 715 0 l 108 0 l 108 926 l 715 926 l 715 824 l 224 824 l 224 525 l 706 525 l 706 422 l 224 422 l 224 103 l 715 103 l 715 0 z "},"Ê":{"ha":790,"x_min":108,"x_max":715,"o":"m 594 1004 l 524 1004 l 408 1151 l 297 1004 l 226 1004 l 358 1204 l 458 1204 l 594 1004 m 715 0 l 108 0 l 108 926 l 715 926 l 715 824 l 224 824 l 224 525 l 706 525 l 706 422 l 224 422 l 224 103 l 715 103 l 715 0 z "},"Ë":{"ha":790,"x_min":108,"x_max":715,"o":"m 600 1116 q 610 1107 600 1116 q 619 1071 619 1097 q 600 1025 619 1044 q 554 1006 581 1006 q 508 1025 528 1006 q 489 1071 489 1044 q 508 1116 489 1097 q 554 1135 528 1135 q 600 1116 581 1135 m 313 1116 q 323 1107 313 1116 q 332 1071 332 1097 q 313 1025 332 1044 q 268 1006 294 1006 q 222 1025 242 1006 q 203 1071 203 1044 q 222 1116 203 1097 q 268 1135 242 1135 q 313 1116 294 1135 m 715 0 l 108 0 l 108 926 l 715 926 l 715 824 l 224 824 l 224 525 l 706 525 l 706 422 l 224 422 l 224 103 l 715 103 l 715 0 z "},"Ì":{"ha":332,"x_min":-69,"x_max":244,"o":"m 224 0 l 108 0 l 108 926 l 224 926 l 224 0 m 244 1004 l 165 1004 l -69 1204 l 39 1204 l 244 1004 z "},"Í":{"ha":332,"x_min":88,"x_max":401,"o":"m 224 0 l 108 0 l 108 926 l 224 926 l 224 0 m 401 1204 l 167 1004 l 88 1004 l 293 1204 l 401 1204 z "},"Î":{"ha":332,"x_min":-17,"x_max":351,"o":"m 351 1004 l 281 1004 l 165 1151 l 54 1004 l -17 1004 l 115 1204 l 215 1204 l 351 1004 m 224 0 l 108 0 l 108 926 l 224 926 l 224 0 z "},"Ï":{"ha":332,"x_min":-42,"x_max":375,"o":"m 356 1116 q 365 1107 356 1116 q 375 1071 375 1097 q 356 1025 375 1044 q 310 1006 336 1006 q 264 1025 283 1006 q 244 1071 244 1044 q 264 1116 244 1097 q 310 1135 283 1135 q 356 1116 336 1135 m 69 1116 q 78 1107 69 1116 q 88 1071 88 1097 q 69 1025 88 1044 q 24 1006 50 1006 q -22 1025 -3 1006 q -42 1071 -42 1044 q -22 1116 -42 1097 q 24 1135 -3 1135 q 69 1116 50 1135 m 224 0 l 108 0 l 108 926 l 224 926 l 224 0 z "},"Ð":{"ha":1011,"x_min":14,"x_max":939,"o":"m 464 0 l 147 0 l 147 415 l 14 415 l 14 500 l 147 500 l 147 926 l 464 926 q 808 794 676 926 q 939 463 939 663 q 808 131 939 261 q 464 0 676 0 m 464 103 q 724 206 628 103 q 819 463 819 308 q 725 721 819 618 q 464 824 631 824 l 263 824 l 263 500 l 497 500 l 497 415 l 263 415 l 263 103 l 464 103 z "},"Ñ":{"ha":983,"x_min":108,"x_max":875,"o":"m 572 1001 q 512 1022 538 1001 q 474 1065 486 1042 q 442 1109 461 1089 q 401 1129 424 1129 q 353 1099 372 1129 q 335 1010 335 1069 l 272 1010 q 308 1144 272 1093 q 407 1196 343 1196 q 466 1176 440 1196 q 505 1132 492 1156 q 537 1088 518 1108 q 578 1068 556 1068 q 626 1098 607 1068 q 644 1188 644 1128 l 707 1188 q 672 1053 707 1104 q 572 1001 636 1001 m 875 0 l 764 0 l 224 739 l 224 0 l 108 0 l 108 926 l 226 926 l 760 203 l 760 926 l 875 926 l 875 0 z "},"Ò":{"ha":1063,"x_min":71,"x_max":990,"o":"m 611 1004 l 532 1004 l 297 1204 l 406 1204 l 611 1004 m 531 -17 q 199 119 326 -17 q 71 463 71 256 q 199 806 71 669 q 531 942 326 942 q 862 806 733 942 q 990 463 990 669 q 862 119 990 256 q 531 -17 733 -17 m 531 86 q 777 192 683 86 q 871 463 871 299 q 777 733 871 628 q 531 839 683 839 q 283 733 376 839 q 190 463 190 628 q 283 192 190 299 q 531 86 376 86 z "},"Ó":{"ha":1063,"x_min":71,"x_max":990,"o":"m 767 1204 l 532 1004 l 453 1004 l 658 1204 l 767 1204 m 531 -17 q 199 119 326 -17 q 71 463 71 256 q 199 806 71 669 q 531 942 326 942 q 862 806 733 942 q 990 463 990 669 q 862 119 990 256 q 531 -17 733 -17 m 531 86 q 777 192 683 86 q 871 463 871 299 q 777 733 871 628 q 531 839 683 839 q 283 733 376 839 q 190 463 190 628 q 283 192 190 299 q 531 86 376 86 z "},"Ô":{"ha":1063,"x_min":71,"x_max":990,"o":"m 718 1004 l 647 1004 l 532 1151 l 421 1004 l 350 1004 l 482 1204 l 582 1204 l 718 1004 m 531 -17 q 199 119 326 -17 q 71 463 71 256 q 199 806 71 669 q 531 942 326 942 q 862 806 733 942 q 990 463 990 669 q 862 119 990 256 q 531 -17 733 -17 m 531 86 q 777 192 683 86 q 871 463 871 299 q 777 733 871 628 q 531 839 683 839 q 283 733 376 839 q 190 463 190 628 q 283 192 190 299 q 531 86 376 86 z "},"Õ":{"ha":1063,"x_min":71,"x_max":990,"o":"m 531 -17 q 199 119 326 -17 q 71 463 71 256 q 199 806 71 669 q 531 942 326 942 q 862 806 733 942 q 990 463 990 669 q 862 119 990 256 q 531 -17 733 -17 m 531 86 q 777 192 683 86 q 871 463 871 299 q 777 733 871 628 q 531 839 683 839 q 283 733 376 839 q 190 463 190 628 q 283 192 190 299 q 531 86 376 86 m 614 1001 q 553 1022 579 1001 q 515 1065 528 1042 q 484 1109 503 1089 q 443 1129 465 1129 q 395 1099 414 1129 q 376 1010 376 1069 l 314 1010 q 349 1144 314 1093 q 449 1196 385 1196 q 508 1176 482 1196 q 547 1132 533 1156 q 578 1088 560 1108 q 619 1068 597 1068 q 667 1098 649 1068 q 686 1188 686 1128 l 749 1188 q 713 1053 749 1104 q 614 1001 678 1001 z "},"Ö":{"ha":1063,"x_min":71,"x_max":990,"o":"m 719 1116 q 729 1107 719 1116 q 739 1071 739 1097 q 719 1025 739 1044 q 674 1006 700 1006 q 628 1025 647 1006 q 608 1071 608 1044 q 628 1116 608 1097 q 674 1135 647 1135 q 719 1116 700 1135 m 433 1116 q 442 1107 433 1116 q 451 1071 451 1097 q 433 1025 451 1044 q 388 1006 414 1006 q 342 1025 361 1006 q 322 1071 322 1044 q 342 1116 322 1097 q 388 1135 361 1135 q 433 1116 414 1135 m 531 -17 q 199 119 326 -17 q 71 463 71 256 q 199 806 71 669 q 531 942 326 942 q 862 806 733 942 q 990 463 990 669 q 862 119 990 256 q 531 -17 733 -17 m 531 86 q 777 192 683 86 q 871 463 871 299 q 777 733 871 628 q 531 839 683 839 q 283 733 376 839 q 190 463 190 628 q 283 192 190 299 q 531 86 376 86 z "},"×":{"ha":693,"x_min":89,"x_max":604,"o":"m 553 206 l 346 413 l 140 206 l 89 257 l 294 464 l 89 669 l 140 722 l 346 515 l 553 722 l 604 669 l 399 464 l 604 257 l 553 206 z "},"Ø":{"ha":1063,"x_min":71,"x_max":990,"o":"m 531 -17 q 290 46 396 -17 l 260 0 l 168 0 l 229 90 q 71 463 71 226 q 199 806 71 669 q 531 942 326 942 q 763 883 658 942 l 792 926 l 883 926 l 825 840 q 947 677 904 775 q 990 463 990 579 q 862 119 990 256 q 531 -17 733 -17 m 531 86 q 777 192 683 86 q 871 463 871 299 q 763 747 871 643 l 350 135 q 531 86 426 86 m 190 463 q 292 183 190 288 l 703 794 q 531 839 625 839 q 283 733 376 839 q 190 463 190 628 z "},"Ù":{"ha":972,"x_min":108,"x_max":864,"o":"m 767 84 q 719 34 767 84 q 486 -17 671 -17 q 205 84 301 -17 q 108 360 108 185 l 108 926 l 224 926 l 224 363 q 292 160 224 233 q 486 86 360 86 q 681 160 613 86 q 749 363 749 233 l 749 926 l 864 926 l 864 361 q 767 84 864 185 m 565 1004 l 486 1004 l 251 1204 l 360 1204 l 565 1004 z "},"Ú":{"ha":972,"x_min":108,"x_max":864,"o":"m 721 1204 l 486 1004 l 407 1004 l 613 1204 l 721 1204 m 767 84 q 719 34 767 84 q 486 -17 671 -17 q 205 84 301 -17 q 108 360 108 185 l 108 926 l 224 926 l 224 363 q 292 160 224 233 q 486 86 360 86 q 681 160 613 86 q 749 363 749 233 l 749 926 l 864 926 l 864 361 q 767 84 864 185 z "},"Û":{"ha":972,"x_min":108,"x_max":864,"o":"m 674 1004 l 603 1004 l 488 1151 l 376 1004 l 306 1004 l 438 1204 l 538 1204 l 674 1004 m 767 84 q 719 34 767 84 q 486 -17 671 -17 q 205 84 301 -17 q 108 360 108 185 l 108 926 l 224 926 l 224 363 q 292 160 224 233 q 486 86 360 86 q 681 160 613 86 q 749 363 749 233 l 749 926 l 864 926 l 864 361 q 767 84 864 185 z "},"Ü":{"ha":972,"x_min":108,"x_max":864,"o":"m 676 1116 q 686 1107 676 1116 q 696 1071 696 1097 q 676 1025 696 1044 q 631 1006 657 1006 q 585 1025 604 1006 q 565 1071 565 1044 q 585 1116 565 1097 q 631 1135 604 1135 q 676 1116 657 1135 m 390 1116 q 399 1107 390 1116 q 408 1071 408 1097 q 390 1025 408 1044 q 344 1006 371 1006 q 298 1025 317 1006 q 279 1071 279 1044 q 299 1116 279 1097 q 344 1135 318 1135 q 390 1116 371 1135 m 767 84 q 719 34 767 84 q 486 -17 671 -17 q 205 84 301 -17 q 108 360 108 185 l 108 926 l 224 926 l 224 363 q 292 160 224 233 q 486 86 360 86 q 681 160 613 86 q 749 363 749 233 l 749 926 l 864 926 l 864 361 q 767 84 864 185 z "},"Ý":{"ha":869,"x_min":13,"x_max":857,"o":"m 493 0 l 378 0 l 378 392 l 13 926 l 147 926 l 435 496 l 722 926 l 857 926 l 493 392 l 493 0 m 669 1204 l 435 1004 l 356 1004 l 561 1204 l 669 1204 z "},"Þ":{"ha":815,"x_min":108,"x_max":771,"o":"m 224 0 l 108 0 l 108 926 l 224 926 l 224 761 l 481 761 q 693 681 615 761 q 771 481 771 600 q 692 283 771 363 q 481 203 614 203 l 224 203 l 224 0 m 467 306 q 600 354 549 306 q 651 481 651 403 q 600 608 651 558 q 467 658 549 658 l 224 658 l 224 306 l 467 306 z "},"ß":{"ha":829,"x_min":104,"x_max":803,"o":"m 803 188 q 735 42 803 101 q 544 -17 668 -17 q 395 11 453 -17 q 286 92 338 39 l 339 164 q 424 95 371 122 q 544 68 478 68 q 660 102 619 68 q 701 185 701 136 q 660 255 701 229 q 561 294 619 281 q 444 326 503 308 q 344 385 385 343 q 303 494 303 428 q 335 586 303 546 q 404 647 367 626 q 474 696 442 668 q 506 753 506 724 q 464 822 506 797 q 368 847 422 847 q 254 805 300 847 q 208 693 208 763 l 208 0 l 104 0 l 104 693 q 177 869 104 797 q 369 940 250 940 q 541 892 469 940 q 613 765 613 844 q 580 675 613 714 q 508 616 547 636 q 437 565 469 596 q 404 496 404 533 q 445 434 404 457 q 545 399 486 411 q 663 368 604 386 q 762 305 721 350 q 803 188 803 260 z "},"à":{"ha":732,"x_min":67,"x_max":628,"o":"m 628 0 l 524 0 l 524 76 q 301 -17 439 -17 q 138 43 208 -17 q 67 206 67 103 q 137 369 67 311 q 301 426 207 426 q 524 335 444 426 l 524 456 q 476 560 524 522 q 354 597 429 597 q 149 504 236 597 l 100 576 q 368 688 207 688 q 556 632 483 688 q 628 461 628 576 l 628 0 m 339 58 q 524 142 464 58 l 524 268 q 339 351 464 351 q 220 310 267 351 q 174 204 174 269 q 220 99 174 140 q 339 58 267 58 m 447 772 l 368 772 l 133 972 l 242 972 l 447 772 z "},"á":{"ha":732,"x_min":67,"x_max":628,"o":"m 628 0 l 524 0 l 524 76 q 301 -17 439 -17 q 138 43 208 -17 q 67 206 67 103 q 137 369 67 311 q 301 426 207 426 q 524 335 444 426 l 524 456 q 476 560 524 522 q 354 597 429 597 q 149 504 236 597 l 100 576 q 368 688 207 688 q 556 632 483 688 q 628 461 628 576 l 628 0 m 339 58 q 524 142 464 58 l 524 268 q 339 351 464 351 q 220 310 267 351 q 174 204 174 269 q 220 99 174 140 q 339 58 267 58 m 603 972 l 368 772 l 289 772 l 494 972 l 603 972 z "},"â":{"ha":732,"x_min":67,"x_max":628,"o":"m 628 0 l 524 0 l 524 76 q 301 -17 439 -17 q 138 43 208 -17 q 67 206 67 103 q 137 369 67 311 q 301 426 207 426 q 524 335 444 426 l 524 456 q 476 560 524 522 q 354 597 429 597 q 149 504 236 597 l 100 576 q 368 688 207 688 q 556 632 483 688 q 628 461 628 576 l 628 0 m 339 58 q 524 142 464 58 l 524 268 q 339 351 464 351 q 220 310 267 351 q 174 204 174 269 q 220 99 174 140 q 339 58 267 58 m 553 772 l 482 772 l 367 919 l 256 772 l 185 772 l 317 972 l 417 972 l 553 772 z "},"ã":{"ha":732,"x_min":67,"x_max":628,"o":"m 628 0 l 524 0 l 524 76 q 301 -17 439 -17 q 138 43 208 -17 q 67 206 67 103 q 137 369 67 311 q 301 426 207 426 q 524 335 444 426 l 524 456 q 476 560 524 522 q 354 597 429 597 q 149 504 236 597 l 100 576 q 368 688 207 688 q 556 632 483 688 q 628 461 628 576 l 628 0 m 339 58 q 524 142 464 58 l 524 268 q 339 351 464 351 q 220 310 267 351 q 174 204 174 269 q 220 99 174 140 q 339 58 267 58 m 451 769 q 391 790 417 769 q 353 833 365 810 q 322 877 340 857 q 281 897 303 897 q 233 867 251 897 q 214 778 214 838 l 151 778 q 187 913 151 861 q 286 964 222 964 q 345 944 319 964 q 384 900 371 924 q 416 856 397 876 q 457 836 435 836 q 505 866 486 836 q 524 956 524 896 l 586 956 q 551 821 586 872 q 451 769 515 769 z "},"ä":{"ha":732,"x_min":67,"x_max":628,"o":"m 628 0 l 524 0 l 524 76 q 301 -17 439 -17 q 138 43 208 -17 q 67 206 67 103 q 137 369 67 311 q 301 426 207 426 q 524 335 444 426 l 524 456 q 476 560 524 522 q 354 597 429 597 q 149 504 236 597 l 100 576 q 368 688 207 688 q 556 632 483 688 q 628 461 628 576 l 628 0 m 339 58 q 524 142 464 58 l 524 268 q 339 351 464 351 q 220 310 267 351 q 174 204 174 269 q 220 99 174 140 q 339 58 267 58 m 557 884 q 567 875 557 884 q 576 839 576 865 q 557 793 576 813 q 511 774 538 774 q 465 793 485 774 q 446 839 446 813 q 465 884 446 865 q 511 903 485 903 q 557 884 538 903 m 270 884 q 280 875 270 884 q 289 839 289 865 q 270 793 289 813 q 225 774 251 774 q 178 792 197 774 q 160 839 160 811 q 179 884 160 865 q 225 903 199 903 q 270 884 251 903 z "},"å":{"ha":732,"x_min":67,"x_max":628,"o":"m 628 0 l 524 0 l 524 76 q 301 -17 439 -17 q 138 43 208 -17 q 67 206 67 103 q 137 369 67 311 q 301 426 207 426 q 524 335 444 426 l 524 456 q 476 560 524 522 q 354 597 429 597 q 149 504 236 597 l 100 576 q 368 688 207 688 q 556 632 483 688 q 628 461 628 576 l 628 0 m 339 58 q 524 142 464 58 l 524 268 q 339 351 464 351 q 220 310 267 351 q 174 204 174 269 q 220 99 174 140 q 339 58 267 58 m 465 794 q 445 774 465 794 q 368 754 425 754 q 272 794 311 754 q 232 890 232 833 q 272 988 232 947 q 368 1028 313 1028 q 464 988 424 1028 q 504 890 504 947 q 465 794 504 833 m 311 833 q 323 820 311 833 q 368 808 335 808 q 425 833 401 808 q 449 890 449 857 q 426 949 449 925 q 368 972 403 972 q 311 949 335 972 q 288 890 288 925 q 311 833 288 857 z "},"æ":{"ha":1235,"x_min":67,"x_max":1171,"o":"m 1171 301 l 661 301 q 728 138 668 203 q 885 72 788 72 q 1078 157 1001 72 l 1128 86 q 881 -17 1028 -17 q 613 144 692 -17 q 502 28 576 72 q 336 -17 428 -17 q 144 42 222 -17 q 67 206 67 101 q 138 368 67 310 q 314 426 210 426 q 557 338 469 426 l 557 457 q 506 560 557 522 q 372 597 456 597 q 149 504 242 597 l 100 576 q 385 688 210 688 q 539 651 474 688 q 622 542 604 615 q 871 688 706 688 q 1091 586 1011 688 q 1171 328 1171 485 l 1171 301 m 661 378 l 1068 378 q 1015 533 1067 465 q 864 601 964 601 q 719 533 772 601 q 661 378 665 464 m 557 250 l 557 267 q 356 351 485 351 q 224 313 274 351 q 174 211 174 275 q 224 110 174 149 q 356 72 274 72 q 499 126 442 72 q 557 250 557 181 z "},"ç":{"ha":688,"x_min":65,"x_max":646,"o":"m 401 -262 q 261 -221 314 -262 l 288 -168 q 399 -208 336 -208 q 458 -192 433 -208 q 483 -150 483 -176 q 432 -101 483 -101 q 379 -125 400 -101 l 333 -99 l 364 -14 q 148 96 231 -1 q 65 336 65 193 q 158 588 65 488 q 400 688 251 688 q 646 571 556 688 l 576 507 q 406 594 513 594 q 237 522 300 594 q 174 336 174 450 q 237 149 174 222 q 406 76 300 76 q 576 164 511 76 l 646 100 q 425 -15 563 -7 l 403 -74 q 454 -58 425 -58 q 520 -84 494 -58 q 546 -151 546 -110 q 504 -232 546 -201 q 401 -262 463 -262 z "},"è":{"ha":782,"x_min":65,"x_max":718,"o":"m 407 -17 q 161 81 257 -17 q 65 336 65 179 q 160 585 65 483 q 396 688 254 688 q 631 585 544 688 q 718 328 718 483 l 718 301 l 175 301 q 247 136 182 203 q 417 69 313 69 q 624 154 542 69 l 674 86 q 407 -17 571 -17 m 615 378 q 557 533 614 464 q 394 601 500 601 q 237 533 294 601 q 175 378 179 465 l 615 378 m 475 772 l 396 772 l 161 972 l 269 972 l 475 772 z "},"é":{"ha":782,"x_min":65,"x_max":718,"o":"m 631 972 l 396 772 l 317 772 l 522 972 l 631 972 m 407 -17 q 161 81 257 -17 q 65 336 65 179 q 160 585 65 483 q 396 688 254 688 q 631 585 544 688 q 718 328 718 483 l 718 301 l 175 301 q 247 136 182 203 q 417 69 313 69 q 624 154 542 69 l 674 86 q 407 -17 571 -17 m 615 378 q 557 533 614 464 q 394 601 500 601 q 237 533 294 601 q 175 378 179 465 l 615 378 z "},"ê":{"ha":782,"x_min":65,"x_max":718,"o":"m 582 772 l 511 772 l 396 919 l 285 772 l 214 772 l 346 972 l 446 972 l 582 772 m 407 -17 q 161 81 257 -17 q 65 336 65 179 q 160 585 65 483 q 396 688 254 688 q 631 585 544 688 q 718 328 718 483 l 718 301 l 175 301 q 247 136 182 203 q 417 69 313 69 q 624 154 542 69 l 674 86 q 407 -17 571 -17 m 615 378 q 557 533 614 464 q 394 601 500 601 q 237 533 294 601 q 175 378 179 465 l 615 378 z "},"ë":{"ha":782,"x_min":65,"x_max":718,"o":"m 586 884 q 596 875 586 884 q 606 839 606 865 q 586 793 606 813 q 540 774 567 774 q 494 793 514 774 q 475 839 475 813 q 494 884 475 865 q 540 903 514 903 q 586 884 567 903 m 299 884 q 309 875 299 884 q 318 839 318 865 q 299 793 318 813 q 254 774 281 774 q 208 792 228 774 q 189 839 189 811 q 208 884 189 865 q 254 903 228 903 q 299 884 281 903 m 407 -17 q 161 81 257 -17 q 65 336 65 179 q 160 585 65 483 q 396 688 254 688 q 631 585 544 688 q 718 328 718 483 l 718 301 l 175 301 q 247 136 182 203 q 417 69 313 69 q 624 154 542 69 l 674 86 q 407 -17 571 -17 m 615 378 q 557 533 614 464 q 394 601 500 601 q 237 533 294 601 q 175 378 179 465 l 615 378 z "},"ì":{"ha":313,"x_min":-79,"x_max":235,"o":"m 208 0 l 104 0 l 104 671 l 208 671 l 208 0 m 235 772 l 156 772 l -79 972 l 29 972 l 235 772 z "},"í":{"ha":313,"x_min":78,"x_max":392,"o":"m 392 972 l 157 772 l 78 772 l 283 972 l 392 972 m 208 0 l 104 0 l 104 671 l 208 671 l 208 0 z "},"î":{"ha":313,"x_min":-28,"x_max":340,"o":"m 340 772 l 269 772 l 154 919 l 43 772 l -28 772 l 104 972 l 204 972 l 340 772 m 208 0 l 104 0 l 104 671 l 208 671 l 208 0 z "},"ï":{"ha":313,"x_min":-51,"x_max":365,"o":"m 346 884 q 356 875 346 884 q 365 839 365 865 q 346 793 365 813 q 300 774 326 774 q 254 793 274 774 q 235 839 235 813 q 254 884 235 865 q 300 903 274 903 q 346 884 326 903 m 59 884 q 68 875 59 884 q 78 839 78 865 q 59 793 78 813 q 14 774 40 774 q -33 792 -14 774 q -51 839 -51 811 q -32 884 -51 865 q 14 903 -12 903 q 59 884 40 903 m 208 0 l 104 0 l 104 671 l 208 671 l 208 0 z "},"ð":{"ha":794,"x_min":65,"x_max":729,"o":"m 169 690 l 144 749 l 308 821 l 204 888 l 261 974 q 417 868 354 917 l 567 935 l 590 878 l 471 825 q 729 343 729 606 q 639 84 729 185 q 397 -17 549 -17 q 157 81 249 -17 q 65 325 65 178 q 151 569 65 472 q 371 665 238 665 q 590 542 504 665 q 368 778 522 664 l 169 690 m 234 149 q 264 113 234 149 q 397 76 294 76 q 560 149 500 76 q 619 325 619 221 q 560 500 619 428 q 397 572 500 572 q 234 500 294 572 q 174 325 174 428 q 234 149 174 221 z "},"ñ":{"ha":765,"x_min":104,"x_max":661,"o":"m 661 0 l 557 0 l 557 439 q 518 559 557 524 q 407 594 479 594 q 294 564 349 594 q 208 490 239 533 l 208 0 l 104 0 l 104 671 l 208 671 l 208 574 q 313 653 247 619 q 447 688 378 688 q 661 471 661 688 l 661 0 m 467 769 q 406 790 432 769 q 368 833 381 810 q 337 877 356 857 q 296 897 318 897 q 248 867 267 897 q 229 778 229 838 l 167 778 q 202 913 167 861 q 301 964 238 964 q 360 944 335 964 q 399 900 386 924 q 431 856 413 876 q 472 836 450 836 q 520 866 501 836 q 539 956 539 896 l 601 956 q 566 821 601 872 q 467 769 531 769 z "},"ò":{"ha":794,"x_min":65,"x_max":729,"o":"m 638 85 q 593 34 638 85 q 397 -17 547 -17 q 156 85 247 -17 q 65 336 65 186 q 156 587 65 486 q 397 688 247 688 q 638 587 547 688 q 729 336 729 486 q 638 85 729 186 m 234 152 q 264 114 234 152 q 397 76 294 76 q 560 152 500 76 q 619 336 619 228 q 560 519 619 444 q 397 594 500 594 q 234 519 294 594 q 174 336 174 443 q 234 152 174 228 m 476 772 l 397 772 l 163 972 l 271 972 l 476 772 z "},"ó":{"ha":794,"x_min":65,"x_max":729,"o":"m 632 972 l 397 772 l 318 772 l 524 972 l 632 972 m 638 85 q 593 34 638 85 q 397 -17 547 -17 q 156 85 247 -17 q 65 336 65 186 q 156 587 65 486 q 397 688 247 688 q 638 587 547 688 q 729 336 729 486 q 638 85 729 186 m 234 152 q 264 114 234 152 q 397 76 294 76 q 560 152 500 76 q 619 336 619 228 q 560 519 619 444 q 397 594 500 594 q 234 519 294 594 q 174 336 174 443 q 234 152 174 228 z "},"ô":{"ha":794,"x_min":65,"x_max":729,"o":"m 582 772 l 511 772 l 396 919 l 285 772 l 214 772 l 346 972 l 446 972 l 582 772 m 638 85 q 593 34 638 85 q 397 -17 547 -17 q 156 85 247 -17 q 65 336 65 186 q 156 587 65 486 q 397 688 247 688 q 638 587 547 688 q 729 336 729 486 q 638 85 729 186 m 234 152 q 264 114 234 152 q 397 76 294 76 q 560 152 500 76 q 619 336 619 228 q 560 519 619 444 q 397 594 500 594 q 234 519 294 594 q 174 336 174 443 q 234 152 174 228 z "},"õ":{"ha":794,"x_min":65,"x_max":729,"o":"m 638 85 q 593 34 638 85 q 397 -17 547 -17 q 156 85 247 -17 q 65 336 65 186 q 156 587 65 486 q 397 688 247 688 q 638 587 547 688 q 729 336 729 486 q 638 85 729 186 m 234 152 q 264 114 234 152 q 397 76 294 76 q 560 152 500 76 q 619 336 619 228 q 560 519 619 444 q 397 594 500 594 q 234 519 294 594 q 174 336 174 443 q 234 152 174 228 m 481 769 q 420 790 446 769 q 382 833 394 810 q 351 877 369 857 q 310 897 332 897 q 262 867 281 897 q 243 778 243 838 l 181 778 q 216 913 181 861 q 315 964 251 964 q 374 944 349 964 q 413 900 400 924 q 445 856 426 876 q 486 836 464 836 q 534 866 515 836 q 553 956 553 896 l 615 956 q 580 821 615 872 q 481 769 544 769 z "},"ö":{"ha":794,"x_min":65,"x_max":729,"o":"m 586 884 q 596 875 586 884 q 606 839 606 865 q 586 793 606 813 q 540 774 567 774 q 494 793 514 774 q 475 839 475 813 q 494 884 475 865 q 540 903 514 903 q 586 884 567 903 m 299 884 q 309 875 299 884 q 318 839 318 865 q 299 793 318 813 q 254 774 281 774 q 208 792 228 774 q 189 839 189 811 q 208 884 189 865 q 254 903 228 903 q 299 884 281 903 m 638 85 q 593 34 638 85 q 397 -17 547 -17 q 156 85 247 -17 q 65 336 65 186 q 156 587 65 486 q 397 688 247 688 q 638 587 547 688 q 729 336 729 486 q 638 85 729 186 m 234 152 q 264 114 234 152 q 397 76 294 76 q 560 152 500 76 q 619 336 619 228 q 560 519 619 444 q 397 594 500 594 q 234 519 294 594 q 174 336 174 443 q 234 152 174 228 z "},"÷":{"ha":710,"x_min":40,"x_max":669,"o":"m 401 776 q 410 766 401 776 q 419 731 419 757 q 400 685 419 704 q 354 667 381 667 q 310 685 328 667 q 292 731 292 704 q 310 776 292 757 q 354 794 328 794 q 401 776 382 794 m 669 432 l 40 432 l 40 504 l 669 504 l 669 432 m 400 245 q 410 236 400 245 q 419 200 419 226 q 400 155 419 174 q 354 136 381 136 q 310 155 328 136 q 292 200 292 174 q 310 245 292 226 q 354 264 328 264 q 400 245 381 264 z "},"ø":{"ha":794,"x_min":65,"x_max":729,"o":"m 164 0 l 89 0 l 156 85 q 65 336 65 183 q 156 587 65 486 q 397 688 247 688 q 588 631 507 688 l 619 671 l 694 671 l 632 592 q 729 336 729 492 q 638 85 729 186 q 397 -17 547 -17 q 200 46 282 -17 l 164 0 m 397 76 q 560 152 500 76 q 619 336 619 228 q 567 510 619 438 l 261 124 q 397 76 319 76 m 174 336 q 221 168 174 239 l 525 553 q 397 594 472 594 q 234 519 294 594 q 174 336 174 443 z "},"ù":{"ha":765,"x_min":104,"x_max":661,"o":"m 661 0 l 557 0 l 557 94 q 452 15 515 47 q 318 -17 389 -17 q 104 197 104 -17 l 104 671 l 208 671 l 208 229 q 247 111 208 146 q 358 76 285 76 q 472 106 417 76 q 557 178 526 135 l 557 671 l 661 671 l 661 0 m 461 772 l 382 772 l 147 972 l 256 972 l 461 772 z "},"ú":{"ha":765,"x_min":104,"x_max":661,"o":"m 617 972 l 382 772 l 303 772 l 508 972 l 617 972 m 661 0 l 557 0 l 557 94 q 452 15 515 47 q 318 -17 389 -17 q 104 197 104 -17 l 104 671 l 208 671 l 208 229 q 247 111 208 146 q 358 76 285 76 q 472 106 417 76 q 557 178 526 135 l 557 671 l 661 671 l 661 0 z "},"û":{"ha":765,"x_min":104,"x_max":661,"o":"m 567 772 l 496 772 l 381 919 l 269 772 l 199 772 l 331 972 l 431 972 l 567 772 m 661 0 l 557 0 l 557 94 q 452 15 515 47 q 318 -17 389 -17 q 104 197 104 -17 l 104 671 l 208 671 l 208 229 q 247 111 208 146 q 358 76 285 76 q 472 106 417 76 q 557 178 526 135 l 557 671 l 661 671 l 661 0 z "},"ü":{"ha":765,"x_min":104,"x_max":661,"o":"m 574 884 q 583 875 574 884 q 593 839 593 865 q 574 793 593 813 q 528 774 554 774 q 482 793 501 774 q 463 839 463 813 q 482 884 463 865 q 528 903 501 903 q 574 884 554 903 m 287 884 q 296 875 287 884 q 306 839 306 865 q 287 793 306 813 q 242 774 268 774 q 195 792 214 774 q 176 839 176 811 q 196 884 176 865 q 242 903 215 903 q 287 884 268 903 m 661 0 l 557 0 l 557 94 q 452 15 515 47 q 318 -17 389 -17 q 104 197 104 -17 l 104 671 l 208 671 l 208 229 q 247 111 208 146 q 358 76 285 76 q 472 106 417 76 q 557 178 526 135 l 557 671 l 661 671 l 661 0 z "},"ý":{"ha":681,"x_min":4,"x_max":676,"o":"m 67 -262 l 83 -168 q 140 -179 108 -179 q 200 -164 176 -179 q 240 -108 224 -149 l 285 -7 l 4 671 l 117 671 l 340 121 l 563 671 l 676 671 l 340 -136 q 143 -272 285 -269 q 67 -262 100 -272 m 575 972 l 340 772 l 261 772 l 467 972 l 575 972 z "},"þ":{"ha":794,"x_min":104,"x_max":733,"o":"m 435 -17 q 208 101 293 -17 l 208 -256 l 104 -256 l 104 926 l 208 926 l 208 571 q 306 656 246 624 q 435 688 365 688 q 651 592 568 688 q 733 336 733 497 q 651 79 733 175 q 435 -17 568 -17 m 408 76 q 565 149 507 76 q 624 336 624 222 q 565 522 624 450 q 408 594 507 594 q 292 563 349 594 q 208 488 236 532 l 208 185 q 292 108 236 139 q 408 76 349 76 z "},"ÿ":{"ha":681,"x_min":4,"x_max":676,"o":"m 67 -262 l 83 -168 q 140 -179 108 -179 q 200 -164 176 -179 q 240 -108 224 -149 l 285 -7 l 4 671 l 117 671 l 340 121 l 563 671 l 676 671 l 340 -136 q 143 -272 285 -269 q 67 -262 100 -272 m 529 884 q 539 875 529 884 q 549 839 549 865 q 529 793 549 813 q 483 774 510 774 q 438 793 457 774 q 418 839 418 813 q 438 884 418 865 q 483 903 457 903 q 529 884 510 903 m 242 884 q 252 875 242 884 q 261 839 261 865 q 242 793 261 813 q 197 774 224 774 q 151 792 169 774 q 132 839 132 811 q 151 884 132 865 q 197 903 171 903 q 242 884 224 903 z "},"Ā":{"ha":914,"x_min":13,"x_max":901,"o":"m 901 0 l 769 0 l 688 206 l 226 206 l 144 0 l 13 0 l 385 926 l 528 926 l 901 0 m 653 308 l 457 807 l 260 308 l 653 308 m 708 1026 l 204 1026 l 204 1093 l 708 1093 l 708 1026 z "},"ā":{"ha":732,"x_min":67,"x_max":628,"o":"m 628 0 l 524 0 l 524 76 q 301 -17 439 -17 q 138 43 208 -17 q 67 206 67 103 q 137 369 67 311 q 301 426 207 426 q 524 335 444 426 l 524 456 q 476 560 524 522 q 354 597 429 597 q 149 504 236 597 l 100 576 q 368 688 207 688 q 556 632 483 688 q 628 461 628 576 l 628 0 m 339 58 q 524 142 464 58 l 524 268 q 339 351 464 351 q 220 310 267 351 q 174 204 174 269 q 220 99 174 140 q 339 58 267 58 m 618 794 l 114 794 l 114 861 l 618 861 l 618 794 z "},"Ă":{"ha":914,"x_min":13,"x_max":901,"o":"m 901 0 l 769 0 l 688 206 l 226 206 l 144 0 l 13 0 l 385 926 l 528 926 l 901 0 m 653 308 l 457 807 l 260 308 l 653 308 m 700 1101 q 457 979 610 979 q 213 1101 306 979 l 264 1146 q 457 1046 336 1046 q 649 1146 579 1046 l 700 1101 z "},"ă":{"ha":732,"x_min":67,"x_max":628,"o":"m 628 0 l 524 0 l 524 76 q 301 -17 439 -17 q 138 43 208 -17 q 67 206 67 103 q 137 369 67 311 q 301 426 207 426 q 524 335 444 426 l 524 456 q 476 560 524 522 q 354 597 429 597 q 149 504 236 597 l 100 576 q 368 688 207 688 q 556 632 483 688 q 628 461 628 576 l 628 0 m 339 58 q 524 142 464 58 l 524 268 q 339 351 464 351 q 220 310 267 351 q 174 204 174 269 q 220 99 174 140 q 339 58 267 58 m 610 869 q 367 747 519 747 q 122 869 215 747 l 174 914 q 367 814 246 814 q 558 914 489 814 l 610 869 z "},"Ą":{"ha":914,"x_min":13,"x_max":981,"o":"m 929 -146 l 981 -175 q 857 -258 944 -258 q 769 -228 804 -258 q 733 -137 733 -197 q 807 0 733 -58 l 769 0 l 688 206 l 226 206 l 144 0 l 13 0 l 385 926 l 528 926 l 901 0 q 796 -135 796 -53 q 857 -204 796 -204 q 929 -146 910 -204 m 653 308 l 457 807 l 260 308 l 653 308 z "},"ą":{"ha":732,"x_min":67,"x_max":707,"o":"m 656 -146 l 707 -175 q 583 -258 671 -258 q 495 -228 531 -258 q 460 -137 460 -197 q 533 0 460 -58 l 524 0 l 524 76 q 301 -17 439 -17 q 138 43 208 -17 q 67 206 67 103 q 137 369 67 311 q 301 426 207 426 q 524 335 444 426 l 524 456 q 476 560 524 522 q 354 597 429 597 q 149 504 236 597 l 100 576 q 368 688 207 688 q 556 632 483 688 q 628 461 628 576 l 628 0 q 522 -135 522 -53 q 583 -204 522 -204 q 656 -146 636 -204 m 339 58 q 524 142 464 58 l 524 268 q 339 351 464 351 q 220 310 267 351 q 174 204 174 269 q 220 99 174 140 q 339 58 267 58 z "},"Ć":{"ha":939,"x_min":71,"x_max":900,"o":"m 782 1204 l 547 1004 l 468 1004 l 674 1204 l 782 1204 m 547 -17 q 208 117 344 -17 q 71 463 71 251 q 208 808 71 674 q 547 942 344 942 q 899 758 769 942 l 801 704 q 693 801 761 764 q 547 839 625 839 q 292 733 394 839 q 190 463 190 626 q 292 192 190 299 q 547 86 394 86 q 693 123 625 86 q 801 221 761 160 l 900 167 q 547 -17 765 -17 z "},"ć":{"ha":688,"x_min":65,"x_max":646,"o":"m 633 972 l 399 772 l 319 772 l 525 972 l 633 972 m 400 -17 q 158 84 251 -17 q 65 336 65 185 q 158 588 65 488 q 400 688 251 688 q 646 571 556 688 l 576 507 q 406 594 513 594 q 237 522 300 594 q 174 336 174 450 q 237 149 174 222 q 406 76 300 76 q 576 164 511 76 l 646 100 q 400 -17 556 -17 z "},"Ĉ":{"ha":939,"x_min":71,"x_max":900,"o":"m 731 1004 l 660 1004 l 544 1151 l 433 1004 l 363 1004 l 494 1204 l 594 1204 l 731 1004 m 547 -17 q 208 117 344 -17 q 71 463 71 251 q 208 808 71 674 q 547 942 344 942 q 899 758 769 942 l 801 704 q 693 801 761 764 q 547 839 625 839 q 292 733 394 839 q 190 463 190 626 q 292 192 190 299 q 547 86 394 86 q 693 123 625 86 q 801 221 761 160 l 900 167 q 547 -17 765 -17 z "},"ĉ":{"ha":688,"x_min":65,"x_max":646,"o":"m 585 772 l 514 772 l 399 919 l 288 772 l 217 772 l 349 972 l 449 972 l 585 772 m 400 -17 q 158 84 251 -17 q 65 336 65 185 q 158 588 65 488 q 400 688 251 688 q 646 571 556 688 l 576 507 q 406 594 513 594 q 237 522 300 594 q 174 336 174 450 q 237 149 174 222 q 406 76 300 76 q 576 164 511 76 l 646 100 q 400 -17 556 -17 z "},"Ċ":{"ha":939,"x_min":71,"x_max":900,"o":"m 547 -17 q 208 117 344 -17 q 71 463 71 251 q 208 808 71 674 q 547 942 344 942 q 899 758 769 942 l 801 704 q 693 801 761 764 q 547 839 625 839 q 292 733 394 839 q 190 463 190 626 q 292 192 190 299 q 547 86 394 86 q 693 123 625 86 q 801 221 761 160 l 900 167 q 547 -17 765 -17 m 595 1022 q 586 1012 595 1022 q 550 1003 576 1003 q 504 1022 524 1003 q 485 1068 485 1042 q 504 1114 485 1094 q 550 1133 524 1133 q 595 1115 576 1133 q 614 1068 614 1096 q 595 1022 614 1040 z "},"ċ":{"ha":688,"x_min":65,"x_max":646,"o":"m 400 -17 q 158 84 251 -17 q 65 336 65 185 q 158 588 65 488 q 400 688 251 688 q 646 571 556 688 l 576 507 q 406 594 513 594 q 237 522 300 594 q 174 336 174 450 q 237 149 174 222 q 406 76 300 76 q 576 164 511 76 l 646 100 q 400 -17 556 -17 m 448 790 q 439 780 448 790 q 403 771 429 771 q 357 790 376 771 q 338 836 338 810 q 357 882 338 863 q 403 901 376 901 q 448 883 429 901 q 467 836 467 864 q 448 790 467 808 z "},"Č":{"ha":939,"x_min":71,"x_max":900,"o":"m 599 1004 l 499 1004 l 363 1204 l 433 1204 l 549 1057 l 660 1204 l 731 1204 l 599 1004 m 547 -17 q 208 117 344 -17 q 71 463 71 251 q 208 808 71 674 q 547 942 344 942 q 899 758 769 942 l 801 704 q 693 801 761 764 q 547 839 625 839 q 292 733 394 839 q 190 463 190 626 q 292 192 190 299 q 547 86 394 86 q 693 123 625 86 q 801 221 761 160 l 900 167 q 547 -17 765 -17 z "},"č":{"ha":688,"x_min":65,"x_max":646,"o":"m 453 772 l 353 772 l 217 972 l 288 972 l 403 825 l 514 972 l 585 972 l 453 772 m 400 -17 q 158 84 251 -17 q 65 336 65 185 q 158 588 65 488 q 400 688 251 688 q 646 571 556 688 l 576 507 q 406 594 513 594 q 237 522 300 594 q 174 336 174 450 q 237 149 174 222 q 406 76 300 76 q 576 164 511 76 l 646 100 q 400 -17 556 -17 z "},"Ď":{"ha":972,"x_min":108,"x_max":900,"o":"m 540 1004 l 440 1004 l 304 1204 l 375 1204 l 490 1057 l 601 1204 l 672 1204 l 540 1004 m 425 0 l 108 0 l 108 926 l 425 926 q 769 794 638 926 q 900 463 900 663 q 769 131 900 261 q 425 0 638 0 m 425 103 q 685 206 589 103 q 781 463 781 308 q 686 721 781 618 q 425 824 592 824 l 224 824 l 224 103 l 425 103 z "},"ď":{"ha":894,"x_min":65,"x_max":900,"o":"m 900 851 q 872 747 900 797 q 801 665 844 697 l 756 701 q 810 756 788 722 q 836 821 833 790 q 821 818 833 818 q 779 835 796 818 q 763 879 763 853 q 781 926 763 907 q 826 944 800 944 q 878 919 857 944 q 900 851 900 894 m 694 0 l 590 0 l 590 100 q 364 -17 504 -17 q 148 78 231 -17 q 65 335 65 174 q 148 591 65 494 q 364 688 231 688 q 590 569 503 688 l 590 926 l 694 926 l 694 0 m 389 76 q 506 107 450 76 q 590 182 561 138 l 590 486 q 505 563 561 532 q 389 594 449 594 q 232 522 290 594 q 174 335 174 449 q 232 149 174 221 q 389 76 290 76 z "},"Đ":{"ha":1011,"x_min":14,"x_max":939,"o":"m 464 0 l 147 0 l 147 415 l 14 415 l 14 500 l 147 500 l 147 926 l 464 926 q 808 794 676 926 q 939 463 939 663 q 808 131 939 261 q 464 0 676 0 m 464 103 q 724 206 628 103 q 819 463 819 308 q 725 721 819 618 q 464 824 631 824 l 263 824 l 263 500 l 497 500 l 497 415 l 263 415 l 263 103 l 464 103 z "},"đ":{"ha":801,"x_min":65,"x_max":789,"o":"m 694 0 l 590 0 l 590 100 q 364 -17 504 -17 q 148 78 231 -17 q 65 335 65 174 q 148 591 65 494 q 364 688 231 688 q 590 569 503 688 l 590 743 l 372 743 l 372 810 l 590 810 l 590 926 l 694 926 l 694 810 l 789 810 l 789 743 l 694 743 l 694 0 m 389 76 q 506 107 450 76 q 590 182 561 138 l 590 486 q 505 563 561 532 q 389 594 449 594 q 232 522 290 594 q 174 335 174 449 q 232 149 174 221 q 389 76 290 76 z "},"Ē":{"ha":790,"x_min":108,"x_max":715,"o":"m 715 0 l 108 0 l 108 926 l 715 926 l 715 824 l 224 824 l 224 525 l 706 525 l 706 422 l 224 422 l 224 103 l 715 103 l 715 0 m 663 1026 l 158 1026 l 158 1093 l 663 1093 l 663 1026 z "},"ē":{"ha":782,"x_min":65,"x_max":718,"o":"m 407 -17 q 161 81 257 -17 q 65 336 65 179 q 160 585 65 483 q 396 688 254 688 q 631 585 544 688 q 718 328 718 483 l 718 301 l 175 301 q 247 136 182 203 q 417 69 313 69 q 624 154 542 69 l 674 86 q 407 -17 571 -17 m 615 378 q 557 533 614 464 q 394 601 500 601 q 237 533 294 601 q 175 378 179 465 l 615 378 m 647 794 l 143 794 l 143 861 l 647 861 l 647 794 z "},"Ĕ":{"ha":790,"x_min":108,"x_max":715,"o":"m 715 0 l 108 0 l 108 926 l 715 926 l 715 824 l 224 824 l 224 525 l 706 525 l 706 422 l 224 422 l 224 103 l 715 103 l 715 0 m 657 1101 q 414 979 567 979 q 169 1101 263 979 l 221 1146 q 414 1046 293 1046 q 606 1146 536 1046 l 657 1101 z "},"ĕ":{"ha":782,"x_min":65,"x_max":718,"o":"m 407 -17 q 161 81 257 -17 q 65 336 65 179 q 160 585 65 483 q 396 688 254 688 q 631 585 544 688 q 718 328 718 483 l 718 301 l 175 301 q 247 136 182 203 q 417 69 313 69 q 624 154 542 69 l 674 86 q 407 -17 571 -17 m 615 378 q 557 533 614 464 q 394 601 500 601 q 237 533 294 601 q 175 378 179 465 l 615 378 m 642 869 q 399 747 551 747 q 154 869 247 747 l 206 914 q 399 814 278 814 q 590 914 521 814 l 642 869 z "},"Ė":{"ha":790,"x_min":108,"x_max":715,"o":"m 715 0 l 108 0 l 108 926 l 715 926 l 715 824 l 224 824 l 224 525 l 706 525 l 706 422 l 224 422 l 224 103 l 715 103 l 715 0 m 462 1022 q 452 1012 462 1022 q 417 1003 443 1003 q 371 1022 390 1003 q 351 1068 351 1042 q 371 1114 351 1094 q 417 1133 390 1133 q 462 1115 443 1133 q 481 1068 481 1096 q 462 1022 481 1040 z "},"ė":{"ha":782,"x_min":65,"x_max":718,"o":"m 407 -17 q 161 81 257 -17 q 65 336 65 179 q 160 585 65 483 q 396 688 254 688 q 631 585 544 688 q 718 328 718 483 l 718 301 l 175 301 q 247 136 182 203 q 417 69 313 69 q 624 154 542 69 l 674 86 q 407 -17 571 -17 m 615 378 q 557 533 614 464 q 394 601 500 601 q 237 533 294 601 q 175 378 179 465 l 615 378 m 442 790 q 433 780 442 790 q 397 771 424 771 q 351 790 371 771 q 332 836 332 810 q 351 882 332 863 q 397 901 371 901 q 442 883 424 901 q 461 836 461 864 q 442 790 461 808 z "},"Ę":{"ha":790,"x_min":108,"x_max":794,"o":"m 715 0 q 610 -135 610 -53 q 671 -204 610 -204 q 743 -146 724 -204 l 794 -175 q 671 -258 758 -258 q 583 -228 618 -258 q 547 -137 547 -197 q 621 0 547 -58 l 108 0 l 108 926 l 715 926 l 715 824 l 224 824 l 224 525 l 706 525 l 706 422 l 224 422 l 224 103 l 715 103 l 715 0 z "},"ę":{"ha":782,"x_min":65,"x_max":718,"o":"m 407 -17 q 161 81 257 -17 q 65 336 65 179 q 160 585 65 483 q 396 688 254 688 q 631 585 544 688 q 718 328 718 483 l 718 301 l 175 301 q 247 136 182 203 q 417 69 313 69 q 624 154 542 69 l 674 86 q 526 0 610 22 q 422 -135 422 -53 q 483 -204 422 -204 q 556 -146 536 -204 l 607 -175 q 483 -258 571 -258 q 395 -228 431 -258 q 360 -137 360 -197 q 414 -17 360 -71 l 407 -17 m 615 378 q 557 533 614 464 q 394 601 500 601 q 237 533 294 601 q 175 378 179 465 l 615 378 z "},"Ě":{"ha":790,"x_min":108,"x_max":715,"o":"m 465 1004 l 365 1004 l 229 1204 l 300 1204 l 415 1057 l 526 1204 l 597 1204 l 465 1004 m 715 0 l 108 0 l 108 926 l 715 926 l 715 824 l 224 824 l 224 525 l 706 525 l 706 422 l 224 422 l 224 103 l 715 103 l 715 0 z "},"ě":{"ha":782,"x_min":65,"x_max":718,"o":"m 449 772 l 349 772 l 213 972 l 283 972 l 399 825 l 510 972 l 581 972 l 449 772 m 407 -17 q 161 81 257 -17 q 65 336 65 179 q 160 585 65 483 q 396 688 254 688 q 631 585 544 688 q 718 328 718 483 l 718 301 l 175 301 q 247 136 182 203 q 417 69 313 69 q 624 154 542 69 l 674 86 q 407 -17 571 -17 m 615 378 q 557 533 614 464 q 394 601 500 601 q 237 533 294 601 q 175 378 179 465 l 615 378 z "},"Ĝ":{"ha":990,"x_min":71,"x_max":911,"o":"m 738 1004 l 667 1004 l 551 1151 l 440 1004 l 369 1004 l 501 1204 l 601 1204 l 738 1004 m 547 -18 q 208 116 346 -18 q 71 463 71 250 q 208 808 71 675 q 547 942 346 942 q 907 768 767 942 l 815 711 q 699 804 771 769 q 547 839 628 839 q 292 733 394 839 q 190 463 190 626 q 292 192 190 299 q 547 85 394 85 q 690 115 624 85 q 796 185 756 144 l 796 374 l 478 374 l 478 476 l 911 476 l 911 142 q 547 -18 768 -18 z "},"ĝ":{"ha":797,"x_min":65,"x_max":693,"o":"m 588 772 l 517 772 l 401 919 l 290 772 l 219 772 l 351 972 l 451 972 l 588 772 m 374 -272 q 222 -251 285 -272 q 103 -172 160 -229 l 156 -94 q 374 -186 232 -186 q 528 -137 467 -186 q 589 15 589 -87 l 589 111 q 492 25 551 58 q 364 -8 432 -8 q 148 85 231 -8 q 65 339 65 179 q 148 593 65 499 q 364 688 231 688 q 589 569 501 688 l 589 671 l 693 671 l 693 19 q 603 -203 693 -135 q 374 -272 513 -272 m 389 83 q 505 115 449 83 q 589 193 561 147 l 589 486 q 506 563 561 532 q 389 594 450 594 q 231 524 289 594 q 174 339 174 453 q 232 155 174 226 q 389 83 290 83 z "},"Ğ":{"ha":990,"x_min":71,"x_max":911,"o":"m 547 -18 q 208 116 346 -18 q 71 463 71 250 q 208 808 71 675 q 547 942 346 942 q 907 768 767 942 l 815 711 q 699 804 771 769 q 547 839 628 839 q 292 733 394 839 q 190 463 190 626 q 292 192 190 299 q 547 85 394 85 q 690 115 624 85 q 796 185 756 144 l 796 374 l 478 374 l 478 476 l 911 476 l 911 142 q 547 -18 768 -18 m 794 1101 q 551 979 704 979 q 307 1101 400 979 l 358 1146 q 551 1046 431 1046 q 743 1146 674 1046 l 794 1101 z "},"ğ":{"ha":797,"x_min":65,"x_max":693,"o":"m 374 -272 q 222 -251 285 -272 q 103 -172 160 -229 l 156 -94 q 374 -186 232 -186 q 528 -137 467 -186 q 589 15 589 -87 l 589 111 q 492 25 551 58 q 364 -8 432 -8 q 148 85 231 -8 q 65 339 65 179 q 148 593 65 499 q 364 688 231 688 q 589 569 501 688 l 589 671 l 693 671 l 693 19 q 603 -203 693 -135 q 374 -272 513 -272 m 389 83 q 505 115 449 83 q 589 193 561 147 l 589 486 q 506 563 561 532 q 389 594 450 594 q 231 524 289 594 q 174 339 174 453 q 232 155 174 226 q 389 83 290 83 m 646 869 q 403 747 556 747 q 158 869 251 747 l 210 914 q 403 814 282 814 q 594 914 525 814 l 646 869 z "},"Ġ":{"ha":990,"x_min":71,"x_max":911,"o":"m 547 -18 q 208 116 346 -18 q 71 463 71 250 q 208 808 71 675 q 547 942 346 942 q 907 768 767 942 l 815 711 q 699 804 771 769 q 547 839 628 839 q 292 733 394 839 q 190 463 190 626 q 292 192 190 299 q 547 85 394 85 q 690 115 624 85 q 796 185 756 144 l 796 374 l 478 374 l 478 476 l 911 476 l 911 142 q 547 -18 768 -18 m 595 1022 q 586 1012 595 1022 q 550 1003 576 1003 q 504 1022 524 1003 q 485 1068 485 1042 q 504 1114 485 1094 q 550 1133 524 1133 q 595 1115 576 1133 q 614 1068 614 1096 q 595 1022 614 1040 z "},"ġ":{"ha":797,"x_min":65,"x_max":693,"o":"m 374 -272 q 222 -251 285 -272 q 103 -172 160 -229 l 156 -94 q 374 -186 232 -186 q 528 -137 467 -186 q 589 15 589 -87 l 589 111 q 492 25 551 58 q 364 -8 432 -8 q 148 85 231 -8 q 65 339 65 179 q 148 593 65 499 q 364 688 231 688 q 589 569 501 688 l 589 671 l 693 671 l 693 19 q 603 -203 693 -135 q 374 -272 513 -272 m 389 83 q 505 115 449 83 q 589 193 561 147 l 589 486 q 506 563 561 532 q 389 594 450 594 q 231 524 289 594 q 174 339 174 453 q 232 155 174 226 q 389 83 290 83 m 447 790 q 437 780 447 790 q 401 771 428 771 q 356 790 375 771 q 336 836 336 810 q 356 882 336 863 q 401 901 375 901 q 447 883 428 901 q 465 836 465 864 q 447 790 465 808 z "},"Ģ":{"ha":990,"x_min":71,"x_max":911,"o":"m 622 -192 q 594 -296 622 -246 q 524 -378 567 -346 l 478 -342 q 533 -287 510 -321 q 558 -222 556 -253 q 543 -225 556 -225 q 501 -208 518 -225 q 485 -164 485 -190 q 503 -117 485 -136 q 549 -99 522 -99 q 601 -124 579 -99 q 622 -192 622 -149 m 547 -18 q 208 116 346 -18 q 71 463 71 250 q 208 808 71 675 q 547 942 346 942 q 907 768 767 942 l 815 711 q 699 804 771 769 q 547 839 628 839 q 292 733 394 839 q 190 463 190 626 q 292 192 190 299 q 547 85 394 85 q 690 115 624 85 q 796 185 756 144 l 796 374 l 478 374 l 478 476 l 911 476 l 911 142 q 547 -18 768 -18 z "},"ģ":{"ha":797,"x_min":65,"x_max":693,"o":"m 331 849 q 358 962 331 908 q 426 1044 385 1015 l 472 1007 q 418 953 442 986 q 393 890 394 921 q 400 892 396 892 q 444 873 424 892 q 464 829 464 854 q 444 785 464 804 q 397 765 425 765 q 351 787 371 765 q 331 849 331 808 m 374 -272 q 222 -251 285 -272 q 103 -172 160 -229 l 156 -94 q 374 -186 232 -186 q 528 -137 467 -186 q 589 15 589 -87 l 589 111 q 492 25 551 58 q 364 -8 432 -8 q 148 85 231 -8 q 65 339 65 179 q 148 593 65 499 q 364 688 231 688 q 589 569 501 688 l 589 671 l 693 671 l 693 19 q 603 -203 693 -135 q 374 -272 513 -272 m 389 83 q 505 115 449 83 q 589 193 561 147 l 589 486 q 506 563 561 532 q 389 594 450 594 q 231 524 289 594 q 174 339 174 453 q 232 155 174 226 q 389 83 290 83 z "},"Ĥ":{"ha":989,"x_min":108,"x_max":881,"o":"m 675 1004 l 604 1004 l 489 1151 l 378 1004 l 307 1004 l 439 1204 l 539 1204 l 675 1004 m 881 0 l 765 0 l 765 425 l 224 425 l 224 0 l 108 0 l 108 926 l 224 926 l 224 528 l 765 528 l 765 926 l 881 926 l 881 0 z "},"ĥ":{"ha":767,"x_min":104,"x_max":663,"o":"m 569 1004 l 499 1004 l 383 1151 l 272 1004 l 201 1004 l 333 1204 l 433 1204 l 569 1004 m 663 0 l 558 0 l 558 442 q 519 560 558 525 q 407 594 481 594 q 295 564 350 594 q 208 490 240 533 l 208 0 l 104 0 l 104 926 l 208 926 l 208 574 q 313 653 247 619 q 449 688 378 688 q 663 474 663 688 l 663 0 z "},"Ħ":{"ha":1015,"x_min":14,"x_max":1001,"o":"m 894 0 l 779 0 l 779 425 l 238 425 l 238 0 l 122 0 l 122 692 l 14 692 l 14 758 l 122 758 l 122 926 l 238 926 l 238 758 l 779 758 l 779 926 l 894 926 l 894 758 l 1001 758 l 1001 692 l 894 692 l 894 0 m 238 528 l 779 528 l 779 692 l 238 692 l 238 528 z "},"ħ":{"ha":769,"x_min":13,"x_max":665,"o":"m 428 743 l 211 743 l 211 574 q 315 653 250 619 q 451 688 381 688 q 665 474 665 688 l 665 0 l 561 0 l 561 442 q 522 560 561 525 q 410 594 483 594 q 298 564 353 594 q 211 490 243 533 l 211 0 l 107 0 l 107 743 l 13 743 l 13 810 l 107 810 l 107 926 l 211 926 l 211 810 l 428 810 l 428 743 z "},"Ĩ":{"ha":332,"x_min":-51,"x_max":383,"o":"m 224 0 l 108 0 l 108 926 l 224 926 l 224 0 m 249 1001 q 188 1022 214 1001 q 150 1065 163 1042 q 119 1109 138 1089 q 78 1129 100 1129 q 30 1099 49 1129 q 11 1010 11 1069 l -51 1010 q -16 1144 -51 1093 q 83 1196 19 1196 q 142 1176 117 1196 q 181 1132 168 1156 q 213 1088 194 1108 q 254 1068 232 1068 q 302 1098 283 1068 q 321 1188 321 1128 l 383 1188 q 348 1053 383 1104 q 249 1001 313 1001 z "},"ĩ":{"ha":313,"x_min":-61,"x_max":374,"o":"m 208 0 l 104 0 l 104 671 l 208 671 l 208 0 m 239 769 q 178 790 204 769 q 140 833 153 810 q 109 877 128 857 q 68 897 90 897 q 20 867 39 897 q 1 778 1 838 l -61 778 q -26 913 -61 861 q 74 964 10 964 q 133 944 107 964 q 172 900 158 924 q 203 856 185 876 q 244 836 222 836 q 292 866 274 836 q 311 956 311 896 l 374 956 q 338 821 374 872 q 239 769 303 769 z "},"Ī":{"ha":332,"x_min":-85,"x_max":419,"o":"m 224 0 l 108 0 l 108 926 l 224 926 l 224 0 m 419 1026 l -85 1026 l -85 1093 l 419 1093 l 419 1026 z "},"ī":{"ha":313,"x_min":-96,"x_max":408,"o":"m 208 0 l 104 0 l 104 671 l 208 671 l 208 0 m 408 794 l -96 794 l -96 861 l 408 861 l 408 794 z "},"Ĭ":{"ha":332,"x_min":-76,"x_max":411,"o":"m 224 0 l 108 0 l 108 926 l 224 926 l 224 0 m 411 1101 q 168 979 321 979 q -76 1101 17 979 l -25 1146 q 168 1046 47 1046 q 360 1146 290 1046 l 411 1101 z "},"ĭ":{"ha":313,"x_min":-87,"x_max":400,"o":"m 208 0 l 104 0 l 104 671 l 208 671 l 208 0 m 400 869 q 157 747 310 747 q -87 869 6 747 l -36 914 q 157 814 36 814 q 349 914 279 814 l 400 869 z "},"Į":{"ha":332,"x_min":56,"x_max":303,"o":"m 251 -146 l 303 -175 q 179 -258 267 -258 q 91 -228 126 -258 q 56 -137 56 -197 q 129 0 56 -58 l 108 0 l 108 926 l 224 926 l 224 0 q 118 -135 118 -53 q 179 -204 118 -204 q 251 -146 232 -204 z "},"į":{"ha":313,"x_min":40,"x_max":288,"o":"m 236 -146 l 288 -175 q 164 -258 251 -258 q 76 -228 111 -258 q 40 -137 40 -197 q 114 0 40 -58 l 104 0 l 104 671 l 208 671 l 208 0 q 103 -135 103 -53 q 164 -204 103 -204 q 236 -146 217 -204 m 156 767 q 107 787 128 767 q 86 836 86 807 q 107 886 86 865 q 156 907 128 907 q 206 886 185 907 q 226 836 226 865 q 206 787 226 807 q 156 767 185 767 z "},"İ":{"ha":332,"x_min":101,"x_max":231,"o":"m 224 0 l 108 0 l 108 926 l 224 926 l 224 0 m 212 1022 q 202 1012 212 1022 q 167 1003 193 1003 q 121 1022 140 1003 q 101 1068 101 1042 q 121 1114 101 1094 q 167 1133 140 1133 q 212 1115 193 1133 q 231 1068 231 1096 q 212 1022 231 1040 z "},"ı":{"ha":313,"x_min":104,"x_max":208,"o":"m 208 0 l 104 0 l 104 671 l 208 671 l 208 0 z "},"Ĳ":{"ha":990,"x_min":108,"x_max":883,"o":"m 224 0 l 108 0 l 108 926 l 224 926 l 224 0 m 589 -17 q 347 90 439 -17 l 407 178 q 582 86 483 86 q 717 140 667 86 q 768 281 768 193 l 768 926 l 883 926 l 883 279 q 801 59 883 135 q 589 -17 719 -17 z "},"ĳ":{"ha":626,"x_min":86,"x_max":539,"o":"m 156 767 q 107 787 128 767 q 86 836 86 807 q 107 886 86 865 q 156 907 128 907 q 206 886 185 907 q 226 836 226 865 q 206 787 226 807 q 156 767 185 767 m 208 0 l 104 0 l 104 671 l 208 671 l 208 0 m 468 767 q 419 787 440 767 q 399 836 399 807 q 419 886 399 865 q 468 907 440 907 q 518 886 497 907 q 539 836 539 865 q 518 787 539 807 q 468 767 497 767 m 322 -272 q 175 -222 239 -272 l 213 -143 q 308 -186 256 -186 q 388 -156 358 -186 q 417 -65 417 -126 l 417 671 l 521 671 l 521 -65 q 469 -218 521 -164 q 322 -272 418 -272 z "},"Ĵ":{"ha":660,"x_min":15,"x_max":678,"o":"m 678 1004 l 607 1004 l 492 1151 l 381 1004 l 310 1004 l 442 1204 l 542 1204 l 678 1004 m 257 -17 q 15 90 107 -17 l 75 178 q 250 86 151 86 q 385 140 335 86 q 436 281 436 193 l 436 926 l 551 926 l 551 279 q 469 59 551 135 q 257 -17 388 -17 z "},"ĵ":{"ha":313,"x_min":-137,"x_max":343,"o":"m 343 772 l 272 772 l 157 919 l 46 772 l -25 772 l 107 972 l 207 972 l 343 772 m 10 -272 q -137 -222 -72 -272 l -100 -143 q -4 -186 -57 -186 q 75 -156 46 -186 q 104 -65 104 -126 l 104 671 l 208 671 l 208 -65 q 157 -218 208 -164 q 10 -272 106 -272 z "},"Ķ":{"ha":842,"x_min":108,"x_max":811,"o":"m 500 -192 q 472 -296 500 -246 q 401 -378 444 -346 l 356 -342 q 410 -287 388 -321 q 436 -222 433 -253 q 421 -225 433 -225 q 379 -208 396 -225 q 363 -164 363 -190 q 381 -117 363 -136 q 426 -99 400 -99 q 478 -124 457 -99 q 500 -192 500 -149 m 811 0 l 668 0 l 317 417 l 224 311 l 224 0 l 108 0 l 108 926 l 224 926 l 224 447 l 633 926 l 778 926 l 392 486 l 811 0 z "},"ķ":{"ha":714,"x_min":104,"x_max":694,"o":"m 436 -192 q 408 -296 436 -246 q 338 -378 381 -346 l 292 -342 q 347 -287 324 -321 q 372 -222 369 -253 q 357 -225 369 -225 q 315 -208 332 -225 q 299 -164 299 -190 q 317 -117 299 -136 q 363 -99 336 -99 q 415 -124 393 -99 q 436 -192 436 -149 m 694 0 l 561 0 l 319 301 l 208 192 l 208 0 l 104 0 l 104 926 l 208 926 l 208 314 l 561 671 l 693 671 l 396 367 l 694 0 z "},"ĸ":{"ha":714,"x_min":104,"x_max":694,"o":"m 694 0 l 561 0 l 319 301 l 208 192 l 208 0 l 104 0 l 104 671 l 208 671 l 208 314 l 561 671 l 693 671 l 396 367 l 694 0 z "},"Ĺ":{"ha":708,"x_min":108,"x_max":654,"o":"m 615 1204 l 381 1004 l 301 1004 l 507 1204 l 615 1204 m 654 0 l 108 0 l 108 926 l 224 926 l 224 103 l 654 103 l 654 0 z "},"ĺ":{"ha":313,"x_min":78,"x_max":392,"o":"m 392 1204 l 157 1004 l 78 1004 l 283 1204 l 392 1204 m 208 0 l 104 0 l 104 926 l 208 926 l 208 0 z "},"Ļ":{"ha":708,"x_min":108,"x_max":654,"o":"m 443 -192 q 415 -296 443 -246 q 344 -378 388 -346 l 299 -342 q 353 -287 331 -321 q 379 -222 376 -253 q 364 -225 376 -225 q 322 -208 339 -225 q 306 -164 306 -190 q 324 -117 306 -136 q 369 -99 343 -99 q 422 -124 400 -99 q 443 -192 443 -149 m 654 0 l 108 0 l 108 926 l 224 926 l 224 103 l 654 103 l 654 0 z "},"ļ":{"ha":313,"x_min":92,"x_max":236,"o":"m 236 -192 q 208 -296 236 -246 q 138 -378 181 -346 l 92 -342 q 147 -287 124 -321 q 172 -222 169 -253 q 157 -225 169 -225 q 115 -208 132 -225 q 99 -164 99 -190 q 117 -117 99 -136 q 163 -99 136 -99 q 215 -124 193 -99 q 236 -192 236 -149 m 208 0 l 104 0 l 104 926 l 208 926 l 208 0 z "},"Ľ":{"ha":708,"x_min":108,"x_max":654,"o":"m 492 851 q 464 747 492 797 q 393 665 436 697 l 347 701 q 402 756 379 722 q 428 821 425 790 q 413 818 425 818 q 371 835 388 818 q 354 879 354 853 q 373 926 354 907 q 418 944 392 944 q 470 919 449 944 q 492 851 492 894 m 654 0 l 108 0 l 108 926 l 224 926 l 224 103 l 654 103 l 654 0 z "},"ľ":{"ha":404,"x_min":104,"x_max":432,"o":"m 432 851 q 404 747 432 797 q 333 665 376 697 l 288 701 q 342 756 319 722 q 368 821 365 790 q 353 818 365 818 q 311 835 328 818 q 294 879 294 853 q 313 926 294 907 q 358 944 332 944 q 410 919 389 944 q 432 851 432 894 m 208 0 l 104 0 l 104 926 l 208 926 l 208 0 z "},"Ŀ":{"ha":708,"x_min":108,"x_max":654,"o":"m 654 0 l 108 0 l 108 926 l 224 926 l 224 103 l 654 103 l 654 0 m 589 474 q 566 421 589 443 q 513 399 543 399 q 459 421 482 399 q 436 474 436 443 q 458 528 436 506 q 513 550 481 550 q 567 528 544 550 q 589 474 589 506 z "},"ŀ":{"ha":426,"x_min":104,"x_max":446,"o":"m 208 0 l 104 0 l 104 926 l 208 926 l 208 0 m 423 392 q 434 381 423 392 q 446 339 446 369 q 423 286 446 308 q 369 264 400 264 q 316 286 339 264 q 293 339 293 308 q 316 392 293 369 q 369 415 339 415 q 423 392 400 415 z "},"Ł":{"ha":735,"x_min":14,"x_max":681,"o":"m 14 307 l 14 407 l 135 476 l 135 926 l 250 926 l 250 543 l 385 621 l 385 521 l 250 443 l 250 103 l 681 103 l 681 0 l 135 0 l 135 376 l 14 307 z "},"ł":{"ha":399,"x_min":14,"x_max":383,"o":"m 14 317 l 14 400 l 147 476 l 147 926 l 251 926 l 251 536 l 383 611 l 383 528 l 251 453 l 251 0 l 147 0 l 147 393 l 14 317 z "},"Ń":{"ha":983,"x_min":108,"x_max":875,"o":"m 738 1204 l 503 1004 l 424 1004 l 629 1204 l 738 1204 m 875 0 l 764 0 l 224 739 l 224 0 l 108 0 l 108 926 l 226 926 l 760 203 l 760 926 l 875 926 l 875 0 z "},"ń":{"ha":765,"x_min":104,"x_max":661,"o":"m 617 972 l 382 772 l 303 772 l 508 972 l 617 972 m 661 0 l 557 0 l 557 439 q 518 559 557 524 q 407 594 479 594 q 294 564 349 594 q 208 490 239 533 l 208 0 l 104 0 l 104 671 l 208 671 l 208 574 q 313 653 247 619 q 447 688 378 688 q 661 471 661 688 l 661 0 z "},"Ņ":{"ha":983,"x_min":108,"x_max":875,"o":"m 571 -192 q 543 -296 571 -246 q 472 -378 515 -346 l 426 -342 q 481 -287 458 -321 q 507 -222 504 -253 q 492 -225 504 -225 q 450 -208 467 -225 q 433 -164 433 -190 q 452 -117 433 -136 q 497 -99 471 -99 q 549 -124 528 -99 q 571 -192 571 -149 m 875 0 l 764 0 l 224 739 l 224 0 l 108 0 l 108 926 l 226 926 l 760 203 l 760 926 l 875 926 l 875 0 z "},"ņ":{"ha":765,"x_min":104,"x_max":661,"o":"m 458 -192 q 431 -296 458 -246 q 360 -378 403 -346 l 314 -342 q 369 -287 346 -321 q 394 -222 392 -253 q 379 -225 392 -225 q 338 -208 354 -225 q 321 -164 321 -190 q 340 -117 321 -136 q 385 -99 358 -99 q 437 -124 415 -99 q 458 -192 458 -149 m 661 0 l 557 0 l 557 439 q 518 559 557 524 q 407 594 479 594 q 294 564 349 594 q 208 490 239 533 l 208 0 l 104 0 l 104 671 l 208 671 l 208 574 q 313 653 247 619 q 447 688 378 688 q 661 471 661 688 l 661 0 z "},"Ň":{"ha":983,"x_min":108,"x_max":875,"o":"m 542 1004 l 442 1004 l 306 1204 l 376 1204 l 492 1057 l 603 1204 l 674 1204 l 542 1004 m 875 0 l 764 0 l 224 739 l 224 0 l 108 0 l 108 926 l 226 926 l 760 203 l 760 926 l 875 926 l 875 0 z "},"ň":{"ha":765,"x_min":104,"x_max":661,"o":"m 436 772 l 336 772 l 200 972 l 271 972 l 386 825 l 497 972 l 568 972 l 436 772 m 661 0 l 557 0 l 557 439 q 518 559 557 524 q 407 594 479 594 q 294 564 349 594 q 208 490 239 533 l 208 0 l 104 0 l 104 671 l 208 671 l 208 574 q 313 653 247 619 q 447 688 378 688 q 661 471 661 688 l 661 0 z "},"ŉ":{"ha":765,"x_min":79,"x_max":661,"o":"m 224 939 q 196 835 224 885 q 125 753 168 785 l 79 789 q 134 844 111 810 q 160 908 157 878 q 144 906 157 906 q 103 923 119 906 q 86 967 86 940 q 105 1013 86 994 q 150 1032 124 1032 q 202 1007 181 1032 q 224 939 224 982 m 661 0 l 557 0 l 557 439 q 518 559 557 524 q 407 594 479 594 q 294 564 349 594 q 208 490 239 533 l 208 0 l 104 0 l 104 671 l 208 671 l 208 574 q 313 653 247 619 q 447 688 378 688 q 661 471 661 688 l 661 0 z "},"Ŋ":{"ha":983,"x_min":108,"x_max":875,"o":"m 581 -272 q 339 -165 431 -272 l 400 -78 q 574 -169 474 -169 q 704 -122 654 -169 q 758 6 754 -74 l 224 739 l 224 0 l 108 0 l 108 926 l 226 926 l 760 203 l 760 926 l 875 926 l 875 21 q 793 -198 875 -124 q 581 -272 711 -272 z "},"ŋ":{"ha":765,"x_min":104,"x_max":661,"o":"m 661 471 l 661 -65 q 610 -219 661 -165 q 463 -272 558 -272 q 317 -222 381 -272 l 353 -137 q 449 -179 394 -179 q 528 -151 499 -179 q 557 -65 557 -122 l 557 439 q 518 559 557 524 q 407 594 479 594 q 294 564 349 594 q 208 490 239 533 l 208 0 l 104 0 l 104 671 l 208 671 l 208 574 q 313 653 247 619 q 447 688 378 688 q 661 471 661 688 z "},"Ō":{"ha":1063,"x_min":71,"x_max":990,"o":"m 782 1026 l 278 1026 l 278 1093 l 782 1093 l 782 1026 m 531 -17 q 199 119 326 -17 q 71 463 71 256 q 199 806 71 669 q 531 942 326 942 q 862 806 733 942 q 990 463 990 669 q 862 119 990 256 q 531 -17 733 -17 m 531 86 q 777 192 683 86 q 871 463 871 299 q 777 733 871 628 q 531 839 683 839 q 283 733 376 839 q 190 463 190 628 q 283 192 190 299 q 531 86 376 86 z "},"ō":{"ha":794,"x_min":65,"x_max":729,"o":"m 649 794 l 144 794 l 144 861 l 649 861 l 649 794 m 638 85 q 593 34 638 85 q 397 -17 547 -17 q 156 85 247 -17 q 65 336 65 186 q 156 587 65 486 q 397 688 247 688 q 638 587 547 688 q 729 336 729 486 q 638 85 729 186 m 234 152 q 264 114 234 152 q 397 76 294 76 q 560 152 500 76 q 619 336 619 228 q 560 519 619 444 q 397 594 500 594 q 234 519 294 594 q 174 336 174 443 q 234 152 174 228 z "},"Ŏ":{"ha":1063,"x_min":71,"x_max":990,"o":"m 531 -17 q 199 119 326 -17 q 71 463 71 256 q 199 806 71 669 q 531 942 326 942 q 862 806 733 942 q 990 463 990 669 q 862 119 990 256 q 531 -17 733 -17 m 531 86 q 777 192 683 86 q 871 463 871 299 q 777 733 871 628 q 531 839 683 839 q 283 733 376 839 q 190 463 190 628 q 283 192 190 299 q 531 86 376 86 m 774 1101 q 531 979 683 979 q 286 1101 379 979 l 338 1146 q 531 1046 410 1046 q 722 1146 653 1046 l 774 1101 z "},"ŏ":{"ha":794,"x_min":65,"x_max":729,"o":"m 638 85 q 593 34 638 85 q 397 -17 547 -17 q 156 85 247 -17 q 65 336 65 186 q 156 587 65 486 q 397 688 247 688 q 638 587 547 688 q 729 336 729 486 q 638 85 729 186 m 234 152 q 264 114 234 152 q 397 76 294 76 q 560 152 500 76 q 619 336 619 228 q 560 519 619 444 q 397 594 500 594 q 234 519 294 594 q 174 336 174 443 q 234 152 174 228 m 642 869 q 399 747 551 747 q 154 869 247 747 l 206 914 q 399 814 278 814 q 590 914 521 814 l 642 869 z "},"Ő":{"ha":1063,"x_min":71,"x_max":990,"o":"m 604 1204 l 444 1004 l 378 1004 l 508 1204 l 604 1204 m 801 1204 l 642 1004 l 575 1004 l 706 1204 l 801 1204 m 531 -17 q 199 119 326 -17 q 71 463 71 256 q 199 806 71 669 q 531 942 326 942 q 862 806 733 942 q 990 463 990 669 q 862 119 990 256 q 531 -17 733 -17 m 531 86 q 777 192 683 86 q 871 463 871 299 q 777 733 871 628 q 531 839 683 839 q 283 733 376 839 q 190 463 190 628 q 283 192 190 299 q 531 86 376 86 z "},"ő":{"ha":794,"x_min":65,"x_max":729,"o":"m 471 972 l 311 772 l 244 772 l 375 972 l 471 972 m 668 972 l 508 772 l 442 772 l 572 972 l 668 972 m 638 85 q 593 34 638 85 q 397 -17 547 -17 q 156 85 247 -17 q 65 336 65 186 q 156 587 65 486 q 397 688 247 688 q 638 587 547 688 q 729 336 729 486 q 638 85 729 186 m 234 152 q 264 114 234 152 q 397 76 294 76 q 560 152 500 76 q 619 336 619 228 q 560 519 619 444 q 397 594 500 594 q 234 519 294 594 q 174 336 174 443 q 234 152 174 228 z "},"Œ":{"ha":1535,"x_min":71,"x_max":1460,"o":"m 1460 0 l 851 0 l 851 167 q 712 31 801 79 q 521 -17 622 -17 q 196 119 321 -17 q 71 463 71 256 q 196 805 71 669 q 521 940 321 940 q 712 893 622 940 q 851 758 801 846 l 851 926 l 1460 926 l 1460 824 l 967 824 l 967 525 l 1450 525 l 1450 422 l 967 422 l 967 103 l 1460 103 l 1460 0 m 851 310 l 851 615 q 727 781 811 724 q 533 838 643 838 q 284 733 378 838 q 190 463 190 628 q 284 192 190 297 q 533 86 378 86 q 727 144 643 86 q 851 310 811 201 z "},"œ":{"ha":1336,"x_min":65,"x_max":1272,"o":"m 1272 301 l 731 301 q 802 136 738 203 q 971 69 867 69 q 1179 154 1094 69 l 1229 86 q 963 -17 1124 -17 q 778 41 847 -17 q 674 175 708 99 q 397 -17 588 -17 q 156 85 247 -17 q 65 336 65 186 q 156 587 65 486 q 397 688 247 688 q 506 668 456 688 q 588 617 556 649 q 641 557 621 586 q 675 496 661 528 q 774 628 706 568 q 950 688 843 688 q 1185 585 1099 688 q 1272 328 1272 483 l 1272 301 m 729 378 l 1171 378 q 1111 533 1168 464 q 949 601 1054 601 q 791 533 849 601 q 729 378 733 465 m 619 336 q 559 520 619 446 q 397 594 499 594 q 235 520 296 594 q 174 336 174 446 q 235 151 174 226 q 397 75 296 75 q 559 150 499 75 q 619 336 619 225 z "},"Ŕ":{"ha":844,"x_min":108,"x_max":781,"o":"m 667 1204 l 432 1004 l 353 1004 l 558 1204 l 667 1204 m 781 0 l 644 0 l 408 368 l 224 368 l 224 0 l 108 0 l 108 926 l 481 926 q 690 850 610 926 q 771 647 771 774 q 701 457 771 528 q 531 378 632 386 l 781 0 m 467 469 q 600 519 549 469 q 651 647 651 569 q 600 774 651 725 q 467 824 549 824 l 224 824 l 224 469 l 467 469 z "},"ŕ":{"ha":458,"x_min":104,"x_max":503,"o":"m 503 972 l 268 772 l 189 772 l 394 972 l 503 972 m 208 0 l 104 0 l 104 671 l 208 671 l 208 563 q 432 685 301 685 l 432 578 q 390 582 414 582 q 288 549 343 582 q 208 475 232 515 l 208 0 z "},"Ŗ":{"ha":844,"x_min":108,"x_max":781,"o":"m 503 -192 q 475 -296 503 -246 q 404 -378 447 -346 l 358 -342 q 413 -287 390 -321 q 439 -222 436 -253 q 424 -225 436 -225 q 382 -208 399 -225 q 365 -164 365 -190 q 384 -117 365 -136 q 429 -99 403 -99 q 481 -124 460 -99 q 503 -192 503 -149 m 781 0 l 644 0 l 408 368 l 224 368 l 224 0 l 108 0 l 108 926 l 481 926 q 690 850 610 926 q 771 647 771 774 q 701 457 771 528 q 531 378 632 386 l 781 0 m 467 469 q 600 519 549 469 q 651 647 651 569 q 600 774 651 725 q 467 824 549 824 l 224 824 l 224 469 l 467 469 z "},"ŗ":{"ha":458,"x_min":104,"x_max":432,"o":"m 307 -192 q 279 -296 307 -246 q 208 -378 251 -346 l 163 -342 q 217 -287 194 -321 q 243 -222 240 -253 q 228 -225 240 -225 q 186 -208 203 -225 q 169 -164 169 -190 q 188 -117 169 -136 q 233 -99 207 -99 q 285 -124 264 -99 q 307 -192 307 -149 m 208 0 l 104 0 l 104 671 l 208 671 l 208 563 q 432 685 301 685 l 432 578 q 390 582 414 582 q 288 549 343 582 q 208 475 232 515 l 208 0 z "},"Ř":{"ha":844,"x_min":108,"x_max":781,"o":"m 476 1004 l 376 1004 l 240 1204 l 311 1204 l 426 1057 l 538 1204 l 608 1204 l 476 1004 m 781 0 l 644 0 l 408 368 l 224 368 l 224 0 l 108 0 l 108 926 l 481 926 q 690 850 610 926 q 771 647 771 774 q 701 457 771 528 q 531 378 632 386 l 781 0 m 467 469 q 600 519 549 469 q 651 647 651 569 q 600 774 651 725 q 467 824 549 824 l 224 824 l 224 469 l 467 469 z "},"ř":{"ha":458,"x_min":82,"x_max":450,"o":"m 318 772 l 218 772 l 82 972 l 153 972 l 268 825 l 379 972 l 450 972 l 318 772 m 208 0 l 104 0 l 104 671 l 208 671 l 208 563 q 432 685 301 685 l 432 578 q 390 582 414 582 q 288 549 343 582 q 208 475 232 515 l 208 0 z "},"Ś":{"ha":814,"x_min":53,"x_max":750,"o":"m 639 1204 l 404 1004 l 325 1004 l 531 1204 l 639 1204 m 408 -17 q 53 131 183 -17 l 121 218 q 413 86 239 86 q 578 134 525 86 q 631 246 631 182 q 600 328 631 294 q 522 380 569 361 q 415 414 474 399 q 298 448 357 429 q 191 493 239 467 q 113 568 143 519 q 82 683 82 617 q 172 869 82 797 q 400 940 263 940 q 729 811 607 940 l 660 726 q 392 838 558 838 q 255 797 308 838 q 201 690 201 756 q 242 610 201 642 q 344 563 283 578 q 476 524 404 547 q 608 476 547 501 q 709 393 668 450 q 750 256 750 336 q 666 63 750 142 q 408 -17 582 -17 z "},"ś":{"ha":646,"x_min":46,"x_max":581,"o":"m 551 972 l 317 772 l 238 772 l 443 972 l 551 972 m 317 -17 q 46 89 146 -17 l 100 164 q 195 96 135 124 q 321 68 256 68 q 438 100 396 68 q 479 183 479 132 q 436 253 479 228 q 333 292 393 279 q 211 323 272 306 q 107 383 150 340 q 64 494 64 425 q 131 632 64 576 q 314 688 199 688 q 563 590 465 688 l 514 518 q 314 603 443 603 q 206 573 246 603 q 165 497 165 543 q 208 434 165 457 q 313 398 251 411 q 434 367 374 385 q 538 303 494 349 q 581 186 581 258 q 511 40 581 97 q 317 -17 442 -17 z "},"Ŝ":{"ha":814,"x_min":53,"x_max":750,"o":"m 581 1004 l 510 1004 l 394 1151 l 283 1004 l 213 1004 l 344 1204 l 444 1204 l 581 1004 m 408 -17 q 53 131 183 -17 l 121 218 q 413 86 239 86 q 578 134 525 86 q 631 246 631 182 q 600 328 631 294 q 522 380 569 361 q 415 414 474 399 q 298 448 357 429 q 191 493 239 467 q 113 568 143 519 q 82 683 82 617 q 172 869 82 797 q 400 940 263 940 q 729 811 607 940 l 660 726 q 392 838 558 838 q 255 797 308 838 q 201 690 201 756 q 242 610 201 642 q 344 563 283 578 q 476 524 404 547 q 608 476 547 501 q 709 393 668 450 q 750 256 750 336 q 666 63 750 142 q 408 -17 582 -17 z "},"ŝ":{"ha":646,"x_min":46,"x_max":581,"o":"m 501 772 l 431 772 l 315 919 l 204 772 l 133 772 l 265 972 l 365 972 l 501 772 m 317 -17 q 46 89 146 -17 l 100 164 q 195 96 135 124 q 321 68 256 68 q 438 100 396 68 q 479 183 479 132 q 436 253 479 228 q 333 292 393 279 q 211 323 272 306 q 107 383 150 340 q 64 494 64 425 q 131 632 64 576 q 314 688 199 688 q 563 590 465 688 l 514 518 q 314 603 443 603 q 206 573 246 603 q 165 497 165 543 q 208 434 165 457 q 313 398 251 411 q 434 367 374 385 q 538 303 494 349 q 581 186 581 258 q 511 40 581 97 q 317 -17 442 -17 z "},"Ş":{"ha":814,"x_min":53,"x_max":750,"o":"m 400 -265 q 260 -224 311 -265 l 286 -171 q 397 -211 335 -211 q 457 -195 432 -211 q 482 -153 482 -179 q 431 -104 482 -104 q 378 -128 399 -104 l 332 -101 l 364 -15 q 53 131 169 0 l 121 218 q 413 86 239 86 q 578 134 525 86 q 631 246 631 182 q 600 328 631 294 q 522 380 569 361 q 415 414 474 399 q 298 448 357 429 q 191 493 239 467 q 113 568 143 519 q 82 683 82 617 q 172 869 82 797 q 400 940 263 940 q 729 811 607 940 l 660 726 q 392 838 558 838 q 255 797 308 838 q 201 690 201 756 q 242 610 201 642 q 344 563 283 578 q 476 524 404 547 q 608 476 547 501 q 709 393 668 450 q 750 256 750 336 q 670 66 750 144 q 425 -17 590 -12 l 401 -76 q 453 -61 424 -61 q 519 -87 493 -61 q 544 -154 544 -112 q 503 -235 544 -204 q 400 -265 461 -265 z "},"ş":{"ha":646,"x_min":46,"x_max":581,"o":"m 315 -265 q 175 -224 228 -265 l 201 -171 q 313 -211 250 -211 q 372 -195 347 -211 q 397 -153 397 -179 q 346 -104 397 -104 q 293 -128 314 -104 l 247 -101 l 279 -15 q 46 89 133 -4 l 100 164 q 195 96 135 124 q 321 68 256 68 q 438 100 396 68 q 479 183 479 132 q 436 253 479 228 q 333 292 393 279 q 211 323 272 306 q 107 383 150 340 q 64 494 64 425 q 131 632 64 576 q 314 688 199 688 q 563 590 465 688 l 514 518 q 314 603 443 603 q 206 573 246 603 q 165 497 165 543 q 208 434 165 457 q 313 398 251 411 q 434 367 374 385 q 538 303 494 349 q 581 186 581 258 q 518 46 581 101 q 340 -15 456 -10 l 317 -76 q 368 -61 339 -61 q 434 -87 408 -61 q 460 -154 460 -112 q 418 -235 460 -204 q 315 -265 376 -265 z "},"Š":{"ha":814,"x_min":53,"x_max":750,"o":"m 449 1004 l 349 1004 l 213 1204 l 283 1204 l 399 1057 l 510 1204 l 581 1204 l 449 1004 m 408 -17 q 53 131 183 -17 l 121 218 q 413 86 239 86 q 578 134 525 86 q 631 246 631 182 q 600 328 631 294 q 522 380 569 361 q 415 414 474 399 q 298 448 357 429 q 191 493 239 467 q 113 568 143 519 q 82 683 82 617 q 172 869 82 797 q 400 940 263 940 q 729 811 607 940 l 660 726 q 392 838 558 838 q 255 797 308 838 q 201 690 201 756 q 242 610 201 642 q 344 563 283 578 q 476 524 404 547 q 608 476 547 501 q 709 393 668 450 q 750 256 750 336 q 666 63 750 142 q 408 -17 582 -17 z "},"š":{"ha":646,"x_min":46,"x_max":581,"o":"m 369 772 l 269 772 l 133 972 l 204 972 l 319 825 l 431 972 l 501 972 l 369 772 m 317 -17 q 46 89 146 -17 l 100 164 q 195 96 135 124 q 321 68 256 68 q 438 100 396 68 q 479 183 479 132 q 436 253 479 228 q 333 292 393 279 q 211 323 272 306 q 107 383 150 340 q 64 494 64 425 q 131 632 64 576 q 314 688 199 688 q 563 590 465 688 l 514 518 q 314 603 443 603 q 206 573 246 603 q 165 497 165 543 q 208 434 165 457 q 313 398 251 411 q 434 367 374 385 q 538 303 494 349 q 581 186 581 258 q 511 40 581 97 q 317 -17 442 -17 z "},"Ţ":{"ha":792,"x_min":44,"x_max":747,"o":"m 474 -192 q 446 -296 474 -246 q 375 -378 418 -346 l 329 -342 q 384 -287 361 -321 q 410 -222 407 -253 q 394 -225 407 -225 q 353 -208 369 -225 q 336 -164 336 -190 q 355 -117 336 -136 q 400 -99 374 -99 q 452 -124 431 -99 q 474 -192 474 -149 m 453 0 l 338 0 l 338 824 l 44 824 l 44 926 l 747 926 l 747 824 l 453 824 l 453 0 z "},"ţ":{"ha":408,"x_min":14,"x_max":399,"o":"m 282 -192 q 254 -296 282 -246 q 183 -378 226 -346 l 138 -342 q 192 -287 169 -321 q 218 -222 215 -253 q 203 -225 215 -225 q 161 -208 178 -225 q 144 -164 144 -190 q 163 -117 144 -136 q 208 -99 182 -99 q 260 -124 239 -99 q 282 -192 282 -149 m 274 -17 q 163 24 200 -17 q 125 140 125 64 l 125 579 l 14 579 l 14 671 l 125 671 l 125 854 l 229 854 l 229 671 l 365 671 l 365 579 l 229 579 l 229 163 q 247 100 229 124 q 297 76 264 76 q 368 104 343 76 l 399 26 q 274 -17 353 -17 z "},"Ť":{"ha":792,"x_min":44,"x_max":747,"o":"m 447 1004 l 347 1004 l 211 1204 l 282 1204 l 397 1057 l 508 1204 l 579 1204 l 447 1004 m 453 0 l 338 0 l 338 824 l 44 824 l 44 926 l 747 926 l 747 824 l 453 824 l 453 0 z "},"ť":{"ha":435,"x_min":14,"x_max":451,"o":"m 451 939 q 424 835 451 885 q 353 753 396 785 l 307 789 q 362 844 339 810 q 388 908 385 878 q 372 906 385 906 q 331 923 347 906 q 314 967 314 940 q 333 1013 314 994 q 378 1032 351 1032 q 430 1007 408 1032 q 451 939 451 982 m 274 -17 q 163 24 200 -17 q 125 140 125 64 l 125 579 l 14 579 l 14 671 l 125 671 l 125 854 l 229 854 l 229 671 l 365 671 l 365 579 l 229 579 l 229 163 q 247 100 229 124 q 297 76 264 76 q 368 104 343 76 l 399 26 q 274 -17 353 -17 z "},"Ŧ":{"ha":792,"x_min":44,"x_max":747,"o":"m 453 0 l 338 0 l 338 408 l 129 408 l 129 475 l 338 475 l 338 824 l 44 824 l 44 926 l 747 926 l 747 824 l 453 824 l 453 475 l 664 475 l 664 408 l 453 408 l 453 0 z "},"ŧ":{"ha":408,"x_min":14,"x_max":399,"o":"m 274 -17 q 163 24 200 -17 q 125 140 125 64 l 125 314 l 14 314 l 14 381 l 125 381 l 125 579 l 14 579 l 14 671 l 125 671 l 125 854 l 229 854 l 229 671 l 365 671 l 365 579 l 229 579 l 229 381 l 326 381 l 326 314 l 229 314 l 229 163 q 247 100 229 124 q 297 76 264 76 q 368 104 343 76 l 399 26 q 274 -17 353 -17 z "},"Ũ":{"ha":972,"x_min":108,"x_max":864,"o":"m 767 84 q 719 34 767 84 q 486 -17 671 -17 q 205 84 301 -17 q 108 360 108 185 l 108 926 l 224 926 l 224 363 q 292 160 224 233 q 486 86 360 86 q 681 160 613 86 q 749 363 749 233 l 749 926 l 864 926 l 864 361 q 767 84 864 185 m 572 1001 q 512 1022 538 1001 q 474 1065 486 1042 q 442 1109 461 1089 q 401 1129 424 1129 q 353 1099 372 1129 q 335 1010 335 1069 l 272 1010 q 308 1144 272 1093 q 407 1196 343 1196 q 466 1176 440 1196 q 505 1132 492 1156 q 537 1088 518 1108 q 578 1068 556 1068 q 626 1098 607 1068 q 644 1188 644 1128 l 707 1188 q 672 1053 707 1104 q 572 1001 636 1001 z "},"ũ":{"ha":765,"x_min":104,"x_max":661,"o":"m 661 0 l 557 0 l 557 94 q 452 15 515 47 q 318 -17 389 -17 q 104 197 104 -17 l 104 671 l 208 671 l 208 229 q 247 111 208 146 q 358 76 285 76 q 472 106 417 76 q 557 178 526 135 l 557 671 l 661 671 l 661 0 m 465 769 q 405 790 431 769 q 367 833 379 810 q 335 877 354 857 q 294 897 317 897 q 247 867 265 897 q 228 778 228 838 l 165 778 q 201 913 165 861 q 300 964 236 964 q 359 944 333 964 q 398 900 385 924 q 430 856 411 876 q 471 836 449 836 q 519 866 500 836 q 538 956 538 896 l 600 956 q 565 821 600 872 q 465 769 529 769 z "},"Ū":{"ha":972,"x_min":108,"x_max":864,"o":"m 767 84 q 719 34 767 84 q 486 -17 671 -17 q 205 84 301 -17 q 108 360 108 185 l 108 926 l 224 926 l 224 363 q 292 160 224 233 q 486 86 360 86 q 681 160 613 86 q 749 363 749 233 l 749 926 l 864 926 l 864 361 q 767 84 864 185 m 739 1026 l 235 1026 l 235 1093 l 739 1093 l 739 1026 z "},"ū":{"ha":765,"x_min":104,"x_max":661,"o":"m 661 0 l 557 0 l 557 94 q 452 15 515 47 q 318 -17 389 -17 q 104 197 104 -17 l 104 671 l 208 671 l 208 229 q 247 111 208 146 q 358 76 285 76 q 472 106 417 76 q 557 178 526 135 l 557 671 l 661 671 l 661 0 m 633 794 l 129 794 l 129 861 l 633 861 l 633 794 z "},"Ŭ":{"ha":972,"x_min":108,"x_max":864,"o":"m 767 84 q 719 34 767 84 q 486 -17 671 -17 q 205 84 301 -17 q 108 360 108 185 l 108 926 l 224 926 l 224 363 q 292 160 224 233 q 486 86 360 86 q 681 160 613 86 q 749 363 749 233 l 749 926 l 864 926 l 864 361 q 767 84 864 185 m 733 1101 q 490 979 643 979 q 246 1101 339 979 l 297 1146 q 490 1046 369 1046 q 682 1146 613 1046 l 733 1101 z "},"ŭ":{"ha":765,"x_min":104,"x_max":661,"o":"m 661 0 l 557 0 l 557 94 q 452 15 515 47 q 318 -17 389 -17 q 104 197 104 -17 l 104 671 l 208 671 l 208 229 q 247 111 208 146 q 358 76 285 76 q 472 106 417 76 q 557 178 526 135 l 557 671 l 661 671 l 661 0 m 628 869 q 385 747 538 747 q 140 869 233 747 l 192 914 q 385 814 264 814 q 576 914 507 814 l 628 869 z "},"Ů":{"ha":972,"x_min":108,"x_max":864,"o":"m 584 1026 q 564 1006 584 1026 q 488 986 544 986 q 391 1026 431 986 q 351 1122 351 1067 q 392 1219 351 1179 q 488 1260 432 1260 q 583 1219 543 1260 q 624 1122 624 1179 q 584 1026 624 1067 m 431 1065 q 442 1052 431 1065 q 488 1040 454 1040 q 544 1065 521 1040 q 568 1122 568 1089 q 545 1181 568 1157 q 488 1204 522 1204 q 431 1181 454 1204 q 407 1122 407 1157 q 431 1065 407 1089 m 767 84 q 719 34 767 84 q 486 -17 671 -17 q 205 84 301 -17 q 108 360 108 185 l 108 926 l 224 926 l 224 363 q 292 160 224 233 q 486 86 360 86 q 681 160 613 86 q 749 363 749 233 l 749 926 l 864 926 l 864 361 q 767 84 864 185 z "},"ů":{"ha":765,"x_min":104,"x_max":661,"o":"m 479 794 q 459 774 479 794 q 383 754 439 754 q 288 794 328 754 q 247 890 247 833 q 288 988 247 947 q 383 1028 328 1028 q 479 988 439 1028 q 519 890 519 947 q 479 794 519 833 m 326 833 q 338 820 326 833 q 383 808 350 808 q 440 833 417 808 q 464 890 464 857 q 441 949 464 925 q 383 972 418 972 q 326 949 350 972 q 303 890 303 925 q 326 833 303 857 m 661 0 l 557 0 l 557 94 q 452 15 515 47 q 318 -17 389 -17 q 104 197 104 -17 l 104 671 l 208 671 l 208 229 q 247 111 208 146 q 358 76 285 76 q 472 106 417 76 q 557 178 526 135 l 557 671 l 661 671 l 661 0 z "},"Ű":{"ha":972,"x_min":108,"x_max":864,"o":"m 767 84 q 719 34 767 84 q 486 -17 671 -17 q 205 84 301 -17 q 108 360 108 185 l 108 926 l 224 926 l 224 363 q 292 160 224 233 q 486 86 360 86 q 681 160 613 86 q 749 363 749 233 l 749 926 l 864 926 l 864 361 q 767 84 864 185 m 561 1204 l 401 1004 l 335 1004 l 465 1204 l 561 1204 m 758 1204 l 599 1004 l 532 1004 l 663 1204 l 758 1204 z "},"ű":{"ha":765,"x_min":104,"x_max":661,"o":"m 661 0 l 557 0 l 557 94 q 452 15 515 47 q 318 -17 389 -17 q 104 197 104 -17 l 104 671 l 208 671 l 208 229 q 247 111 208 146 q 358 76 285 76 q 472 106 417 76 q 557 178 526 135 l 557 671 l 661 671 l 661 0 m 457 972 l 297 772 l 231 772 l 361 972 l 457 972 m 654 972 l 494 772 l 428 772 l 558 972 l 654 972 z "},"Ų":{"ha":972,"x_min":108,"x_max":864,"o":"m 486 -17 q 205 84 301 -17 q 108 360 108 185 l 108 926 l 224 926 l 224 363 q 292 160 224 233 q 486 86 360 86 q 681 160 613 86 q 749 363 749 233 l 749 926 l 864 926 l 864 361 q 802 127 864 221 q 621 0 740 33 q 515 -135 515 -53 q 576 -204 515 -204 q 649 -146 629 -204 l 700 -175 q 576 -258 664 -258 q 488 -228 524 -258 q 453 -137 453 -197 q 507 -17 453 -71 l 486 -17 z "},"ų":{"ha":765,"x_min":104,"x_max":740,"o":"m 661 0 q 556 -135 556 -53 q 617 -204 556 -204 q 689 -146 669 -204 l 740 -175 q 617 -258 704 -258 q 528 -228 564 -258 q 493 -137 493 -197 q 567 0 493 -58 l 557 0 l 557 94 q 452 15 515 47 q 318 -17 389 -17 q 104 197 104 -17 l 104 671 l 208 671 l 208 229 q 247 111 208 146 q 358 76 285 76 q 472 106 417 76 q 557 178 526 135 l 557 671 l 661 671 l 661 0 z "},"Ŵ":{"ha":1226,"x_min":19,"x_max":1206,"o":"m 797 1004 l 726 1004 l 611 1151 l 500 1004 l 429 1004 l 561 1204 l 661 1204 l 797 1004 m 942 0 l 817 0 l 613 747 l 408 0 l 283 0 l 19 926 l 147 926 l 353 154 l 565 926 l 661 926 l 874 154 l 1078 926 l 1206 926 l 942 0 z "},"ŵ":{"ha":1019,"x_min":17,"x_max":1003,"o":"m 694 772 l 624 772 l 508 919 l 397 772 l 326 772 l 458 972 l 558 972 l 694 772 m 789 0 l 685 0 l 510 539 l 335 0 l 231 0 l 17 671 l 125 671 l 289 136 l 465 671 l 554 671 l 731 136 l 894 671 l 1003 671 l 789 0 z "},"Ŷ":{"ha":869,"x_min":13,"x_max":857,"o":"m 621 1004 l 550 1004 l 435 1151 l 324 1004 l 253 1004 l 385 1204 l 485 1204 l 621 1004 m 493 0 l 378 0 l 378 392 l 13 926 l 147 926 l 435 496 l 722 926 l 857 926 l 493 392 l 493 0 z "},"ŷ":{"ha":681,"x_min":4,"x_max":676,"o":"m 67 -262 l 83 -168 q 140 -179 108 -179 q 200 -164 176 -179 q 240 -108 224 -149 l 285 -7 l 4 671 l 117 671 l 340 121 l 563 671 l 676 671 l 340 -136 q 143 -272 285 -269 q 67 -262 100 -272 m 525 772 l 454 772 l 339 919 l 228 772 l 157 772 l 289 972 l 389 972 l 525 772 z "},"Ÿ":{"ha":869,"x_min":13,"x_max":857,"o":"m 626 1116 q 636 1107 626 1116 q 646 1071 646 1097 q 626 1025 646 1044 q 581 1006 607 1006 q 535 1025 554 1006 q 515 1071 515 1044 q 535 1116 515 1097 q 581 1135 554 1135 q 626 1116 607 1135 m 340 1116 q 349 1107 340 1116 q 358 1071 358 1097 q 340 1025 358 1044 q 294 1006 321 1006 q 248 1025 267 1006 q 229 1071 229 1044 q 249 1116 229 1097 q 294 1135 268 1135 q 340 1116 321 1135 m 493 0 l 378 0 l 378 392 l 13 926 l 147 926 l 435 496 l 722 926 l 857 926 l 493 392 l 493 0 z "},"Ź":{"ha":813,"x_min":67,"x_max":744,"o":"m 640 1204 l 406 1004 l 326 1004 l 532 1204 l 640 1204 m 744 0 l 67 0 l 67 96 l 588 824 l 67 824 l 67 926 l 735 926 l 735 831 l 214 103 l 744 103 l 744 0 z "},"ź":{"ha":656,"x_min":72,"x_max":583,"o":"m 561 972 l 326 772 l 247 772 l 453 972 l 561 972 m 583 0 l 72 0 l 72 81 l 442 579 l 72 579 l 72 671 l 578 671 l 578 592 l 206 90 l 583 90 l 583 0 z "},"Ż":{"ha":813,"x_min":67,"x_max":744,"o":"m 744 0 l 67 0 l 67 96 l 588 824 l 67 824 l 67 926 l 735 926 l 735 831 l 214 103 l 744 103 l 744 0 m 448 1022 q 439 1012 448 1022 q 403 1003 429 1003 q 357 1022 376 1003 q 338 1068 338 1042 q 357 1114 338 1094 q 403 1133 376 1133 q 448 1115 429 1133 q 467 1068 467 1096 q 448 1022 467 1040 z "},"ż":{"ha":656,"x_min":72,"x_max":583,"o":"m 583 0 l 72 0 l 72 81 l 442 579 l 72 579 l 72 671 l 578 671 l 578 592 l 206 90 l 583 90 l 583 0 m 372 790 q 362 780 372 790 q 326 771 353 771 q 281 790 300 771 q 261 836 261 810 q 281 882 261 863 q 326 901 300 901 q 372 883 353 901 q 390 836 390 864 q 372 790 390 808 z "},"Ž":{"ha":813,"x_min":67,"x_max":744,"o":"m 454 1004 l 354 1004 l 218 1204 l 289 1204 l 404 1057 l 515 1204 l 586 1204 l 454 1004 m 744 0 l 67 0 l 67 96 l 588 824 l 67 824 l 67 926 l 735 926 l 735 831 l 214 103 l 744 103 l 744 0 z "},"ž":{"ha":656,"x_min":72,"x_max":583,"o":"m 372 772 l 272 772 l 136 972 l 207 972 l 322 825 l 433 972 l 504 972 l 372 772 m 583 0 l 72 0 l 72 81 l 442 579 l 72 579 l 72 671 l 578 671 l 578 592 l 206 90 l 583 90 l 583 0 z "},"ſ":{"ha":393,"x_min":22,"x_max":469,"o":"m 238 0 l 133 0 l 133 579 l 22 579 l 22 671 l 133 671 l 133 722 q 185 883 133 825 q 328 940 238 940 q 469 889 414 940 l 426 815 q 343 847 390 847 q 265 814 293 847 q 238 722 238 781 l 238 0 z "},"ƒ":{"ha":599,"x_min":35,"x_max":618,"o":"m 151 -224 l 35 -224 l 163 353 l 68 353 l 68 447 l 182 447 l 246 731 q 332 884 267 828 q 488 940 397 940 q 618 890 569 940 l 567 806 q 497 838 542 838 q 410 803 447 838 q 358 710 372 769 l 300 447 l 493 447 l 493 353 l 279 353 l 151 -224 z "},"Ơ":{"ha":1063,"x_min":71,"x_max":999,"o":"m 531 -17 q 199 119 326 -17 q 71 463 71 256 q 199 806 71 669 q 531 942 326 942 q 876 789 744 942 q 940 894 933 836 q 925 892 938 892 q 886 908 901 892 q 871 949 871 925 q 888 992 871 974 q 929 1010 904 1010 q 978 986 958 1010 q 999 922 999 963 q 973 824 999 871 q 908 747 947 776 q 990 463 990 621 q 862 119 990 256 q 531 -17 733 -17 m 531 86 q 777 192 683 86 q 871 463 871 299 q 777 733 871 628 q 531 839 683 839 q 283 733 376 839 q 190 463 190 628 q 283 192 190 299 q 531 86 376 86 z "},"ơ":{"ha":794,"x_min":65,"x_max":732,"o":"m 732 736 q 651 569 732 638 q 729 336 729 475 q 638 85 729 186 q 397 -17 547 -17 q 156 85 247 -17 q 65 336 65 186 q 156 587 65 486 q 397 688 247 688 q 615 608 525 688 q 674 708 667 653 q 667 708 672 708 q 658 707 661 707 q 619 723 635 707 q 603 764 603 739 q 620 806 603 788 q 663 824 638 824 q 712 800 692 824 q 732 736 732 776 m 234 152 q 264 114 234 152 q 397 76 294 76 q 560 152 500 76 q 619 336 619 228 q 560 519 619 444 q 397 594 500 594 q 234 519 294 594 q 174 336 174 443 q 234 152 174 228 z "},"Ư":{"ha":972,"x_min":108,"x_max":1025,"o":"m 1025 1011 q 982 886 1025 944 q 864 797 939 828 l 864 361 q 767 84 864 185 q 486 -17 671 -17 q 205 84 301 -17 q 108 360 108 185 l 108 926 l 224 926 l 224 363 q 292 160 224 233 q 486 86 360 86 q 681 160 613 86 q 749 363 749 233 l 749 926 l 864 926 l 864 851 q 933 909 904 872 q 965 983 963 946 l 958 983 q 950 982 953 982 q 911 998 926 982 q 896 1039 896 1014 q 913 1081 896 1064 q 956 1099 931 1099 q 1005 1075 985 1099 q 1025 1011 1025 1051 z "},"ư":{"ha":765,"x_min":104,"x_max":792,"o":"m 661 0 l 557 0 l 557 94 q 452 15 515 47 q 318 -17 389 -17 q 104 197 104 -17 l 104 671 l 208 671 l 208 229 q 247 111 208 146 q 358 76 285 76 q 472 106 417 76 q 557 178 526 135 l 557 671 l 661 671 l 661 604 q 732 717 728 654 l 725 717 q 717 715 719 715 q 677 731 693 715 q 661 772 661 747 q 678 814 661 796 q 721 832 696 832 q 771 808 750 832 q 792 744 792 785 q 756 631 792 685 q 661 544 721 576 l 661 0 z "},"Ǽ":{"ha":1315,"x_min":10,"x_max":1240,"o":"m 928 1204 l 693 1004 l 614 1004 l 819 1204 l 928 1204 m 1240 0 l 633 0 l 633 206 l 268 206 l 142 0 l 10 0 l 588 926 l 1240 926 l 1240 824 l 749 824 l 749 525 l 1231 525 l 1231 422 l 749 422 l 749 103 l 1240 103 l 1240 0 m 633 308 l 633 807 l 325 308 l 633 308 z "},"ǽ":{"ha":1235,"x_min":67,"x_max":1171,"o":"m 814 972 l 579 772 l 500 772 l 706 972 l 814 972 m 1171 301 l 661 301 q 728 138 668 203 q 885 72 788 72 q 1078 157 1001 72 l 1128 86 q 881 -17 1028 -17 q 613 144 692 -17 q 502 28 576 72 q 336 -17 428 -17 q 144 42 222 -17 q 67 206 67 101 q 138 368 67 310 q 314 426 210 426 q 557 338 469 426 l 557 457 q 506 560 557 522 q 372 597 456 597 q 149 504 242 597 l 100 576 q 385 688 210 688 q 539 651 474 688 q 622 542 604 615 q 871 688 706 688 q 1091 586 1011 688 q 1171 328 1171 485 l 1171 301 m 661 378 l 1068 378 q 1015 533 1067 465 q 864 601 964 601 q 719 533 772 601 q 661 378 665 464 m 557 250 l 557 267 q 356 351 485 351 q 224 313 274 351 q 174 211 174 275 q 224 110 174 149 q 356 72 274 72 q 499 126 442 72 q 557 250 557 181 z "},"Ǿ":{"ha":1063,"x_min":71,"x_max":990,"o":"m 767 1204 l 532 1004 l 453 1004 l 658 1204 l 767 1204 m 531 -17 q 290 46 396 -17 l 260 0 l 168 0 l 229 90 q 71 463 71 226 q 199 806 71 669 q 531 942 326 942 q 763 883 658 942 l 792 926 l 883 926 l 825 840 q 947 677 904 775 q 990 463 990 579 q 862 119 990 256 q 531 -17 733 -17 m 531 86 q 777 192 683 86 q 871 463 871 299 q 763 747 871 643 l 350 135 q 531 86 426 86 m 190 463 q 292 183 190 288 l 703 794 q 531 839 625 839 q 283 733 376 839 q 190 463 190 628 z "},"ǿ":{"ha":794,"x_min":65,"x_max":729,"o":"m 632 972 l 397 772 l 318 772 l 524 972 l 632 972 m 164 0 l 89 0 l 156 85 q 65 336 65 183 q 156 587 65 486 q 397 688 247 688 q 588 631 507 688 l 619 671 l 694 671 l 632 592 q 729 336 729 492 q 638 85 729 186 q 397 -17 547 -17 q 200 46 282 -17 l 164 0 m 397 76 q 560 152 500 76 q 619 336 619 228 q 567 510 619 438 l 261 124 q 397 76 319 76 m 174 336 q 221 168 174 239 l 525 553 q 397 594 472 594 q 234 519 294 594 q 174 336 174 443 z "},"Ș":{"ha":814,"x_min":53,"x_max":750,"o":"m 479 -192 q 451 -296 479 -246 q 381 -378 424 -346 l 335 -342 q 390 -287 367 -321 q 415 -222 413 -253 q 400 -225 413 -225 q 358 -208 375 -225 q 342 -164 342 -190 q 360 -117 342 -136 q 406 -99 379 -99 q 458 -124 436 -99 q 479 -192 479 -149 m 408 -17 q 53 131 183 -17 l 121 218 q 413 86 239 86 q 578 134 525 86 q 631 246 631 182 q 600 328 631 294 q 522 380 569 361 q 415 414 474 399 q 298 448 357 429 q 191 493 239 467 q 113 568 143 519 q 82 683 82 617 q 172 869 82 797 q 400 940 263 940 q 729 811 607 940 l 660 726 q 392 838 558 838 q 255 797 308 838 q 201 690 201 756 q 242 610 201 642 q 344 563 283 578 q 476 524 404 547 q 608 476 547 501 q 709 393 668 450 q 750 256 750 336 q 666 63 750 142 q 408 -17 582 -17 z "},"ș":{"ha":646,"x_min":46,"x_max":581,"o":"m 404 -192 q 376 -296 404 -246 q 306 -378 349 -346 l 260 -342 q 315 -287 292 -321 q 340 -222 338 -253 q 325 -225 338 -225 q 283 -208 300 -225 q 267 -164 267 -190 q 285 -117 267 -136 q 331 -99 304 -99 q 383 -124 361 -99 q 404 -192 404 -149 m 317 -17 q 46 89 146 -17 l 100 164 q 195 96 135 124 q 321 68 256 68 q 438 100 396 68 q 479 183 479 132 q 436 253 479 228 q 333 292 393 279 q 211 323 272 306 q 107 383 150 340 q 64 494 64 425 q 131 632 64 576 q 314 688 199 688 q 563 590 465 688 l 514 518 q 314 603 443 603 q 206 573 246 603 q 165 497 165 543 q 208 434 165 457 q 313 398 251 411 q 434 367 374 385 q 538 303 494 349 q 581 186 581 258 q 511 40 581 97 q 317 -17 442 -17 z "},"Ț":{"ha":792,"x_min":44,"x_max":747,"o":"m 474 -192 q 446 -296 474 -246 q 375 -378 418 -346 l 329 -342 q 384 -287 361 -321 q 410 -222 407 -253 q 394 -225 407 -225 q 353 -208 369 -225 q 336 -164 336 -190 q 355 -117 336 -136 q 400 -99 374 -99 q 452 -124 431 -99 q 474 -192 474 -149 m 453 0 l 338 0 l 338 824 l 44 824 l 44 926 l 747 926 l 747 824 l 453 824 l 453 0 z "},"ț":{"ha":408,"x_min":14,"x_max":399,"o":"m 282 -192 q 254 -296 282 -246 q 183 -378 226 -346 l 138 -342 q 192 -287 169 -321 q 218 -222 215 -253 q 203 -225 215 -225 q 161 -208 178 -225 q 144 -164 144 -190 q 163 -117 144 -136 q 208 -99 182 -99 q 260 -124 239 -99 q 282 -192 282 -149 m 274 -17 q 163 24 200 -17 q 125 140 125 64 l 125 579 l 14 579 l 14 671 l 125 671 l 125 854 l 229 854 l 229 671 l 365 671 l 365 579 l 229 579 l 229 163 q 247 100 229 124 q 297 76 264 76 q 368 104 343 76 l 399 26 q 274 -17 353 -17 z "},"ȷ":{"ha":313,"x_min":-137,"x_max":208,"o":"m 10 -272 q -137 -222 -72 -272 l -100 -143 q -4 -186 -57 -186 q 75 -156 46 -186 q 104 -65 104 -126 l 104 671 l 208 671 l 208 -65 q 157 -218 208 -164 q 10 -272 106 -272 z "},"ʰ":{"ha":553,"x_min":83,"x_max":469,"o":"m 469 453 l 389 453 l 389 733 q 290 833 389 833 q 163 769 215 833 l 163 453 l 83 453 l 83 1056 l 163 1056 l 163 826 q 324 900 228 900 q 469 751 469 900 l 469 453 z "},"ʼ":{"ha":319,"x_min":79,"x_max":244,"o":"m 244 835 q 213 717 244 774 q 131 625 181 661 l 79 668 q 139 727 113 690 q 169 797 165 764 q 150 794 164 794 q 102 815 121 794 q 83 865 83 835 q 105 918 83 896 q 157 940 126 940 q 219 912 193 940 q 244 835 244 883 z "},"ˆ":{"ha":368,"x_min":0,"x_max":368,"o":"m 368 772 l 297 772 l 182 919 l 71 772 l 0 772 l 132 972 l 232 972 l 368 772 z "},"ˇ":{"ha":368,"x_min":0,"x_max":368,"o":"m 236 772 l 136 772 l 0 972 l 71 972 l 186 825 l 297 972 l 368 972 l 236 772 z "},"ˉ":{"ha":504,"x_min":0,"x_max":504,"o":"m 504 821 l 0 821 l 0 888 l 504 888 l 504 821 z "},"ˋ":{"ha":314,"x_min":0,"x_max":314,"o":"m 314 772 l 235 772 l 0 972 l 108 972 l 314 772 z "},"˘":{"ha":488,"x_min":0,"x_max":488,"o":"m 488 869 q 244 747 397 747 q 0 869 93 747 l 51 914 q 244 814 124 814 q 436 914 367 814 l 488 869 z "},"˙":{"ha":154,"x_min":13,"x_max":142,"o":"m 123 790 q 114 780 123 790 q 78 771 104 771 q 32 790 51 771 q 13 836 13 810 q 32 882 13 863 q 78 901 51 901 q 123 883 104 901 q 142 836 142 864 q 123 790 142 808 z "},"˚":{"ha":272,"x_min":0,"x_max":272,"o":"m 232 794 q 212 774 232 794 q 136 754 192 754 q 40 794 81 754 q 0 890 0 833 q 40 988 0 947 q 136 1028 81 1028 q 232 988 192 1028 q 272 890 272 947 q 232 794 272 833 m 79 833 q 91 820 79 833 q 136 808 103 808 q 193 833 169 808 q 217 890 217 857 q 194 949 217 925 q 136 972 171 972 q 79 949 103 972 q 56 890 56 925 q 79 833 56 857 z "},"˛":{"ha":247,"x_min":0,"x_max":247,"o":"m 196 -146 l 247 -175 q 124 -258 211 -258 q 35 -228 71 -258 q 0 -137 0 -197 q 33 -42 0 -86 q 122 32 67 3 l 168 0 q 63 -135 63 -53 q 124 -204 63 -204 q 196 -146 176 -204 z "},"˜":{"ha":435,"x_min":0,"x_max":435,"o":"m 300 769 q 240 790 265 769 q 201 833 214 810 q 170 877 189 857 q 129 897 151 897 q 81 867 100 897 q 63 778 63 838 l 0 778 q 35 913 0 861 q 135 964 71 964 q 194 944 168 964 q 233 900 219 924 q 265 856 246 876 q 306 836 283 836 q 353 866 335 836 q 372 956 372 896 l 435 956 q 399 821 435 872 q 300 769 364 769 z "},"˝":{"ha":424,"x_min":0,"x_max":424,"o":"m 226 972 l 67 772 l 0 772 l 131 972 l 226 972 m 424 972 l 264 772 l 197 772 l 328 972 l 424 972 z "},"̉":{"ha":247,"x_min":21,"x_max":222,"o":"m 67 1008 l 21 1021 q 122 1097 46 1097 q 194 1073 165 1097 q 222 1001 222 1049 q 196 926 222 963 l 140 926 q 172 999 172 958 q 122 1053 172 1053 q 67 1008 82 1053 z "},";":{"ha":319,"x_min":79,"x_max":244,"o":"m 213 551 q 202 539 213 551 q 160 528 190 528 q 106 551 129 528 q 83 604 83 574 q 106 658 83 636 q 160 681 128 681 q 214 658 192 681 q 236 604 236 636 q 213 551 236 574 m 244 36 q 213 -83 244 -26 q 131 -174 181 -139 l 79 -132 q 139 -72 113 -110 q 169 -1 165 -35 q 150 -6 161 -6 q 102 15 121 -6 q 83 65 83 35 q 105 119 83 97 q 157 142 126 142 q 219 113 193 142 q 244 36 244 85 z "},"΄":{"ha":276,"x_min":139,"x_max":271,"o":"m 190 785 l 139 785 l 165 1063 l 271 1063 l 190 785 z "},"΅":{"ha":765,"x_min":132,"x_max":633,"o":"m 390 785 l 338 785 l 364 1063 l 469 1063 l 390 785 m 615 884 q 624 875 615 884 q 633 839 633 865 q 615 793 633 813 q 569 774 596 774 q 524 792 543 774 q 506 839 506 811 q 524 884 506 865 q 569 903 543 903 q 615 884 596 903 m 241 884 q 250 875 241 884 q 260 839 260 865 q 241 793 260 813 q 196 774 222 774 q 151 792 169 774 q 132 839 132 811 q 151 884 132 865 q 196 903 169 903 q 241 884 222 903 z "},"Ά":{"ha":914,"x_min":13,"x_max":901,"o":"m 253 785 l 201 785 l 228 1063 l 333 1063 l 253 785 m 901 0 l 769 0 l 688 206 l 226 206 l 144 0 l 13 0 l 385 926 l 528 926 l 901 0 m 653 308 l 457 807 l 260 308 l 653 308 z "},"Έ":{"ha":814,"x_min":-18,"x_max":739,"o":"m 33 785 l -18 785 l 8 1063 l 114 1063 l 33 785 m 739 0 l 132 0 l 132 926 l 739 926 l 739 824 l 247 824 l 247 525 l 729 525 l 729 422 l 247 422 l 247 103 l 739 103 l 739 0 z "},"Ή":{"ha":1013,"x_min":-18,"x_max":904,"o":"m 33 785 l -18 785 l 8 1063 l 114 1063 l 33 785 m 904 0 l 789 0 l 789 425 l 247 425 l 247 0 l 132 0 l 132 926 l 247 926 l 247 528 l 789 528 l 789 926 l 904 926 l 904 0 z "},"Ί":{"ha":354,"x_min":-18,"x_max":247,"o":"m 33 785 l -18 785 l 8 1063 l 114 1063 l 33 785 m 247 0 l 132 0 l 132 926 l 247 926 l 247 0 z "},"Ό":{"ha":1063,"x_min":31,"x_max":990,"o":"m 82 785 l 31 785 l 57 1063 l 163 1063 l 82 785 m 531 -17 q 199 119 326 -17 q 71 463 71 256 q 199 806 71 669 q 531 942 326 942 q 862 806 733 942 q 990 463 990 669 q 862 119 990 256 q 531 -17 733 -17 m 531 86 q 777 192 683 86 q 871 463 871 299 q 777 733 871 628 q 531 839 683 839 q 283 733 376 839 q 190 463 190 628 q 283 192 190 299 q 531 86 376 86 z "},"Ύ":{"ha":950,"x_min":-18,"x_max":938,"o":"m 33 785 l -18 785 l 8 1063 l 114 1063 l 33 785 m 574 0 l 458 0 l 458 392 l 93 926 l 228 926 l 515 496 l 803 926 l 938 926 l 574 392 l 574 0 z "},"Ώ":{"ha":1068,"x_min":31,"x_max":996,"o":"m 82 785 l 31 785 l 57 1063 l 163 1063 l 82 785 m 101 103 l 289 103 q 76 483 76 231 q 204 813 76 685 q 536 942 332 942 q 869 813 742 942 q 996 483 996 685 q 786 103 996 231 l 972 103 l 972 0 l 639 0 l 639 103 q 807 224 738 128 q 876 464 876 319 q 786 731 876 624 q 536 838 696 838 q 286 731 376 838 q 196 464 196 624 q 266 224 196 319 q 435 103 336 128 l 435 0 l 101 0 l 101 103 z "},"ΐ":{"ha":332,"x_min":-85,"x_max":417,"o":"m 174 785 l 121 785 l 147 1063 l 253 1063 l 174 785 m 398 884 q 407 875 398 884 q 417 839 417 865 q 398 793 417 813 q 353 774 379 774 q 308 792 326 774 q 289 839 289 811 q 308 884 289 865 q 353 903 326 903 q 398 884 379 903 m 24 884 q 34 875 24 884 q 43 839 43 865 q 24 793 43 813 q -21 774 6 774 q -66 792 -47 774 q -85 839 -85 811 q -66 884 -85 865 q -21 903 -47 903 q 24 884 6 903 m 253 -17 q 142 24 179 -17 q 104 140 104 64 l 104 671 l 208 671 l 208 157 q 274 76 208 76 q 300 79 289 76 l 308 -11 q 253 -17 278 -17 z "},"Α":{"ha":914,"x_min":13,"x_max":901,"o":"m 901 0 l 769 0 l 688 206 l 226 206 l 144 0 l 13 0 l 385 926 l 528 926 l 901 0 m 653 308 l 457 807 l 260 308 l 653 308 z "},"Β":{"ha":874,"x_min":108,"x_max":799,"o":"m 531 0 l 108 0 l 108 926 l 521 926 q 710 861 640 926 q 781 690 781 796 q 733 549 781 607 q 618 478 686 492 q 745 400 692 467 q 799 250 799 333 q 727 69 799 138 q 531 0 656 0 m 501 525 q 619 567 578 525 q 661 674 661 608 q 619 781 661 739 q 501 824 576 824 l 224 824 l 224 525 l 501 525 m 507 103 q 633 146 588 103 q 679 263 679 189 q 634 376 679 331 q 507 422 589 422 l 224 422 l 224 103 l 507 103 z "},"Γ":{"ha":764,"x_min":108,"x_max":715,"o":"m 224 0 l 108 0 l 108 926 l 715 926 l 715 824 l 224 824 l 224 0 z "},"Δ":{"ha":914,"x_min":13,"x_max":901,"o":"m 901 0 l 13 0 l 385 926 l 528 926 l 901 0 m 736 103 l 457 807 l 178 103 l 736 103 z "},"Ε":{"ha":790,"x_min":108,"x_max":715,"o":"m 715 0 l 108 0 l 108 926 l 715 926 l 715 824 l 224 824 l 224 525 l 706 525 l 706 422 l 224 422 l 224 103 l 715 103 l 715 0 z "},"Ζ":{"ha":813,"x_min":67,"x_max":744,"o":"m 744 0 l 67 0 l 67 96 l 588 824 l 67 824 l 67 926 l 735 926 l 735 831 l 214 103 l 744 103 l 744 0 z "},"Η":{"ha":989,"x_min":108,"x_max":881,"o":"m 881 0 l 765 0 l 765 425 l 224 425 l 224 0 l 108 0 l 108 926 l 224 926 l 224 528 l 765 528 l 765 926 l 881 926 l 881 0 z "},"Θ":{"ha":1063,"x_min":71,"x_max":990,"o":"m 790 422 l 272 422 l 272 525 l 790 525 l 790 422 m 531 -17 q 199 119 326 -17 q 71 463 71 256 q 199 806 71 669 q 531 942 326 942 q 862 806 733 942 q 990 463 990 669 q 862 119 990 256 q 531 -17 733 -17 m 531 86 q 777 192 683 86 q 871 463 871 299 q 777 733 871 628 q 531 839 683 839 q 283 733 376 839 q 190 463 190 628 q 283 192 190 299 q 531 86 376 86 z "},"Ι":{"ha":332,"x_min":108,"x_max":224,"o":"m 224 0 l 108 0 l 108 926 l 224 926 l 224 0 z "},"Κ":{"ha":835,"x_min":108,"x_max":811,"o":"m 811 0 l 668 0 l 317 417 l 224 311 l 224 0 l 108 0 l 108 926 l 224 926 l 224 447 l 633 926 l 778 926 l 392 486 l 811 0 z "},"Λ":{"ha":914,"x_min":13,"x_max":901,"o":"m 901 0 l 769 0 l 457 807 l 144 0 l 13 0 l 385 926 l 528 926 l 901 0 z "},"Μ":{"ha":1124,"x_min":108,"x_max":1015,"o":"m 1015 0 l 900 0 l 900 763 l 585 0 l 538 0 l 224 763 l 224 0 l 108 0 l 108 926 l 274 926 l 561 229 l 850 926 l 1015 926 l 1015 0 z "},"Ν":{"ha":983,"x_min":108,"x_max":875,"o":"m 875 0 l 764 0 l 224 739 l 224 0 l 108 0 l 108 926 l 226 926 l 760 203 l 760 926 l 875 926 l 875 0 z "},"Ξ":{"ha":854,"x_min":75,"x_max":778,"o":"m 778 824 l 76 824 l 76 926 l 778 926 l 778 824 m 778 0 l 75 0 l 75 103 l 778 103 l 778 0 m 769 422 l 86 422 l 86 525 l 769 525 l 769 422 z "},"Ο":{"ha":1063,"x_min":71,"x_max":990,"o":"m 531 -17 q 199 119 326 -17 q 71 463 71 256 q 199 806 71 669 q 531 942 326 942 q 862 806 733 942 q 990 463 990 669 q 862 119 990 256 q 531 -17 733 -17 m 531 86 q 777 192 683 86 q 871 463 871 299 q 777 733 871 628 q 531 839 683 839 q 283 733 376 839 q 190 463 190 628 q 283 192 190 299 q 531 86 376 86 z "},"Π":{"ha":989,"x_min":108,"x_max":881,"o":"m 881 0 l 765 0 l 765 824 l 224 824 l 224 0 l 108 0 l 108 926 l 881 926 l 881 0 z "},"Ρ":{"ha":815,"x_min":108,"x_max":771,"o":"m 224 0 l 108 0 l 108 926 l 481 926 q 693 846 615 926 q 771 647 771 765 q 692 449 771 529 q 481 368 614 368 l 224 368 l 224 0 m 467 471 q 600 520 549 471 q 651 647 651 569 q 600 774 651 725 q 467 824 549 824 l 224 824 l 224 471 l 467 471 z "},"Σ":{"ha":799,"x_min":75,"x_max":724,"o":"m 218 824 l 536 476 l 214 103 l 724 103 l 724 0 l 75 0 l 75 103 l 396 475 l 76 824 l 76 926 l 724 926 l 724 824 l 218 824 z "},"Τ":{"ha":792,"x_min":44,"x_max":747,"o":"m 453 0 l 338 0 l 338 824 l 44 824 l 44 926 l 747 926 l 747 824 l 453 824 l 453 0 z "},"Υ":{"ha":869,"x_min":13,"x_max":857,"o":"m 493 0 l 378 0 l 378 392 l 13 926 l 147 926 l 435 496 l 722 926 l 857 926 l 493 392 l 493 0 z "},"Φ":{"ha":1119,"x_min":71,"x_max":1049,"o":"m 617 0 l 501 0 l 501 90 q 186 204 301 104 q 71 463 71 304 q 186 719 71 619 q 501 833 301 819 l 501 926 l 617 926 l 617 833 q 932 719 815 819 q 1049 463 1049 618 q 933 204 1049 304 q 617 90 817 104 l 617 0 m 846 279 q 888 315 846 279 q 929 463 929 351 q 846 646 929 574 q 617 731 763 718 l 617 194 q 846 279 763 207 m 273 646 q 232 610 273 646 q 190 463 190 574 q 273 279 190 351 q 501 194 356 207 l 501 731 q 273 646 356 718 z "},"Χ":{"ha":906,"x_min":17,"x_max":888,"o":"m 888 0 l 749 0 l 453 394 l 157 0 l 17 0 l 378 475 l 38 926 l 178 926 l 453 556 l 726 926 l 867 926 l 528 476 l 888 0 z "},"Ψ":{"ha":1106,"x_min":108,"x_max":997,"o":"m 611 0 l 496 0 l 496 174 q 207 287 306 188 q 108 549 108 386 l 108 926 l 224 926 l 224 551 q 293 361 224 432 q 496 276 363 290 l 496 926 l 611 926 l 611 278 q 811 362 742 290 q 881 551 881 433 l 881 926 l 997 926 l 997 550 q 899 287 997 386 q 611 174 800 188 l 611 0 z "},"Ω":{"ha":1063,"x_min":71,"x_max":990,"o":"m 96 103 l 283 103 q 71 483 71 231 q 199 813 71 685 q 531 942 326 942 q 863 813 736 942 q 990 483 990 685 q 781 103 990 231 l 967 103 l 967 0 l 633 0 l 633 103 q 801 224 732 128 q 871 464 871 319 q 781 731 871 624 q 531 838 690 838 q 281 731 371 838 q 190 464 190 624 q 260 224 190 319 q 429 103 331 128 l 429 0 l 96 0 l 96 103 z "},"Ϊ":{"ha":332,"x_min":-43,"x_max":374,"o":"m 224 0 l 108 0 l 108 926 l 224 926 l 224 0 m 354 1140 q 364 1130 354 1140 q 374 1094 374 1121 q 354 1049 374 1068 q 308 1029 335 1029 q 263 1049 282 1029 q 243 1094 243 1068 q 263 1140 243 1121 q 308 1158 282 1158 q 354 1140 335 1158 m 67 1140 q 77 1130 67 1140 q 86 1094 86 1121 q 67 1049 86 1068 q 22 1029 49 1029 q -24 1048 -6 1029 q -43 1094 -43 1067 q -24 1140 -43 1121 q 22 1158 -4 1158 q 67 1140 49 1158 z "},"Ϋ":{"ha":869,"x_min":13,"x_max":857,"o":"m 493 0 l 378 0 l 378 392 l 13 926 l 147 926 l 435 496 l 722 926 l 857 926 l 493 392 l 493 0 m 624 1140 q 633 1130 624 1140 q 643 1094 643 1121 q 624 1049 643 1068 q 578 1029 604 1029 q 532 1049 551 1029 q 513 1094 513 1068 q 532 1140 513 1121 q 578 1158 551 1158 q 624 1140 604 1158 m 337 1140 q 346 1130 337 1140 q 356 1094 356 1121 q 337 1049 356 1068 q 292 1029 318 1029 q 245 1048 264 1029 q 226 1094 226 1067 q 246 1140 226 1121 q 292 1158 265 1158 q 337 1140 318 1158 z "},"ά":{"ha":818,"x_min":65,"x_max":793,"o":"m 421 785 l 369 785 l 396 1063 l 501 1063 l 421 785 m 786 79 l 793 -11 q 739 -17 765 -17 q 594 107 613 -17 q 497 18 558 53 q 364 -17 435 -17 q 148 78 231 -17 q 65 335 65 174 q 148 591 65 494 q 364 688 231 688 q 589 569 504 688 l 589 671 l 694 671 l 694 157 q 711 98 694 119 q 758 76 728 76 q 786 79 772 76 m 389 76 q 506 107 450 76 q 590 182 561 138 l 590 486 q 505 563 561 532 q 389 594 449 594 q 232 522 290 594 q 174 335 174 449 q 232 149 174 221 q 389 76 290 76 z "},"έ":{"ha":714,"x_min":65,"x_max":675,"o":"m 368 785 l 317 785 l 343 1063 l 449 1063 l 368 785 m 372 -17 q 148 38 231 -17 q 65 179 65 93 q 127 296 65 254 q 260 343 189 338 q 135 394 192 351 q 79 507 79 438 q 165 640 79 592 q 388 686 250 688 q 663 579 558 686 l 608 515 q 383 601 524 601 q 243 572 299 601 q 188 494 188 542 q 243 410 188 439 q 386 382 299 382 l 536 382 l 536 297 l 386 297 q 175 186 175 297 q 228 101 175 133 q 372 69 282 69 q 624 160 529 69 l 675 93 q 372 -17 565 -17 z "},"ή":{"ha":765,"x_min":104,"x_max":661,"o":"m 394 785 l 343 785 l 369 1063 l 475 1063 l 394 785 m 661 -256 l 557 -256 l 557 439 q 518 559 557 524 q 407 594 479 594 q 294 564 349 594 q 208 490 239 533 l 208 0 l 104 0 l 104 671 l 208 671 l 208 574 q 313 653 247 619 q 447 688 378 688 q 661 471 661 688 l 661 -256 z "},"ί":{"ha":332,"x_min":104,"x_max":308,"o":"m 179 785 l 128 785 l 154 1063 l 260 1063 l 179 785 m 253 -17 q 142 24 179 -17 q 104 140 104 64 l 104 671 l 208 671 l 208 157 q 274 76 208 76 q 300 79 289 76 l 308 -11 q 253 -17 278 -17 z "},"ΰ":{"ha":781,"x_min":104,"x_max":715,"o":"m 397 785 l 344 785 l 371 1063 l 476 1063 l 397 785 m 622 884 q 631 875 622 884 q 640 839 640 865 q 622 793 640 813 q 576 774 603 774 q 531 792 550 774 q 513 839 513 811 q 531 884 513 865 q 576 903 550 903 q 622 884 603 903 m 248 884 q 257 875 248 884 q 267 839 267 865 q 248 793 267 813 q 203 774 229 774 q 158 792 176 774 q 139 839 139 811 q 158 884 139 865 q 203 903 176 903 q 248 884 229 903 m 382 -17 q 175 67 246 -17 q 104 294 104 150 l 104 671 l 208 671 l 208 296 q 254 135 208 193 q 382 76 300 76 q 546 153 486 76 q 606 347 606 231 q 504 640 606 522 l 597 688 q 715 347 715 539 q 624 86 715 189 q 382 -17 533 -17 z "},"α":{"ha":818,"x_min":65,"x_max":793,"o":"m 786 79 l 793 -11 q 739 -17 765 -17 q 594 107 613 -17 q 497 18 558 53 q 364 -17 435 -17 q 148 78 231 -17 q 65 335 65 174 q 148 591 65 494 q 364 688 231 688 q 589 569 504 688 l 589 671 l 694 671 l 694 157 q 711 98 694 119 q 758 76 728 76 q 786 79 772 76 m 389 76 q 506 107 450 76 q 590 182 561 138 l 590 486 q 505 563 561 532 q 389 594 449 594 q 232 522 290 594 q 174 335 174 449 q 232 149 174 221 q 389 76 290 76 z "},"β":{"ha":799,"x_min":104,"x_max":733,"o":"m 208 632 l 208 182 q 295 106 239 136 q 415 76 351 76 q 570 125 515 76 q 625 256 625 174 q 564 384 625 340 q 407 428 503 428 l 358 428 l 358 521 l 404 521 q 547 563 492 521 q 603 683 603 604 q 551 803 603 758 q 421 847 499 847 q 269 791 331 847 q 208 632 208 735 m 208 100 l 208 -256 l 104 -256 l 104 632 q 197 862 104 783 q 421 940 290 940 q 631 874 549 940 q 713 693 713 808 q 653 547 713 601 q 519 478 594 492 q 665 410 596 471 q 733 240 733 349 q 651 55 733 126 q 446 -17 569 -17 q 208 100 294 -17 z "},"γ":{"ha":681,"x_min":-10,"x_max":642,"o":"m 393 -256 l 289 -256 l 289 -68 q 205 342 289 142 q -10 671 121 542 l 113 671 q 275 422 204 579 q 361 129 346 265 q 488 385 438 236 q 538 671 538 533 l 642 671 q 574 331 642 510 q 393 7 506 151 l 393 -256 z "},"δ":{"ha":794,"x_min":65,"x_max":729,"o":"m 401 -17 q 158 81 251 -17 q 65 310 65 178 q 119 488 65 413 q 261 600 172 563 q 147 750 147 650 q 214 888 147 832 q 396 943 281 943 q 644 846 550 943 l 596 774 q 396 858 525 858 q 288 828 328 858 q 247 753 247 799 q 274 701 247 722 q 342 665 300 679 q 437 636 385 651 q 540 597 489 621 q 634 538 592 572 q 703 444 676 504 q 729 306 729 385 q 639 80 729 176 q 401 -17 549 -17 m 628 306 q 608 408 628 365 q 545 481 588 451 q 469 524 503 510 q 375 558 435 539 q 225 464 276 529 q 174 310 174 399 q 235 148 174 219 q 399 76 297 76 q 565 147 501 76 q 628 306 628 218 z "},"ε":{"ha":714,"x_min":65,"x_max":675,"o":"m 372 -17 q 148 38 231 -17 q 65 179 65 93 q 127 296 65 254 q 260 343 189 338 q 135 394 192 351 q 79 507 79 438 q 165 640 79 592 q 388 686 250 688 q 663 579 558 686 l 608 515 q 383 601 524 601 q 243 572 299 601 q 188 494 188 542 q 243 410 188 439 q 386 382 299 382 l 536 382 l 536 297 l 386 297 q 175 186 175 297 q 228 101 175 133 q 372 69 282 69 q 624 160 529 69 l 675 93 q 372 -17 565 -17 z "},"ζ":{"ha":679,"x_min":65,"x_max":625,"o":"m 515 -67 q 497 -28 515 -39 q 436 -17 479 -17 q 167 67 269 -17 q 65 293 65 150 q 482 835 65 608 l 88 835 l 88 926 l 618 926 l 618 847 q 174 300 174 592 q 248 135 174 193 q 449 76 322 76 q 583 47 542 76 q 625 -47 625 18 q 564 -218 625 -111 l 451 -218 q 515 -67 515 -119 z "},"η":{"ha":765,"x_min":104,"x_max":661,"o":"m 661 -256 l 557 -256 l 557 439 q 518 559 557 524 q 407 594 479 594 q 294 564 349 594 q 208 490 239 533 l 208 0 l 104 0 l 104 671 l 208 671 l 208 574 q 313 653 247 619 q 447 688 378 688 q 661 471 661 688 l 661 -256 z "},"θ":{"ha":794,"x_min":65,"x_max":729,"o":"m 644 119 q 601 51 644 119 q 397 -17 558 -17 q 151 119 236 -17 q 65 464 65 254 q 151 808 65 674 q 397 943 236 943 q 644 808 558 943 q 729 464 729 674 q 644 119 729 254 m 397 76 q 618 419 606 76 l 175 419 q 235 169 182 261 q 397 76 289 76 m 558 758 q 531 804 558 758 q 397 850 504 850 q 236 758 290 850 q 175 511 182 665 l 618 511 q 558 758 611 667 z "},"ι":{"ha":332,"x_min":104,"x_max":308,"o":"m 253 -17 q 142 24 179 -17 q 104 140 104 64 l 104 671 l 208 671 l 208 157 q 274 76 208 76 q 300 79 289 76 l 308 -11 q 253 -17 278 -17 z "},"κ":{"ha":714,"x_min":104,"x_max":694,"o":"m 694 0 l 561 0 l 319 301 l 208 192 l 208 0 l 104 0 l 104 671 l 208 671 l 208 314 l 561 671 l 693 671 l 396 367 l 694 0 z "},"λ":{"ha":681,"x_min":4,"x_max":676,"o":"m 83 839 l 67 932 q 143 943 97 943 q 340 807 285 940 l 676 0 l 563 0 l 340 550 l 117 0 l 4 0 l 285 676 l 240 778 q 200 834 224 818 q 140 850 176 850 q 83 839 108 850 z "},"μ":{"ha":785,"x_min":104,"x_max":761,"o":"m 208 50 l 208 -256 l 104 -256 l 104 671 l 208 671 l 208 229 q 361 74 208 74 q 472 104 418 74 q 557 178 526 135 l 557 671 l 661 671 l 661 157 q 726 76 661 76 q 753 79 742 76 l 761 -11 q 706 -17 731 -17 q 561 103 583 -17 q 467 17 524 51 q 349 -17 410 -17 q 208 50 244 -17 z "},"ν":{"ha":681,"x_min":4,"x_max":642,"o":"m 388 0 l 283 0 l 4 671 l 117 671 l 344 106 q 485 379 433 229 q 538 671 538 529 l 642 671 q 572 326 642 508 q 388 0 503 144 z "},"ξ":{"ha":679,"x_min":65,"x_max":625,"o":"m 436 -17 q 162 51 258 -17 q 65 239 65 118 q 124 392 65 335 q 256 463 183 449 q 134 519 189 474 q 79 643 79 565 q 122 758 79 704 q 229 835 165 811 l 90 835 l 90 926 l 606 926 l 606 835 l 346 835 q 233 772 278 819 q 189 668 189 724 q 249 559 189 597 q 400 521 310 521 l 599 521 l 599 431 l 400 431 q 236 387 299 431 q 174 256 174 343 q 246 123 174 169 q 449 76 318 76 q 583 47 542 76 q 625 -47 625 18 q 564 -218 625 -111 l 451 -218 q 515 -67 515 -119 q 497 -28 515 -39 q 436 -17 479 -17 z "},"ο":{"ha":794,"x_min":65,"x_max":729,"o":"m 638 85 q 593 34 638 85 q 397 -17 547 -17 q 156 85 247 -17 q 65 336 65 186 q 156 587 65 486 q 397 688 247 688 q 638 587 547 688 q 729 336 729 486 q 638 85 729 186 m 234 152 q 264 114 234 152 q 397 76 294 76 q 560 152 500 76 q 619 336 619 228 q 560 519 619 444 q 397 594 500 594 q 234 519 294 594 q 174 336 174 443 q 234 152 174 228 z "},"π":{"ha":808,"x_min":14,"x_max":794,"o":"m 683 0 l 579 0 l 579 579 l 229 579 l 229 0 l 125 0 l 125 579 l 14 579 l 14 671 l 794 671 l 794 579 l 683 579 l 683 0 z "},"ρ":{"ha":794,"x_min":104,"x_max":733,"o":"m 435 -17 q 208 101 293 -17 l 208 -256 l 104 -256 l 104 336 q 190 587 104 486 q 417 688 275 688 q 647 587 560 688 q 733 336 733 486 q 651 79 733 175 q 435 -17 568 -17 m 408 76 q 565 149 507 76 q 624 336 624 222 q 568 519 624 444 q 415 594 513 594 q 264 519 319 594 q 208 336 208 444 l 208 185 q 292 108 236 139 q 408 76 349 76 z "},"ς":{"ha":671,"x_min":65,"x_max":646,"o":"m 439 -17 q 167 78 269 -17 q 65 336 65 172 q 158 588 65 488 q 400 688 251 688 q 646 571 556 688 l 576 507 q 406 594 513 594 q 237 522 300 594 q 174 336 174 450 q 247 143 174 210 q 444 76 321 76 q 581 47 538 76 q 625 -47 625 18 q 565 -218 625 -110 l 457 -218 q 521 -67 521 -119 q 439 -17 521 -17 z "},"σ":{"ha":794,"x_min":65,"x_max":760,"o":"m 722 313 q 634 78 722 174 q 397 -17 546 -17 q 156 85 247 -17 q 65 336 65 186 q 160 575 65 479 q 415 671 254 671 l 760 671 l 760 578 l 600 578 q 722 313 722 482 m 619 328 q 581 480 619 414 q 481 578 543 546 l 415 578 q 238 506 301 578 q 174 336 174 435 q 234 152 174 228 q 397 76 294 76 q 560 151 500 76 q 619 328 619 225 z "},"τ":{"ha":650,"x_min":36,"x_max":614,"o":"m 421 -17 q 310 24 347 -17 q 272 140 272 64 l 272 579 l 36 579 l 36 671 l 614 671 l 614 579 l 376 579 l 376 163 q 394 100 376 124 q 444 76 411 76 q 515 104 490 76 l 546 26 q 421 -17 500 -17 z "},"υ":{"ha":781,"x_min":104,"x_max":715,"o":"m 382 -17 q 175 67 246 -17 q 104 294 104 150 l 104 671 l 208 671 l 208 296 q 254 135 208 193 q 382 76 300 76 q 546 153 486 76 q 606 347 606 231 q 504 640 606 522 l 597 688 q 715 347 715 539 q 624 86 715 189 q 382 -17 533 -17 z "},"φ":{"ha":1033,"x_min":65,"x_max":967,"o":"m 967 336 q 865 90 967 185 q 568 -15 764 -4 l 568 -256 l 464 -256 l 464 -14 q 166 94 267 -3 q 65 353 65 190 q 135 553 65 468 q 314 688 204 638 l 358 607 q 174 353 174 517 q 244 163 174 236 q 464 78 314 90 l 464 688 l 517 688 q 853 592 739 688 q 967 336 967 497 m 858 336 q 785 516 858 446 q 568 593 711 586 l 568 78 q 788 159 717 89 q 858 336 858 229 z "},"χ":{"ha":675,"x_min":17,"x_max":660,"o":"m 660 -256 l 543 -256 l 338 124 l 132 -256 l 17 -256 l 274 221 l 31 671 l 147 671 l 338 318 l 528 671 l 644 671 l 401 221 l 660 -256 z "},"ψ":{"ha":1033,"x_min":104,"x_max":929,"o":"m 568 -256 l 464 -256 l 464 -15 q 196 81 288 -4 q 104 308 104 167 l 104 671 l 208 671 l 208 308 q 275 149 208 208 q 464 79 342 90 l 464 926 l 568 926 l 568 78 q 757 149 689 89 q 825 308 825 208 l 825 671 l 929 671 l 929 308 q 837 81 929 165 q 568 -15 744 -4 l 568 -256 z "},"ω":{"ha":1122,"x_min":65,"x_max":1056,"o":"m 1056 336 q 983 85 1056 186 q 793 -17 911 -17 q 643 43 701 -17 q 561 188 585 103 q 478 42 536 101 q 329 -17 419 -17 q 138 85 210 -17 q 65 336 65 186 q 201 688 65 575 l 276 624 q 174 336 174 528 q 219 152 174 228 q 342 76 264 76 q 464 152 419 76 q 508 336 508 228 l 508 507 l 613 507 l 613 336 q 657 152 613 228 q 779 76 701 76 q 902 152 857 76 q 947 336 947 228 q 844 624 947 529 l 921 688 q 1056 336 1056 576 z "},"ϊ":{"ha":332,"x_min":-42,"x_max":375,"o":"m 356 884 q 365 875 356 884 q 375 839 375 865 q 356 793 375 813 q 310 774 336 774 q 264 793 283 774 q 244 839 244 813 q 264 884 244 865 q 310 903 283 903 q 356 884 336 903 m 69 884 q 78 875 69 884 q 88 839 88 865 q 69 793 88 813 q 24 774 50 774 q -22 792 -3 774 q -42 839 -42 811 q -22 884 -42 865 q 24 903 -3 903 q 69 884 50 903 m 253 -17 q 142 24 179 -17 q 104 140 104 64 l 104 671 l 208 671 l 208 157 q 274 76 208 76 q 300 79 289 76 l 308 -11 q 253 -17 278 -17 z "},"ϋ":{"ha":781,"x_min":104,"x_max":715,"o":"m 578 884 q 588 875 578 884 q 597 839 597 865 q 578 793 597 813 q 532 774 558 774 q 486 793 506 774 q 467 839 467 813 q 486 884 467 865 q 532 903 506 903 q 578 884 558 903 m 291 884 q 300 875 291 884 q 310 839 310 865 q 291 793 310 813 q 246 774 272 774 q 200 792 219 774 q 181 839 181 811 q 200 884 181 865 q 246 903 219 903 q 291 884 272 903 m 382 -17 q 175 67 246 -17 q 104 294 104 150 l 104 671 l 208 671 l 208 296 q 254 135 208 193 q 382 76 300 76 q 546 153 486 76 q 606 347 606 231 q 504 640 606 522 l 597 688 q 715 347 715 539 q 624 86 715 189 q 382 -17 533 -17 z "},"ό":{"ha":794,"x_min":65,"x_max":729,"o":"m 408 785 l 357 785 l 383 1063 l 489 1063 l 408 785 m 638 85 q 593 34 638 85 q 397 -17 547 -17 q 156 85 247 -17 q 65 336 65 186 q 156 587 65 486 q 397 688 247 688 q 638 587 547 688 q 729 336 729 486 q 638 85 729 186 m 234 152 q 264 114 234 152 q 397 76 294 76 q 560 152 500 76 q 619 336 619 228 q 560 519 619 444 q 397 594 500 594 q 234 519 294 594 q 174 336 174 443 q 234 152 174 228 z "},"ύ":{"ha":781,"x_min":104,"x_max":715,"o":"m 403 785 l 351 785 l 378 1063 l 483 1063 l 403 785 m 382 -17 q 175 67 246 -17 q 104 294 104 150 l 104 671 l 208 671 l 208 296 q 254 135 208 193 q 382 76 300 76 q 546 153 486 76 q 606 347 606 231 q 504 640 606 522 l 597 688 q 715 347 715 539 q 624 86 715 189 q 382 -17 533 -17 z "},"ώ":{"ha":1122,"x_min":65,"x_max":1056,"o":"m 572 785 l 521 785 l 547 1063 l 653 1063 l 572 785 m 1056 336 q 983 85 1056 186 q 793 -17 911 -17 q 643 43 701 -17 q 561 188 585 103 q 478 42 536 101 q 329 -17 419 -17 q 138 85 210 -17 q 65 336 65 186 q 201 688 65 575 l 276 624 q 174 336 174 528 q 219 152 174 228 q 342 76 264 76 q 464 152 419 76 q 508 336 508 228 l 508 507 l 613 507 l 613 336 q 657 152 613 228 q 779 76 701 76 q 902 152 857 76 q 947 336 947 228 q 844 624 947 529 l 921 688 q 1056 336 1056 576 z "},"Ё":{"ha":790,"x_min":108,"x_max":715,"o":"m 600 1116 q 610 1107 600 1116 q 619 1071 619 1097 q 600 1025 619 1044 q 554 1006 581 1006 q 508 1025 528 1006 q 489 1071 489 1044 q 508 1116 489 1097 q 554 1135 528 1135 q 600 1116 581 1135 m 313 1116 q 323 1107 313 1116 q 332 1071 332 1097 q 313 1025 332 1044 q 268 1006 294 1006 q 222 1025 242 1006 q 203 1071 203 1044 q 222 1116 203 1097 q 268 1135 242 1135 q 313 1116 294 1135 m 715 0 l 108 0 l 108 926 l 715 926 l 715 824 l 224 824 l 224 525 l 706 525 l 706 422 l 224 422 l 224 103 l 715 103 l 715 0 z "},"Ђ":{"ha":1068,"x_min":44,"x_max":997,"o":"m 696 -17 l 696 86 q 832 138 782 86 q 882 278 882 189 l 882 289 q 827 441 882 389 q 667 493 772 493 q 453 461 551 493 l 453 0 l 338 0 l 338 824 l 44 824 l 44 926 l 747 926 l 747 824 l 453 824 l 453 564 q 676 596 569 596 q 915 511 833 596 q 997 289 997 426 l 997 278 q 913 58 997 133 q 696 -17 828 -17 z "},"Ѓ":{"ha":764,"x_min":108,"x_max":715,"o":"m 631 1204 l 396 1004 l 317 1004 l 522 1204 l 631 1204 m 224 0 l 108 0 l 108 926 l 715 926 l 715 824 l 224 824 l 224 0 z "},"Є":{"ha":939,"x_min":71,"x_max":900,"o":"m 547 -17 q 208 117 344 -17 q 71 463 71 251 q 208 808 71 674 q 547 942 344 942 q 899 758 769 942 l 801 704 q 693 801 761 764 q 547 839 625 839 q 312 752 410 839 q 194 525 214 665 l 701 525 l 701 422 l 192 422 q 305 180 206 274 q 547 86 404 86 q 693 123 625 86 q 801 221 761 160 l 900 167 q 547 -17 765 -17 z "},"Ѕ":{"ha":814,"x_min":53,"x_max":750,"o":"m 408 -17 q 53 131 183 -17 l 121 218 q 413 86 239 86 q 578 134 525 86 q 631 246 631 182 q 600 328 631 294 q 522 380 569 361 q 415 414 474 399 q 298 448 357 429 q 191 493 239 467 q 113 568 143 519 q 82 683 82 617 q 172 869 82 797 q 400 940 263 940 q 729 811 607 940 l 660 726 q 392 838 558 838 q 255 797 308 838 q 201 690 201 756 q 242 610 201 642 q 344 563 283 578 q 476 524 404 547 q 608 476 547 501 q 709 393 668 450 q 750 256 750 336 q 666 63 750 142 q 408 -17 582 -17 z "},"І":{"ha":332,"x_min":108,"x_max":224,"o":"m 224 0 l 108 0 l 108 926 l 224 926 l 224 0 z "},"Ї":{"ha":332,"x_min":-43,"x_max":374,"o":"m 224 0 l 108 0 l 108 926 l 224 926 l 224 0 m 354 1116 q 364 1107 354 1116 q 374 1071 374 1097 q 354 1025 374 1044 q 308 1006 335 1006 q 263 1025 282 1006 q 243 1071 243 1044 q 263 1116 243 1097 q 308 1135 282 1135 q 354 1116 335 1135 m 67 1116 q 77 1107 67 1116 q 86 1071 86 1097 q 67 1025 86 1044 q 22 1006 49 1006 q -24 1025 -6 1006 q -43 1071 -43 1044 q -24 1116 -43 1097 q 22 1135 -4 1135 q 67 1116 49 1135 z "},"Ј":{"ha":660,"x_min":15,"x_max":551,"o":"m 257 -17 q 15 90 107 -17 l 75 178 q 250 86 151 86 q 385 140 335 86 q 436 281 436 193 l 436 926 l 551 926 l 551 279 q 469 59 551 135 q 257 -17 388 -17 z "},"Љ":{"ha":1472,"x_min":44,"x_max":1428,"o":"m 44 -17 l 44 86 q 142 114 104 86 q 208 224 179 142 q 257 461 238 307 l 314 926 l 881 926 l 881 558 l 1138 558 q 1349 478 1271 558 q 1428 279 1428 397 q 1350 81 1428 161 q 1138 0 1272 0 l 765 0 l 765 824 l 417 824 l 371 453 q 323 208 353 304 q 249 65 293 113 q 159 0 206 17 q 44 -17 113 -17 m 1124 456 l 881 456 l 881 103 l 1124 103 q 1257 152 1206 103 q 1308 279 1308 201 q 1257 406 1308 357 q 1124 456 1206 456 z "},"Њ":{"ha":1472,"x_min":108,"x_max":1428,"o":"m 108 0 l 108 926 l 224 926 l 224 528 l 765 528 l 765 926 l 881 926 l 881 528 l 1154 528 q 1354 451 1281 528 q 1428 264 1428 375 q 1354 76 1428 151 q 1154 0 1281 0 l 765 0 l 765 425 l 224 425 l 224 0 l 108 0 m 881 103 l 1140 103 q 1262 147 1215 103 q 1308 264 1308 192 q 1262 380 1308 335 q 1140 425 1215 425 l 881 425 l 881 103 z "},"Ћ":{"ha":1090,"x_min":44,"x_max":997,"o":"m 882 0 l 882 279 q 667 493 882 493 q 453 461 551 493 l 453 0 l 338 0 l 338 824 l 44 824 l 44 926 l 747 926 l 747 824 l 453 824 l 453 564 q 676 596 569 596 q 916 510 835 596 q 997 278 997 425 l 997 0 l 882 0 z "},"Ќ":{"ha":835,"x_min":108,"x_max":811,"o":"m 657 1204 l 422 1004 l 343 1004 l 549 1204 l 657 1204 m 811 0 l 668 0 l 317 417 l 224 311 l 224 0 l 108 0 l 108 926 l 224 926 l 224 447 l 633 926 l 778 926 l 392 486 l 811 0 z "},"Ў":{"ha":869,"x_min":13,"x_max":857,"o":"m 201 -17 q 96 4 144 -17 q 21 57 47 25 l 69 149 q 196 86 129 86 q 280 114 249 86 q 351 218 311 142 l 368 250 l 13 926 l 144 926 l 435 353 l 725 926 l 857 926 l 453 164 q 349 28 404 72 q 201 -17 293 -17 m 679 1101 q 436 979 589 979 q 192 1101 285 979 l 243 1146 q 436 1046 315 1046 q 628 1146 558 1046 l 679 1101 z "},"Џ":{"ha":989,"x_min":108,"x_max":881,"o":"m 108 0 l 108 926 l 224 926 l 224 103 l 765 103 l 765 926 l 881 926 l 881 0 l 553 0 l 553 -176 l 438 -176 l 438 0 l 108 0 z "},"А":{"ha":914,"x_min":13,"x_max":901,"o":"m 901 0 l 769 0 l 688 206 l 226 206 l 144 0 l 13 0 l 385 926 l 528 926 l 901 0 m 653 308 l 457 807 l 260 308 l 653 308 z "},"Б":{"ha":815,"x_min":108,"x_max":771,"o":"m 108 926 l 710 926 l 710 824 l 224 824 l 224 558 l 481 558 q 692 478 614 558 q 771 279 771 397 q 693 81 771 161 q 481 0 615 0 l 108 0 l 108 926 m 467 456 l 224 456 l 224 103 l 467 103 q 600 152 549 103 q 651 279 651 201 q 600 406 651 357 q 467 456 549 456 z "},"В":{"ha":874,"x_min":108,"x_max":799,"o":"m 531 0 l 108 0 l 108 926 l 521 926 q 710 861 640 926 q 781 690 781 796 q 733 549 781 607 q 618 478 686 492 q 745 400 692 467 q 799 250 799 333 q 727 69 799 138 q 531 0 656 0 m 501 525 q 619 567 578 525 q 661 674 661 608 q 619 781 661 739 q 501 824 576 824 l 224 824 l 224 525 l 501 525 m 507 103 q 633 146 588 103 q 679 263 679 189 q 634 376 679 331 q 507 422 589 422 l 224 422 l 224 103 l 507 103 z "},"Г":{"ha":764,"x_min":108,"x_max":715,"o":"m 224 0 l 108 0 l 108 926 l 715 926 l 715 824 l 224 824 l 224 0 z "},"Д":{"ha":1004,"x_min":44,"x_max":965,"o":"m 44 -171 l 44 93 q 142 122 106 97 q 208 228 178 147 q 257 461 238 308 l 314 926 l 881 926 l 881 103 l 965 103 l 965 -171 l 850 -171 l 850 0 l 160 0 l 160 -171 l 44 -171 m 371 453 q 229 103 339 185 l 765 103 l 765 824 l 417 824 l 371 453 z "},"Е":{"ha":790,"x_min":108,"x_max":715,"o":"m 715 0 l 108 0 l 108 926 l 715 926 l 715 824 l 224 824 l 224 525 l 706 525 l 706 422 l 224 422 l 224 103 l 715 103 l 715 0 z "},"Ж":{"ha":1263,"x_min":24,"x_max":1240,"o":"m 167 0 l 24 0 l 443 486 l 57 926 l 201 926 l 574 490 l 574 926 l 689 926 l 689 490 l 1063 926 l 1207 926 l 819 486 l 1240 0 l 1096 0 l 744 417 l 689 353 l 689 0 l 574 0 l 574 353 l 518 417 l 167 0 z "},"З":{"ha":811,"x_min":40,"x_max":736,"o":"m 389 -17 q 179 26 272 -17 q 40 136 86 69 l 108 210 q 226 120 150 154 q 386 86 301 86 q 557 133 494 86 q 619 260 619 179 q 555 383 619 343 q 379 424 490 424 l 190 424 l 190 526 l 379 526 q 541 565 478 526 q 604 679 604 603 q 541 796 604 754 q 382 838 478 838 q 119 725 225 838 l 56 797 q 198 901 111 861 q 390 940 285 940 q 627 874 532 940 q 722 693 722 807 q 660 547 722 601 q 522 478 599 492 q 667 411 599 471 q 736 250 736 351 q 640 58 736 133 q 389 -17 544 -17 z "},"И":{"ha":983,"x_min":108,"x_max":875,"o":"m 219 0 l 108 0 l 108 926 l 224 926 l 224 203 l 757 926 l 875 926 l 875 0 l 760 0 l 760 739 l 219 0 z "},"Й":{"ha":983,"x_min":108,"x_max":875,"o":"m 219 0 l 108 0 l 108 926 l 224 926 l 224 203 l 757 926 l 875 926 l 875 0 l 760 0 l 760 739 l 219 0 m 735 1101 q 492 979 644 979 q 247 1101 340 979 l 299 1146 q 492 1046 371 1046 q 683 1146 614 1046 l 735 1101 z "},"К":{"ha":835,"x_min":108,"x_max":811,"o":"m 811 0 l 668 0 l 317 417 l 224 311 l 224 0 l 108 0 l 108 926 l 224 926 l 224 447 l 633 926 l 778 926 l 392 486 l 811 0 z "},"Л":{"ha":989,"x_min":44,"x_max":881,"o":"m 44 -17 l 44 86 q 142 114 104 86 q 208 224 179 142 q 257 461 238 307 l 314 926 l 881 926 l 881 0 l 765 0 l 765 824 l 417 824 l 371 453 q 323 208 353 304 q 249 65 293 113 q 159 0 206 17 q 44 -17 113 -17 z "},"М":{"ha":1124,"x_min":108,"x_max":1015,"o":"m 1015 0 l 900 0 l 900 763 l 585 0 l 538 0 l 224 763 l 224 0 l 108 0 l 108 926 l 274 926 l 561 229 l 850 926 l 1015 926 l 1015 0 z "},"Н":{"ha":989,"x_min":108,"x_max":881,"o":"m 881 0 l 765 0 l 765 425 l 224 425 l 224 0 l 108 0 l 108 926 l 224 926 l 224 528 l 765 528 l 765 926 l 881 926 l 881 0 z "},"О":{"ha":1063,"x_min":71,"x_max":990,"o":"m 531 -17 q 199 119 326 -17 q 71 463 71 256 q 199 806 71 669 q 531 942 326 942 q 862 806 733 942 q 990 463 990 669 q 862 119 990 256 q 531 -17 733 -17 m 531 86 q 777 192 683 86 q 871 463 871 299 q 777 733 871 628 q 531 839 683 839 q 283 733 376 839 q 190 463 190 628 q 283 192 190 299 q 531 86 376 86 z "},"П":{"ha":989,"x_min":108,"x_max":881,"o":"m 881 0 l 765 0 l 765 824 l 224 824 l 224 0 l 108 0 l 108 926 l 881 926 l 881 0 z "},"Р":{"ha":815,"x_min":108,"x_max":771,"o":"m 224 0 l 108 0 l 108 926 l 481 926 q 693 846 615 926 q 771 647 771 765 q 692 449 771 529 q 481 368 614 368 l 224 368 l 224 0 m 467 471 q 600 520 549 471 q 651 647 651 569 q 600 774 651 725 q 467 824 549 824 l 224 824 l 224 471 l 467 471 z "},"С":{"ha":939,"x_min":71,"x_max":900,"o":"m 547 -17 q 208 117 344 -17 q 71 463 71 251 q 208 808 71 674 q 547 942 344 942 q 899 758 769 942 l 801 704 q 693 801 761 764 q 547 839 625 839 q 292 733 394 839 q 190 463 190 626 q 292 192 190 299 q 547 86 394 86 q 693 123 625 86 q 801 221 761 160 l 900 167 q 547 -17 765 -17 z "},"Т":{"ha":792,"x_min":44,"x_max":747,"o":"m 453 0 l 338 0 l 338 824 l 44 824 l 44 926 l 747 926 l 747 824 l 453 824 l 453 0 z "},"У":{"ha":869,"x_min":13,"x_max":857,"o":"m 201 -17 q 96 4 144 -17 q 21 57 47 25 l 69 149 q 196 86 129 86 q 280 114 249 86 q 351 218 311 142 l 368 250 l 13 926 l 144 926 l 435 353 l 725 926 l 857 926 l 453 164 q 349 28 404 72 q 201 -17 293 -17 z "},"Ф":{"ha":1119,"x_min":71,"x_max":1049,"o":"m 617 0 l 501 0 l 501 90 q 186 204 301 104 q 71 463 71 304 q 186 719 71 619 q 501 833 301 819 l 501 926 l 617 926 l 617 833 q 932 719 815 819 q 1049 463 1049 618 q 933 204 1049 304 q 617 90 817 104 l 617 0 m 846 279 q 888 315 846 279 q 929 463 929 351 q 846 646 929 574 q 617 731 763 718 l 617 194 q 846 279 763 207 m 273 646 q 232 610 273 646 q 190 463 190 574 q 273 279 190 351 q 501 194 356 207 l 501 731 q 273 646 356 718 z "},"Х":{"ha":906,"x_min":17,"x_max":888,"o":"m 888 0 l 749 0 l 453 394 l 157 0 l 17 0 l 378 475 l 38 926 l 178 926 l 453 556 l 726 926 l 867 926 l 528 476 l 888 0 z "},"Ц":{"ha":1004,"x_min":108,"x_max":965,"o":"m 850 -171 l 850 0 l 108 0 l 108 926 l 224 926 l 224 103 l 765 103 l 765 926 l 881 926 l 881 103 l 965 103 l 965 -171 l 850 -171 z "},"Ч":{"ha":849,"x_min":81,"x_max":740,"o":"m 196 926 l 196 685 q 411 471 196 471 q 625 503 526 471 l 625 926 l 740 926 l 740 0 l 625 0 l 625 400 q 401 368 508 368 q 162 453 243 368 q 81 686 81 539 l 81 926 l 196 926 z "},"Ш":{"ha":1331,"x_min":108,"x_max":1222,"o":"m 1107 926 l 1222 926 l 1222 0 l 108 0 l 108 926 l 224 926 l 224 103 l 608 103 l 608 926 l 724 926 l 724 103 l 1107 103 l 1107 926 z "},"Щ":{"ha":1354,"x_min":115,"x_max":1314,"o":"m 1115 926 l 1231 926 l 1231 103 l 1314 103 l 1314 -171 l 1199 -171 l 1199 0 l 115 0 l 115 926 l 231 926 l 231 103 l 615 103 l 615 926 l 731 926 l 731 103 l 1115 103 l 1115 926 z "},"Ъ":{"ha":1044,"x_min":44,"x_max":1000,"o":"m 710 0 l 338 0 l 338 824 l 44 824 l 44 926 l 453 926 l 453 558 l 710 558 q 922 478 843 558 q 1000 279 1000 397 q 922 81 1000 161 q 710 0 844 0 m 696 456 l 453 456 l 453 103 l 696 103 q 829 152 778 103 q 881 279 881 201 q 829 406 881 357 q 696 456 778 456 z "},"Ы":{"ha":1094,"x_min":108,"x_max":986,"o":"m 108 926 l 224 926 l 224 558 l 481 558 q 692 478 614 558 q 771 279 771 397 q 693 81 771 161 q 481 0 615 0 l 108 0 l 108 926 m 467 456 l 224 456 l 224 103 l 467 103 q 600 152 549 103 q 651 279 651 201 q 600 406 651 357 q 467 456 549 456 m 986 0 l 871 0 l 871 926 l 986 926 l 986 0 z "},"Ь":{"ha":815,"x_min":108,"x_max":771,"o":"m 108 926 l 224 926 l 224 558 l 481 558 q 692 478 614 558 q 771 279 771 397 q 693 81 771 161 q 481 0 615 0 l 108 0 l 108 926 m 467 456 l 224 456 l 224 103 l 467 103 q 600 152 549 103 q 651 279 651 201 q 600 406 651 357 q 467 456 549 456 z "},"Э":{"ha":939,"x_min":39,"x_max":868,"o":"m 392 -17 q 39 167 174 -17 l 138 221 q 246 123 178 160 q 392 86 314 86 q 634 180 535 86 q 746 422 733 274 l 238 422 l 238 525 l 743 525 q 626 752 724 665 q 392 839 529 839 q 246 801 314 839 q 138 704 178 764 l 40 758 q 392 942 169 942 q 731 808 594 942 q 868 463 868 674 q 731 117 868 251 q 392 -17 594 -17 z "},"Ю":{"ha":1378,"x_min":108,"x_max":1307,"o":"m 846 -17 q 525 108 651 -17 q 388 425 399 232 l 224 425 l 224 0 l 108 0 l 108 926 l 224 926 l 224 528 l 389 528 q 535 826 410 711 q 846 942 660 942 q 1178 806 1049 942 q 1307 463 1307 669 q 1178 119 1307 256 q 846 -17 1049 -17 m 846 86 q 1093 192 999 86 q 1188 463 1188 299 q 1093 733 1188 626 q 846 839 999 839 q 599 733 692 839 q 506 463 506 628 q 599 192 506 299 q 846 86 692 86 z "},"Я":{"ha":844,"x_min":65,"x_max":738,"o":"m 200 0 l 65 0 l 315 378 q 144 457 214 386 q 74 647 74 528 q 155 850 74 774 q 365 926 236 926 l 738 926 l 738 0 l 622 0 l 622 368 l 436 368 l 200 0 m 378 469 l 622 469 l 622 824 l 378 824 q 244 774 296 824 q 193 647 193 725 q 245 519 193 569 q 378 469 297 469 z "},"а":{"ha":732,"x_min":67,"x_max":628,"o":"m 628 0 l 524 0 l 524 76 q 301 -17 439 -17 q 138 43 208 -17 q 67 206 67 103 q 137 369 67 311 q 301 426 207 426 q 524 335 444 426 l 524 456 q 476 560 524 522 q 354 597 429 597 q 149 504 236 597 l 100 576 q 368 688 207 688 q 556 632 483 688 q 628 461 628 576 l 628 0 m 339 58 q 524 142 464 58 l 524 268 q 339 351 464 351 q 220 310 267 351 q 174 204 174 269 q 220 99 174 140 q 339 58 267 58 z "},"б":{"ha":801,"x_min":65,"x_max":728,"o":"m 234 152 q 264 114 234 152 q 397 76 294 76 q 560 152 500 76 q 619 338 619 228 q 560 519 619 444 q 397 594 500 594 q 234 519 294 594 q 174 338 174 444 q 234 152 174 228 m 397 -17 q 156 90 246 -17 q 65 367 65 197 q 151 720 65 606 q 417 858 238 835 q 565 890 524 875 q 606 926 606 906 l 707 926 q 683 859 707 888 q 616 814 660 831 q 534 788 572 797 q 443 772 496 779 q 242 696 304 753 q 161 544 181 639 q 414 688 253 688 q 640 586 553 688 q 728 338 728 485 q 638 85 728 188 q 397 -17 547 -17 z "},"в":{"ha":769,"x_min":104,"x_max":676,"o":"m 481 0 l 104 0 l 104 671 l 474 671 q 612 624 561 671 q 663 499 663 576 q 631 401 663 442 q 554 346 600 360 q 641 286 606 333 q 676 182 676 239 q 624 50 676 100 q 481 0 572 0 m 460 92 q 539 119 510 92 q 568 194 568 147 q 539 268 568 238 q 460 299 510 299 l 208 299 l 208 92 l 460 92 m 456 390 q 529 416 503 390 q 556 483 556 442 q 529 553 556 528 q 456 579 503 579 l 208 579 l 208 390 l 456 390 z "},"г":{"ha":606,"x_min":104,"x_max":574,"o":"m 574 671 l 574 579 l 208 579 l 208 0 l 104 0 l 104 671 l 574 671 z "},"д":{"ha":779,"x_min":25,"x_max":740,"o":"m 25 -171 l 25 86 q 106 148 76 96 q 153 340 135 200 l 196 671 l 663 671 l 663 92 l 740 92 l 740 -171 l 636 -171 l 636 0 l 129 0 l 129 -171 l 25 -171 m 288 579 l 257 328 q 160 92 233 151 l 558 92 l 558 579 l 288 579 z "},"е":{"ha":782,"x_min":65,"x_max":718,"o":"m 407 -17 q 161 81 257 -17 q 65 336 65 179 q 160 585 65 483 q 396 688 254 688 q 631 585 544 688 q 718 328 718 483 l 718 301 l 175 301 q 247 136 182 203 q 417 69 313 69 q 624 154 542 69 l 674 86 q 407 -17 571 -17 m 615 378 q 557 533 614 464 q 394 601 500 601 q 237 533 294 601 q 175 378 179 465 l 615 378 z "},"ж":{"ha":988,"x_min":19,"x_max":968,"o":"m 153 0 l 19 0 l 318 367 l 21 671 l 153 671 l 442 375 l 442 671 l 546 671 l 546 376 l 835 671 l 967 671 l 668 367 l 968 0 l 835 0 l 593 301 l 546 254 l 546 0 l 442 0 l 442 254 l 394 301 l 153 0 z "},"з":{"ha":714,"x_min":39,"x_max":649,"o":"m 342 -17 q 39 93 149 -17 l 90 160 q 342 69 185 69 q 485 101 432 69 q 539 186 539 133 q 328 297 539 297 l 178 297 l 178 382 l 328 382 q 471 410 415 382 q 526 494 526 439 q 471 572 526 542 q 331 601 415 601 q 106 515 190 601 l 51 579 q 326 686 156 686 q 549 640 464 688 q 635 507 635 592 q 578 394 635 438 q 454 343 522 351 q 587 296 525 338 q 649 179 649 254 q 566 38 649 93 q 342 -17 483 -17 z "},"и":{"ha":767,"x_min":104,"x_max":663,"o":"m 204 0 l 104 0 l 104 671 l 208 671 l 208 158 l 560 671 l 663 671 l 663 0 l 558 0 l 558 522 l 204 0 z "},"й":{"ha":767,"x_min":104,"x_max":663,"o":"m 204 0 l 104 0 l 104 671 l 208 671 l 208 158 l 560 671 l 663 671 l 663 0 l 558 0 l 558 522 l 204 0 m 626 869 q 383 747 536 747 q 139 869 232 747 l 190 914 q 383 814 263 814 q 575 914 506 814 l 626 869 z "},"к":{"ha":714,"x_min":104,"x_max":694,"o":"m 694 0 l 561 0 l 319 301 l 208 192 l 208 0 l 104 0 l 104 671 l 208 671 l 208 314 l 561 671 l 693 671 l 396 367 l 694 0 z "},"л":{"ha":767,"x_min":25,"x_max":663,"o":"m 25 -17 l 25 69 q 103 132 72 69 q 153 340 133 194 l 196 671 l 663 671 l 663 0 l 558 0 l 558 579 l 288 579 l 257 328 q 179 63 235 143 q 25 -17 124 -17 z "},"м":{"ha":893,"x_min":104,"x_max":789,"o":"m 789 0 l 685 0 l 685 526 l 467 0 l 428 0 l 208 526 l 208 0 l 104 0 l 104 671 l 242 671 l 447 174 l 650 671 l 789 671 l 789 0 z "},"н":{"ha":767,"x_min":104,"x_max":663,"o":"m 208 0 l 104 0 l 104 671 l 208 671 l 208 392 l 558 392 l 558 671 l 663 671 l 663 0 l 558 0 l 558 300 l 208 300 l 208 0 z "},"о":{"ha":794,"x_min":65,"x_max":729,"o":"m 638 85 q 593 34 638 85 q 397 -17 547 -17 q 156 85 247 -17 q 65 336 65 186 q 156 587 65 486 q 397 688 247 688 q 638 587 547 688 q 729 336 729 486 q 638 85 729 186 m 234 152 q 264 114 234 152 q 397 76 294 76 q 560 152 500 76 q 619 336 619 228 q 560 519 619 444 q 397 594 500 594 q 234 519 294 594 q 174 336 174 443 q 234 152 174 228 z "},"п":{"ha":767,"x_min":104,"x_max":663,"o":"m 663 0 l 558 0 l 558 579 l 208 579 l 208 0 l 104 0 l 104 671 l 663 671 l 663 0 z "},"р":{"ha":794,"x_min":104,"x_max":733,"o":"m 435 -17 q 208 101 293 -17 l 208 -256 l 104 -256 l 104 671 l 208 671 l 208 571 q 306 656 246 624 q 435 688 365 688 q 651 592 568 688 q 733 336 733 497 q 651 79 733 175 q 435 -17 568 -17 m 408 76 q 565 149 507 76 q 624 336 624 222 q 565 522 624 450 q 408 594 507 594 q 292 563 349 594 q 208 488 236 532 l 208 185 q 292 108 236 139 q 408 76 349 76 z "},"с":{"ha":688,"x_min":65,"x_max":646,"o":"m 400 -17 q 158 84 251 -17 q 65 336 65 185 q 158 588 65 488 q 400 688 251 688 q 646 571 556 688 l 576 507 q 406 594 513 594 q 237 522 300 594 q 174 336 174 450 q 237 149 174 222 q 406 76 300 76 q 576 164 511 76 l 646 100 q 400 -17 556 -17 z "},"т":{"ha":558,"x_min":32,"x_max":526,"o":"m 331 0 l 226 0 l 226 579 l 32 579 l 32 671 l 526 671 l 526 579 l 331 579 l 331 0 z "},"у":{"ha":681,"x_min":4,"x_max":676,"o":"m 67 -262 l 83 -168 q 140 -179 108 -179 q 200 -164 176 -179 q 240 -108 224 -149 l 285 -7 l 4 671 l 117 671 l 340 121 l 563 671 l 676 671 l 340 -136 q 143 -272 285 -269 q 67 -262 100 -272 z "},"ф":{"ha":1108,"x_min":78,"x_max":1031,"o":"m 319 688 q 503 569 433 688 l 503 926 l 607 926 l 607 571 q 685 656 638 624 q 789 688 733 688 q 964 592 897 688 q 1031 336 1031 497 q 963 79 1031 175 q 789 -17 896 -17 q 607 101 675 -17 l 607 -256 l 503 -256 l 503 100 q 424 15 472 47 q 319 -17 375 -17 q 144 78 211 -17 q 78 335 78 174 q 145 592 78 496 q 319 688 213 688 m 349 594 q 228 522 272 594 q 183 335 183 449 q 228 149 183 221 q 349 76 272 76 q 439 107 396 76 q 503 183 482 138 l 503 486 q 438 563 481 532 q 349 594 394 594 m 760 76 q 881 149 836 76 q 925 336 925 222 q 881 522 925 450 q 760 594 836 594 q 671 563 714 594 q 607 488 628 532 l 607 185 q 672 108 629 139 q 760 76 714 76 z "},"х":{"ha":675,"x_min":17,"x_max":660,"o":"m 660 0 l 539 0 l 338 275 l 136 0 l 17 0 l 274 344 l 31 671 l 151 671 l 338 415 l 524 671 l 644 671 l 401 344 l 660 0 z "},"ц":{"ha":779,"x_min":104,"x_max":740,"o":"m 636 -171 l 636 0 l 104 0 l 104 671 l 208 671 l 208 92 l 558 92 l 558 671 l 663 671 l 663 92 l 740 92 l 740 -171 l 636 -171 z "},"ч":{"ha":751,"x_min":90,"x_max":647,"o":"m 90 671 l 194 671 l 194 482 q 236 357 194 392 q 365 322 278 322 q 543 358 474 322 l 543 671 l 647 671 l 647 0 l 543 0 l 543 274 q 339 229 454 229 q 149 282 208 229 q 90 450 90 335 l 90 671 z "},"ш":{"ha":1088,"x_min":104,"x_max":983,"o":"m 879 671 l 983 671 l 983 0 l 104 0 l 104 671 l 208 671 l 208 92 l 492 92 l 492 671 l 596 671 l 596 92 l 879 92 l 879 671 z "},"щ":{"ha":1108,"x_min":104,"x_max":1069,"o":"m 879 671 l 983 671 l 983 92 l 1069 92 l 1069 -171 l 965 -171 l 965 0 l 104 0 l 104 671 l 208 671 l 208 92 l 492 92 l 492 671 l 596 671 l 596 92 l 879 92 l 879 671 z "},"ъ":{"ha":847,"x_min":32,"x_max":793,"o":"m 582 0 l 226 0 l 226 579 l 32 579 l 32 671 l 331 671 l 331 411 l 582 411 q 738 352 682 411 q 793 206 793 293 q 737 59 793 118 q 582 0 681 0 m 571 319 l 331 319 l 331 92 l 571 92 q 656 123 626 92 q 686 206 686 154 q 656 288 686 257 q 571 319 626 319 z "},"ы":{"ha":989,"x_min":104,"x_max":885,"o":"m 104 671 l 208 671 l 208 411 l 460 411 q 615 352 560 411 q 671 206 671 293 q 615 59 671 118 q 460 0 558 0 l 104 0 l 104 671 m 449 319 l 208 319 l 208 92 l 449 92 q 534 123 504 92 q 564 206 564 154 q 534 288 564 257 q 449 319 504 319 m 885 0 l 781 0 l 781 671 l 885 671 l 885 0 z "},"ь":{"ha":725,"x_min":104,"x_max":671,"o":"m 104 671 l 208 671 l 208 411 l 460 411 q 615 352 560 411 q 671 206 671 293 q 615 59 671 118 q 460 0 558 0 l 104 0 l 104 671 m 449 319 l 208 319 l 208 92 l 449 92 q 534 123 504 92 q 564 206 564 154 q 534 288 564 257 q 449 319 504 319 z "},"э":{"ha":688,"x_min":42,"x_max":624,"o":"m 288 -17 q 42 100 132 -17 l 108 161 q 283 69 176 69 q 440 131 379 69 q 511 294 500 192 l 174 294 l 174 385 l 510 385 q 437 542 497 483 q 283 601 376 601 q 108 510 175 601 l 42 571 q 288 688 132 688 q 530 588 436 688 q 624 336 624 488 q 530 84 624 185 q 288 -17 436 -17 z "},"ю":{"ha":1065,"x_min":104,"x_max":1000,"o":"m 667 -17 q 438 73 528 -17 q 338 300 349 163 l 208 300 l 208 0 l 104 0 l 104 671 l 208 671 l 208 392 l 339 392 q 444 604 356 521 q 667 688 532 688 q 908 587 817 688 q 1000 336 1000 486 q 908 85 1000 186 q 667 -17 817 -17 m 667 76 q 831 152 771 76 q 890 336 890 228 q 831 519 890 444 q 667 594 771 594 q 505 519 565 594 q 444 336 444 443 q 504 152 444 228 q 667 76 564 76 z "},"я":{"ha":760,"x_min":82,"x_max":656,"o":"m 204 0 l 82 0 l 261 264 q 137 328 185 274 q 89 465 89 382 q 146 613 89 554 q 301 671 203 671 l 656 671 l 656 0 l 551 0 l 551 260 l 368 260 l 204 0 m 313 351 l 551 351 l 551 579 l 313 579 q 227 548 258 579 q 196 465 196 517 q 226 383 196 414 q 313 351 257 351 z "},"ё":{"ha":782,"x_min":65,"x_max":718,"o":"m 585 884 q 594 875 585 884 q 604 839 604 865 q 585 793 604 813 q 539 774 565 774 q 493 793 513 774 q 474 839 474 813 q 493 884 474 865 q 539 903 513 903 q 585 884 565 903 m 298 884 q 307 875 298 884 q 317 839 317 865 q 298 793 317 813 q 253 774 279 774 q 206 792 225 774 q 188 839 188 811 q 207 884 188 865 q 253 903 226 903 q 298 884 279 903 m 407 -17 q 161 81 257 -17 q 65 336 65 179 q 160 585 65 483 q 396 688 254 688 q 631 585 544 688 q 718 328 718 483 l 718 301 l 175 301 q 247 136 182 203 q 417 69 313 69 q 624 154 542 69 l 674 86 q 407 -17 571 -17 m 615 378 q 557 533 614 464 q 394 601 500 601 q 237 533 294 601 q 175 378 179 465 l 615 378 z "},"ђ":{"ha":769,"x_min":13,"x_max":665,"o":"m 429 743 l 211 743 l 211 574 q 315 653 250 619 q 451 688 381 688 q 665 474 665 688 l 665 -65 q 614 -218 665 -164 q 465 -272 563 -272 q 319 -222 382 -272 l 356 -143 q 451 -186 399 -186 q 531 -156 501 -186 q 561 -65 561 -126 l 561 442 q 522 560 561 525 q 410 594 483 594 q 298 564 353 594 q 211 490 243 533 l 211 0 l 107 0 l 107 743 l 13 743 l 13 810 l 107 810 l 107 926 l 211 926 l 211 810 l 429 810 l 429 743 z "},"ѓ":{"ha":606,"x_min":104,"x_max":575,"o":"m 575 972 l 340 772 l 261 772 l 467 972 l 575 972 m 574 671 l 574 579 l 208 579 l 208 0 l 104 0 l 104 671 l 574 671 z "},"є":{"ha":688,"x_min":65,"x_max":646,"o":"m 400 -17 q 158 84 251 -17 q 65 336 65 185 q 158 588 65 488 q 400 688 251 688 q 646 571 556 688 l 579 510 q 406 601 513 601 q 250 542 311 601 q 176 385 189 483 l 514 385 l 514 294 l 175 294 q 247 131 186 192 q 406 69 308 69 q 579 161 511 69 l 646 100 q 400 -17 556 -17 z "},"ѕ":{"ha":646,"x_min":46,"x_max":581,"o":"m 317 -17 q 46 89 146 -17 l 100 164 q 195 96 135 124 q 321 68 256 68 q 438 100 396 68 q 479 183 479 132 q 436 253 479 228 q 333 292 393 279 q 211 323 272 306 q 107 383 150 340 q 64 494 64 425 q 131 632 64 576 q 314 688 199 688 q 563 590 465 688 l 514 518 q 314 603 443 603 q 206 573 246 603 q 165 497 165 543 q 208 434 165 457 q 313 398 251 411 q 434 367 374 385 q 538 303 494 349 q 581 186 581 258 q 511 40 581 97 q 317 -17 442 -17 z "},"і":{"ha":313,"x_min":86,"x_max":226,"o":"m 156 767 q 107 787 128 767 q 86 836 86 807 q 107 886 86 865 q 156 907 128 907 q 206 886 185 907 q 226 836 226 865 q 206 787 226 807 q 156 767 185 767 m 208 0 l 104 0 l 104 671 l 208 671 l 208 0 z "},"ї":{"ha":313,"x_min":-51,"x_max":365,"o":"m 346 884 q 356 875 346 884 q 365 839 365 865 q 346 793 365 813 q 300 774 326 774 q 254 793 274 774 q 235 839 235 813 q 254 884 235 865 q 300 903 274 903 q 346 884 326 903 m 59 884 q 68 875 59 884 q 78 839 78 865 q 59 793 78 813 q 14 774 40 774 q -33 792 -14 774 q -51 839 -51 811 q -32 884 -51 865 q 14 903 -12 903 q 59 884 40 903 m 208 0 l 104 0 l 104 671 l 208 671 l 208 0 z "},"ј":{"ha":313,"x_min":-137,"x_max":226,"o":"m 156 767 q 107 787 128 767 q 86 836 86 807 q 107 886 86 865 q 156 907 128 907 q 206 886 185 907 q 226 836 226 865 q 206 787 226 807 q 156 767 185 767 m 10 -272 q -137 -222 -72 -272 l -100 -143 q -4 -186 -57 -186 q 75 -156 46 -186 q 104 -65 104 -126 l 104 671 l 208 671 l 208 -65 q 157 -218 208 -164 q 10 -272 106 -272 z "},"љ":{"ha":1179,"x_min":25,"x_max":1125,"o":"m 25 -17 l 25 69 q 103 132 72 69 q 153 340 133 194 l 196 671 l 663 671 l 663 411 l 913 411 q 1069 352 1013 411 q 1125 206 1125 293 q 1069 59 1125 118 q 913 0 1013 0 l 558 0 l 558 579 l 288 579 l 257 328 q 179 63 235 143 q 25 -17 124 -17 m 903 319 l 663 319 l 663 92 l 903 92 q 988 123 958 92 q 1018 206 1018 154 q 988 288 1018 256 q 903 319 957 319 z "},"њ":{"ha":1179,"x_min":104,"x_max":1125,"o":"m 208 0 l 104 0 l 104 671 l 208 671 l 208 392 l 558 392 l 558 671 l 663 671 l 663 392 l 924 392 q 1072 335 1018 392 q 1125 194 1125 279 q 1072 56 1125 113 q 924 0 1018 0 l 558 0 l 558 300 l 208 300 l 208 0 m 913 300 l 663 300 l 663 92 l 913 92 q 990 120 963 92 q 1018 194 1018 149 q 990 271 1018 242 q 913 300 963 300 z "},"ћ":{"ha":769,"x_min":13,"x_max":665,"o":"m 428 743 l 211 743 l 211 574 q 315 653 250 619 q 451 688 381 688 q 665 474 665 688 l 665 0 l 561 0 l 561 442 q 522 560 561 525 q 410 594 483 594 q 298 564 353 594 q 211 490 243 533 l 211 0 l 107 0 l 107 743 l 13 743 l 13 810 l 107 810 l 107 926 l 211 926 l 211 810 l 428 810 l 428 743 z "},"ќ":{"ha":714,"x_min":104,"x_max":694,"o":"m 594 972 l 360 772 l 281 772 l 486 972 l 594 972 m 694 0 l 561 0 l 319 301 l 208 192 l 208 0 l 104 0 l 104 671 l 208 671 l 208 314 l 561 671 l 693 671 l 396 367 l 694 0 z "},"ў":{"ha":681,"x_min":4,"x_max":676,"o":"m 67 -262 l 83 -168 q 140 -179 108 -179 q 200 -164 176 -179 q 240 -108 224 -149 l 285 -7 l 4 671 l 117 671 l 340 121 l 563 671 l 676 671 l 340 -136 q 143 -272 285 -269 q 67 -262 100 -272 m 585 869 q 342 747 494 747 q 97 869 190 747 l 149 914 q 342 814 221 814 q 533 914 464 814 l 585 869 z "},"џ":{"ha":767,"x_min":104,"x_max":663,"o":"m 332 -175 l 332 0 l 104 0 l 104 671 l 208 671 l 208 92 l 558 92 l 558 671 l 663 671 l 663 0 l 436 0 l 436 -175 l 332 -175 z "},"Ґ":{"ha":764,"x_min":108,"x_max":715,"o":"m 224 824 l 224 0 l 108 0 l 108 926 l 600 926 l 600 1097 l 715 1097 l 715 824 l 224 824 z "},"ґ":{"ha":606,"x_min":104,"x_max":574,"o":"m 208 579 l 208 0 l 104 0 l 104 671 l 469 671 l 469 846 l 574 846 l 574 579 l 208 579 z "},"Ḃ":{"ha":874,"x_min":108,"x_max":799,"o":"m 531 0 l 108 0 l 108 926 l 521 926 q 710 861 640 926 q 781 690 781 796 q 733 549 781 607 q 618 478 686 492 q 745 400 692 467 q 799 250 799 333 q 727 69 799 138 q 531 0 656 0 m 501 525 q 619 567 578 525 q 661 674 661 608 q 619 781 661 739 q 501 824 576 824 l 224 824 l 224 525 l 501 525 m 507 103 q 633 146 588 103 q 679 263 679 189 q 634 376 679 331 q 507 422 589 422 l 224 422 l 224 103 l 507 103 m 481 1022 q 472 1012 481 1022 q 436 1003 463 1003 q 390 1022 410 1003 q 371 1068 371 1042 q 390 1114 371 1094 q 436 1133 410 1133 q 481 1115 463 1133 q 500 1068 500 1096 q 481 1022 500 1040 z "},"ḃ":{"ha":799,"x_min":104,"x_max":733,"o":"m 208 182 q 292 107 236 138 q 408 76 349 76 q 567 149 508 76 q 625 335 625 221 q 567 522 625 449 q 408 594 508 594 q 292 563 349 594 q 208 486 236 532 l 208 182 m 208 0 l 104 0 l 104 926 l 208 926 l 208 569 q 435 688 296 688 q 650 591 567 688 q 733 335 733 494 q 651 78 733 174 q 435 -17 568 -17 q 208 100 294 -17 l 208 0 m 453 1022 q 444 1012 453 1022 q 408 1003 435 1003 q 363 1022 382 1003 q 343 1068 343 1042 q 363 1114 343 1094 q 408 1133 382 1133 q 453 1115 435 1133 q 472 1068 472 1096 q 453 1022 472 1040 z "},"Ḋ":{"ha":972,"x_min":108,"x_max":900,"o":"m 425 0 l 108 0 l 108 926 l 425 926 q 769 794 638 926 q 900 463 900 663 q 769 131 900 261 q 425 0 638 0 m 425 103 q 685 206 589 103 q 781 463 781 308 q 686 721 781 618 q 425 824 592 824 l 224 824 l 224 103 l 425 103 m 531 1022 q 522 1012 531 1022 q 486 1003 513 1003 q 440 1022 460 1003 q 421 1068 421 1042 q 440 1114 421 1094 q 486 1133 460 1133 q 531 1115 513 1133 q 550 1068 550 1096 q 531 1022 550 1040 z "},"ḋ":{"ha":799,"x_min":65,"x_max":694,"o":"m 694 0 l 590 0 l 590 100 q 364 -17 504 -17 q 148 78 231 -17 q 65 335 65 174 q 148 591 65 494 q 364 688 231 688 q 590 569 503 688 l 590 926 l 694 926 l 694 0 m 389 76 q 506 107 450 76 q 590 182 561 138 l 590 486 q 505 563 561 532 q 389 594 449 594 q 232 522 290 594 q 174 335 174 449 q 232 149 174 221 q 389 76 290 76 m 437 1022 q 427 1012 437 1022 q 392 1003 418 1003 q 346 1022 365 1003 q 326 1068 326 1042 q 346 1114 326 1094 q 392 1133 365 1133 q 437 1115 418 1133 q 456 1068 456 1096 q 437 1022 456 1040 z "},"Ḟ":{"ha":764,"x_min":108,"x_max":715,"o":"m 458 1022 q 448 1012 458 1022 q 413 1003 439 1003 q 367 1022 386 1003 q 347 1068 347 1042 q 367 1114 347 1094 q 413 1133 386 1133 q 458 1115 439 1133 q 476 1068 476 1096 q 458 1022 476 1040 m 224 0 l 108 0 l 108 926 l 715 926 l 715 824 l 224 824 l 224 525 l 706 525 l 706 422 l 224 422 l 224 0 z "},"ḟ":{"ha":393,"x_min":22,"x_max":469,"o":"m 374 1022 q 365 1012 374 1022 q 329 1003 356 1003 q 283 1022 303 1003 q 264 1068 264 1042 q 283 1114 264 1094 q 329 1133 303 1133 q 374 1115 356 1133 q 393 1068 393 1096 q 374 1022 393 1040 m 238 0 l 133 0 l 133 579 l 22 579 l 22 671 l 133 671 l 133 722 q 185 883 133 825 q 328 940 238 940 q 469 889 414 940 l 426 821 q 343 854 389 854 q 265 820 292 854 q 238 722 238 786 l 238 671 l 374 671 l 374 579 l 238 579 l 238 0 z "},"Ḣ":{"ha":989,"x_min":108,"x_max":881,"o":"m 881 0 l 765 0 l 765 425 l 224 425 l 224 0 l 108 0 l 108 926 l 224 926 l 224 528 l 765 528 l 765 926 l 881 926 l 881 0 m 538 1022 q 529 1012 538 1022 q 493 1003 519 1003 q 447 1022 467 1003 q 428 1068 428 1042 q 447 1114 428 1094 q 493 1133 467 1133 q 538 1115 519 1133 q 557 1068 557 1096 q 538 1022 557 1040 z "},"ḣ":{"ha":767,"x_min":104,"x_max":663,"o":"m 663 0 l 558 0 l 558 442 q 519 560 558 525 q 407 594 481 594 q 295 564 350 594 q 208 490 240 533 l 208 0 l 104 0 l 104 926 l 208 926 l 208 574 q 313 653 247 619 q 449 688 378 688 q 663 474 663 688 l 663 0 m 428 1022 q 419 1012 428 1022 q 383 1003 410 1003 q 338 1022 357 1003 q 318 1068 318 1042 q 338 1114 318 1094 q 383 1133 357 1133 q 428 1115 410 1133 q 447 1068 447 1096 q 428 1022 447 1040 z "},"Ṗ":{"ha":815,"x_min":108,"x_max":771,"o":"m 224 0 l 108 0 l 108 926 l 481 926 q 693 846 615 926 q 771 647 771 765 q 692 449 771 529 q 481 368 614 368 l 224 368 l 224 0 m 467 471 q 600 520 549 471 q 651 647 651 569 q 600 774 651 725 q 467 824 549 824 l 224 824 l 224 471 l 467 471 m 452 1022 q 443 1012 452 1022 q 407 1003 433 1003 q 361 1022 381 1003 q 342 1068 342 1042 q 361 1114 342 1094 q 407 1133 381 1133 q 452 1115 433 1133 q 471 1068 471 1096 q 452 1022 471 1040 z "},"ṗ":{"ha":794,"x_min":104,"x_max":733,"o":"m 435 -17 q 208 101 293 -17 l 208 -256 l 104 -256 l 104 671 l 208 671 l 208 571 q 306 656 246 624 q 435 688 365 688 q 651 592 568 688 q 733 336 733 497 q 651 79 733 175 q 435 -17 568 -17 m 408 76 q 565 149 507 76 q 624 336 624 222 q 565 522 624 450 q 408 594 507 594 q 292 563 349 594 q 208 488 236 532 l 208 185 q 292 108 236 139 q 408 76 349 76 m 452 790 q 443 780 452 790 q 407 771 433 771 q 361 790 381 771 q 342 836 342 810 q 361 882 342 863 q 407 901 381 901 q 452 883 433 901 q 471 836 471 864 q 452 790 471 808 z "},"Ṡ":{"ha":814,"x_min":53,"x_max":750,"o":"m 408 -17 q 53 131 183 -17 l 121 218 q 413 86 239 86 q 578 134 525 86 q 631 246 631 182 q 600 328 631 294 q 522 380 569 361 q 415 414 474 399 q 298 448 357 429 q 191 493 239 467 q 113 568 143 519 q 82 683 82 617 q 172 869 82 797 q 400 940 263 940 q 729 811 607 940 l 660 726 q 392 838 558 838 q 255 797 308 838 q 201 690 201 756 q 242 610 201 642 q 344 563 283 578 q 476 524 404 547 q 608 476 547 501 q 709 393 668 450 q 750 256 750 336 q 666 63 750 142 q 408 -17 582 -17 m 452 1022 q 443 1012 452 1022 q 407 1003 433 1003 q 361 1022 381 1003 q 342 1068 342 1042 q 361 1114 342 1094 q 407 1133 381 1133 q 452 1115 433 1133 q 471 1068 471 1096 q 452 1022 471 1040 z "},"ṡ":{"ha":646,"x_min":46,"x_max":581,"o":"m 317 -17 q 46 89 146 -17 l 100 164 q 195 96 135 124 q 321 68 256 68 q 438 100 396 68 q 479 183 479 132 q 436 253 479 228 q 333 292 393 279 q 211 323 272 306 q 107 383 150 340 q 64 494 64 425 q 131 632 64 576 q 314 688 199 688 q 563 590 465 688 l 514 518 q 314 603 443 603 q 206 573 246 603 q 165 497 165 543 q 208 434 165 457 q 313 398 251 411 q 434 367 374 385 q 538 303 494 349 q 581 186 581 258 q 511 40 581 97 q 317 -17 442 -17 m 367 790 q 358 780 367 790 q 322 771 349 771 q 276 790 296 771 q 257 836 257 810 q 276 882 257 863 q 322 901 296 901 q 367 883 349 901 q 386 836 386 864 q 367 790 386 808 z "},"Ṫ":{"ha":792,"x_min":44,"x_max":747,"o":"m 453 0 l 338 0 l 338 824 l 44 824 l 44 926 l 747 926 l 747 824 l 453 824 l 453 0 m 440 1022 q 430 1012 440 1022 q 394 1003 421 1003 q 349 1022 368 1003 q 329 1068 329 1042 q 349 1114 329 1094 q 394 1133 368 1133 q 440 1115 421 1133 q 458 1068 458 1096 q 440 1022 458 1040 z "},"ṫ":{"ha":408,"x_min":14,"x_max":399,"o":"m 274 -17 q 163 24 200 -17 q 125 140 125 64 l 125 579 l 14 579 l 14 671 l 125 671 l 125 854 l 229 854 l 229 671 l 365 671 l 365 579 l 229 579 l 229 163 q 247 100 229 124 q 297 76 264 76 q 368 104 343 76 l 399 26 q 274 -17 353 -17 m 231 1022 q 222 1012 231 1022 q 186 1003 213 1003 q 140 1022 160 1003 q 121 1068 121 1042 q 140 1114 121 1094 q 186 1133 160 1133 q 231 1115 213 1133 q 250 1068 250 1096 q 231 1022 250 1040 z "},"Ẁ":{"ha":1226,"x_min":19,"x_max":1206,"o":"m 942 0 l 817 0 l 613 747 l 408 0 l 283 0 l 19 926 l 147 926 l 353 154 l 565 926 l 661 926 l 874 154 l 1078 926 l 1206 926 l 942 0 m 692 1004 l 613 1004 l 378 1204 l 486 1204 l 692 1004 z "},"ẁ":{"ha":1019,"x_min":17,"x_max":1003,"o":"m 789 0 l 685 0 l 510 539 l 335 0 l 231 0 l 17 671 l 125 671 l 289 136 l 465 671 l 554 671 l 731 136 l 894 671 l 1003 671 l 789 0 m 589 772 l 510 772 l 275 972 l 383 972 l 589 772 z "},"Ẃ":{"ha":1226,"x_min":19,"x_max":1206,"o":"m 847 1204 l 613 1004 l 533 1004 l 739 1204 l 847 1204 m 942 0 l 817 0 l 613 747 l 408 0 l 283 0 l 19 926 l 147 926 l 353 154 l 565 926 l 661 926 l 874 154 l 1078 926 l 1206 926 l 942 0 z "},"ẃ":{"ha":1019,"x_min":17,"x_max":1003,"o":"m 744 972 l 510 772 l 431 772 l 636 972 l 744 972 m 789 0 l 685 0 l 510 539 l 335 0 l 231 0 l 17 671 l 125 671 l 289 136 l 465 671 l 554 671 l 731 136 l 894 671 l 1003 671 l 789 0 z "},"Ẅ":{"ha":1226,"x_min":19,"x_max":1206,"o":"m 801 1116 q 811 1107 801 1116 q 821 1071 821 1097 q 801 1025 821 1044 q 756 1006 782 1006 q 710 1025 729 1006 q 690 1071 690 1044 q 710 1116 690 1097 q 756 1135 729 1135 q 801 1116 782 1135 m 515 1116 q 524 1107 515 1116 q 533 1071 533 1097 q 515 1025 533 1044 q 469 1006 496 1006 q 423 1025 442 1006 q 404 1071 404 1044 q 424 1116 404 1097 q 469 1135 443 1135 q 515 1116 496 1135 m 942 0 l 817 0 l 613 747 l 408 0 l 283 0 l 19 926 l 147 926 l 353 154 l 565 926 l 661 926 l 874 154 l 1078 926 l 1206 926 l 942 0 z "},"ẅ":{"ha":1019,"x_min":17,"x_max":1003,"o":"m 699 884 q 708 875 699 884 q 718 839 718 865 q 699 793 718 813 q 653 774 679 774 q 607 793 626 774 q 588 839 588 813 q 607 884 588 865 q 653 903 626 903 q 699 884 679 903 m 412 884 q 421 875 412 884 q 431 839 431 865 q 412 793 431 813 q 367 774 393 774 q 320 792 339 774 q 301 839 301 811 q 321 884 301 865 q 367 903 340 903 q 412 884 393 903 m 789 0 l 685 0 l 510 539 l 335 0 l 231 0 l 17 671 l 125 671 l 289 136 l 465 671 l 554 671 l 731 136 l 894 671 l 1003 671 l 789 0 z "},"Ạ":{"ha":914,"x_min":13,"x_max":901,"o":"m 901 0 l 769 0 l 688 206 l 226 206 l 144 0 l 13 0 l 385 926 l 528 926 l 901 0 m 653 308 l 457 807 l 260 308 l 653 308 m 502 -237 q 493 -246 502 -237 q 457 -256 483 -256 q 411 -236 431 -256 q 392 -190 392 -217 q 411 -144 392 -164 q 457 -125 431 -125 q 502 -144 483 -125 q 521 -190 521 -162 q 502 -237 521 -218 z "},"ạ":{"ha":732,"x_min":67,"x_max":628,"o":"m 628 0 l 524 0 l 524 76 q 301 -17 439 -17 q 138 43 208 -17 q 67 206 67 103 q 137 369 67 311 q 301 426 207 426 q 524 335 444 426 l 524 456 q 476 560 524 522 q 354 597 429 597 q 149 504 236 597 l 100 576 q 368 688 207 688 q 556 632 483 688 q 628 461 628 576 l 628 0 m 339 58 q 524 142 464 58 l 524 268 q 339 351 464 351 q 220 310 267 351 q 174 204 174 269 q 220 99 174 140 q 339 58 267 58 m 412 -237 q 402 -246 412 -237 q 367 -256 393 -256 q 321 -236 340 -256 q 301 -190 301 -217 q 321 -144 301 -164 q 367 -125 340 -125 q 412 -144 393 -125 q 431 -190 431 -162 q 412 -237 431 -218 z "},"Ả":{"ha":914,"x_min":13,"x_max":901,"o":"m 901 0 l 769 0 l 688 206 l 226 206 l 144 0 l 13 0 l 385 926 l 528 926 l 901 0 m 653 308 l 457 807 l 260 308 l 653 308 m 401 1050 l 356 1063 q 457 1139 381 1139 q 528 1115 500 1139 q 557 1043 557 1090 q 531 968 557 1004 l 475 968 q 507 1040 507 1000 q 457 1094 507 1094 q 401 1050 417 1094 z "},"ả":{"ha":732,"x_min":67,"x_max":628,"o":"m 628 0 l 524 0 l 524 76 q 301 -17 439 -17 q 138 43 208 -17 q 67 206 67 103 q 137 369 67 311 q 301 426 207 426 q 524 335 444 426 l 524 456 q 476 560 524 522 q 354 597 429 597 q 149 504 236 597 l 100 576 q 368 688 207 688 q 556 632 483 688 q 628 461 628 576 l 628 0 m 339 58 q 524 142 464 58 l 524 268 q 339 351 464 351 q 220 310 267 351 q 174 204 174 269 q 220 99 174 140 q 339 58 267 58 m 311 814 l 265 826 q 367 903 290 903 q 438 878 410 903 q 467 807 467 854 q 440 732 467 768 l 385 732 q 417 804 417 764 q 367 858 417 858 q 311 814 326 858 z "},"Ấ":{"ha":914,"x_min":13,"x_max":913,"o":"m 643 947 l 572 947 l 457 1057 l 346 947 l 275 947 l 407 1097 l 507 1097 l 643 947 m 901 0 l 769 0 l 688 206 l 226 206 l 144 0 l 13 0 l 385 926 l 528 926 l 901 0 m 653 308 l 457 807 l 260 308 l 653 308 m 913 1172 l 678 1022 l 599 1022 l 804 1172 l 913 1172 z "},"ấ":{"ha":732,"x_min":67,"x_max":815,"o":"m 628 0 l 524 0 l 524 76 q 301 -17 439 -17 q 138 43 208 -17 q 67 206 67 103 q 137 369 67 311 q 301 426 207 426 q 524 335 444 426 l 524 456 q 476 560 524 522 q 354 597 429 597 q 149 504 236 597 l 100 576 q 368 688 207 688 q 556 632 483 688 q 628 461 628 576 l 628 0 m 339 58 q 524 142 464 58 l 524 268 q 339 351 464 351 q 220 310 267 351 q 174 204 174 269 q 220 99 174 140 q 339 58 267 58 m 553 772 l 482 772 l 367 919 l 256 772 l 185 772 l 317 972 l 417 972 l 553 772 m 815 1069 l 581 869 l 501 869 l 707 1069 l 815 1069 z "},"Ầ":{"ha":914,"x_min":4,"x_max":901,"o":"m 643 947 l 572 947 l 457 1057 l 346 947 l 275 947 l 407 1097 l 507 1097 l 643 947 m 901 0 l 769 0 l 688 206 l 226 206 l 144 0 l 13 0 l 385 926 l 528 926 l 901 0 m 653 308 l 457 807 l 260 308 l 653 308 m 318 1022 l 239 1022 l 4 1172 l 113 1172 l 318 1022 z "},"ầ":{"ha":732,"x_min":-79,"x_max":628,"o":"m 628 0 l 524 0 l 524 76 q 301 -17 439 -17 q 138 43 208 -17 q 67 206 67 103 q 137 369 67 311 q 301 426 207 426 q 524 335 444 426 l 524 456 q 476 560 524 522 q 354 597 429 597 q 149 504 236 597 l 100 576 q 368 688 207 688 q 556 632 483 688 q 628 461 628 576 l 628 0 m 339 58 q 524 142 464 58 l 524 268 q 339 351 464 351 q 220 310 267 351 q 174 204 174 269 q 220 99 174 140 q 339 58 267 58 m 553 772 l 482 772 l 367 919 l 256 772 l 185 772 l 317 972 l 417 972 l 553 772 m 235 869 l 156 869 l -79 1069 l 29 1069 l 235 869 z "},"Ẩ":{"ha":914,"x_min":13,"x_max":901,"o":"m 643 947 l 572 947 l 457 1057 l 346 947 l 275 947 l 407 1097 l 507 1097 l 643 947 m 901 0 l 769 0 l 688 206 l 226 206 l 144 0 l 13 0 l 385 926 l 528 926 l 901 0 m 653 308 l 457 807 l 260 308 l 653 308 m 594 1094 l 549 1104 q 650 1161 574 1161 q 722 1143 693 1161 q 750 1090 750 1125 q 724 1033 750 1061 l 668 1033 q 700 1088 700 1058 q 650 1128 700 1128 q 594 1094 610 1128 z "},"ẩ":{"ha":732,"x_min":67,"x_max":628,"o":"m 628 0 l 524 0 l 524 76 q 301 -17 439 -17 q 138 43 208 -17 q 67 206 67 103 q 137 369 67 311 q 301 426 207 426 q 524 335 444 426 l 524 456 q 476 560 524 522 q 354 597 429 597 q 149 504 236 597 l 100 576 q 368 688 207 688 q 556 632 483 688 q 628 461 628 576 l 628 0 m 339 58 q 524 142 464 58 l 524 268 q 339 351 464 351 q 220 310 267 351 q 174 204 174 269 q 220 99 174 140 q 339 58 267 58 m 553 772 l 482 772 l 367 919 l 256 772 l 185 772 l 317 972 l 417 972 l 553 772 m 438 1008 l 392 1021 q 493 1097 417 1097 q 565 1073 536 1097 q 593 1001 593 1049 q 567 926 593 963 l 511 926 q 543 999 543 958 q 493 1053 543 1053 q 438 1008 453 1053 z "},"Ẫ":{"ha":914,"x_min":13,"x_max":901,"o":"m 643 942 l 572 942 l 457 1015 l 346 942 l 275 942 l 407 1042 l 507 1042 l 643 942 m 901 0 l 769 0 l 688 206 l 226 206 l 144 0 l 13 0 l 385 926 l 528 926 l 901 0 m 653 308 l 457 807 l 260 308 l 653 308 m 539 1051 q 440 1083 483 1051 q 368 1115 397 1115 q 301 1056 301 1115 l 239 1056 q 274 1123 239 1097 q 374 1149 310 1149 q 472 1117 428 1149 q 544 1085 515 1085 q 611 1144 611 1085 l 674 1144 q 638 1077 674 1103 q 539 1051 603 1051 z "},"ẫ":{"ha":732,"x_min":67,"x_max":628,"o":"m 628 0 l 524 0 l 524 76 q 301 -17 439 -17 q 138 43 208 -17 q 67 206 67 103 q 137 369 67 311 q 301 426 207 426 q 524 335 444 426 l 524 456 q 476 560 524 522 q 354 597 429 597 q 149 504 236 597 l 100 576 q 368 688 207 688 q 556 632 483 688 q 628 461 628 576 l 628 0 m 339 58 q 524 142 464 58 l 524 268 q 339 351 464 351 q 220 310 267 351 q 174 204 174 269 q 220 99 174 140 q 339 58 267 58 m 553 726 l 482 726 l 367 874 l 256 726 l 185 726 l 317 926 l 417 926 l 553 726 m 449 947 q 388 967 414 947 q 350 1011 363 988 q 319 1055 338 1035 q 278 1075 300 1075 q 230 1045 249 1075 q 211 956 211 1015 l 149 956 q 184 1090 149 1039 q 283 1142 219 1142 q 342 1122 317 1142 q 381 1078 368 1101 q 413 1034 394 1054 q 454 1014 432 1014 q 502 1044 483 1014 q 521 1133 521 1074 l 583 1133 q 548 999 583 1050 q 449 947 513 947 z "},"Ậ":{"ha":914,"x_min":13,"x_max":901,"o":"m 901 0 l 769 0 l 688 206 l 226 206 l 144 0 l 13 0 l 385 926 l 528 926 l 901 0 m 653 308 l 457 807 l 260 308 l 653 308 m 642 1004 l 571 1004 l 456 1151 l 344 1004 l 274 1004 l 406 1204 l 506 1204 l 642 1004 m 502 -237 q 493 -246 502 -237 q 457 -256 483 -256 q 411 -236 431 -256 q 392 -190 392 -217 q 411 -144 392 -164 q 457 -125 431 -125 q 502 -144 483 -125 q 521 -190 521 -162 q 502 -237 521 -218 z "},"ậ":{"ha":732,"x_min":67,"x_max":628,"o":"m 628 0 l 524 0 l 524 76 q 301 -17 439 -17 q 138 43 208 -17 q 67 206 67 103 q 137 369 67 311 q 301 426 207 426 q 524 335 444 426 l 524 456 q 476 560 524 522 q 354 597 429 597 q 149 504 236 597 l 100 576 q 368 688 207 688 q 556 632 483 688 q 628 461 628 576 l 628 0 m 339 58 q 524 142 464 58 l 524 268 q 339 351 464 351 q 220 310 267 351 q 174 204 174 269 q 220 99 174 140 q 339 58 267 58 m 550 772 l 479 772 l 364 919 l 253 772 l 182 772 l 314 972 l 414 972 l 550 772 m 412 -237 q 402 -246 412 -237 q 367 -256 393 -256 q 321 -236 340 -256 q 301 -190 301 -217 q 321 -144 301 -164 q 367 -125 340 -125 q 412 -144 393 -125 q 431 -190 431 -162 q 412 -237 431 -218 z "},"Ắ":{"ha":914,"x_min":13,"x_max":901,"o":"m 901 0 l 769 0 l 688 206 l 226 206 l 144 0 l 13 0 l 385 926 l 528 926 l 901 0 m 653 308 l 457 807 l 260 308 l 653 308 m 690 1165 l 456 1029 l 376 1029 l 582 1165 l 690 1165 m 700 1056 q 457 951 610 951 q 213 1056 306 951 l 264 1093 q 457 1008 338 1008 q 649 1093 579 1008 l 700 1056 z "},"ắ":{"ha":732,"x_min":67,"x_max":628,"o":"m 628 0 l 524 0 l 524 76 q 301 -17 439 -17 q 138 43 208 -17 q 67 206 67 103 q 137 369 67 311 q 301 426 207 426 q 524 335 444 426 l 524 456 q 476 560 524 522 q 354 597 429 597 q 149 504 236 597 l 100 576 q 368 688 207 688 q 556 632 483 688 q 628 461 628 576 l 628 0 m 339 58 q 524 142 464 58 l 524 268 q 339 351 464 351 q 220 310 267 351 q 174 204 174 269 q 220 99 174 140 q 339 58 267 58 m 604 1064 l 369 864 l 290 864 l 496 1064 l 604 1064 m 611 846 q 368 724 521 724 q 124 846 217 724 l 175 890 q 368 790 247 790 q 560 890 490 790 l 611 846 z "},"Ằ":{"ha":914,"x_min":13,"x_max":901,"o":"m 901 0 l 769 0 l 688 206 l 226 206 l 144 0 l 13 0 l 385 926 l 528 926 l 901 0 m 653 308 l 457 807 l 260 308 l 653 308 m 539 1029 l 460 1029 l 225 1165 l 333 1165 l 539 1029 m 700 1051 q 457 947 610 947 q 213 1051 306 947 l 264 1089 q 457 1004 338 1004 q 649 1089 579 1004 l 700 1051 z "},"ằ":{"ha":732,"x_min":67,"x_max":628,"o":"m 628 0 l 524 0 l 524 76 q 301 -17 439 -17 q 138 43 208 -17 q 67 206 67 103 q 137 369 67 311 q 301 426 207 426 q 524 335 444 426 l 524 456 q 476 560 524 522 q 354 597 429 597 q 149 504 236 597 l 100 576 q 368 688 207 688 q 556 632 483 688 q 628 461 628 576 l 628 0 m 339 58 q 524 142 464 58 l 524 268 q 339 351 464 351 q 220 310 267 351 q 174 204 174 269 q 220 99 174 140 q 339 58 267 58 m 443 864 l 364 864 l 129 1064 l 238 1064 l 443 864 m 611 851 q 368 729 521 729 q 124 851 217 729 l 175 896 q 368 796 247 796 q 560 896 490 796 l 611 851 z "},"Ẳ":{"ha":914,"x_min":13,"x_max":901,"o":"m 901 0 l 769 0 l 688 206 l 226 206 l 144 0 l 13 0 l 385 926 l 528 926 l 901 0 m 653 308 l 457 807 l 260 308 l 653 308 m 401 1089 l 356 1097 q 457 1149 381 1149 q 528 1133 500 1149 q 557 1085 557 1117 q 531 1033 557 1058 l 475 1033 q 507 1082 507 1056 q 457 1119 507 1119 q 401 1089 417 1119 m 700 1054 q 457 950 610 950 q 213 1054 306 950 l 264 1092 q 457 1007 338 1007 q 649 1092 579 1007 l 700 1054 z "},"ẳ":{"ha":732,"x_min":67,"x_max":628,"o":"m 628 0 l 524 0 l 524 76 q 301 -17 439 -17 q 138 43 208 -17 q 67 206 67 103 q 137 369 67 311 q 301 426 207 426 q 524 335 444 426 l 524 456 q 476 560 524 522 q 354 597 429 597 q 149 504 236 597 l 100 576 q 368 688 207 688 q 556 632 483 688 q 628 461 628 576 l 628 0 m 339 58 q 524 142 464 58 l 524 268 q 339 351 464 351 q 220 310 267 351 q 174 204 174 269 q 220 99 174 140 q 339 58 267 58 m 311 946 l 265 958 q 367 1035 290 1035 q 438 1010 410 1035 q 467 939 467 986 q 440 864 467 900 l 385 864 q 417 936 417 896 q 367 990 417 990 q 311 946 326 990 m 611 851 q 368 729 521 729 q 124 851 217 729 l 175 896 q 368 796 247 796 q 560 896 490 796 l 611 851 z "},"Ẵ":{"ha":914,"x_min":13,"x_max":901,"o":"m 901 0 l 769 0 l 688 206 l 226 206 l 144 0 l 13 0 l 385 926 l 528 926 l 901 0 m 653 308 l 457 807 l 260 308 l 653 308 m 701 1018 q 458 943 611 943 q 214 1018 307 943 l 265 1046 q 458 985 338 985 q 650 1046 582 985 l 701 1018 m 539 1051 q 440 1083 483 1051 q 368 1115 397 1115 q 301 1056 301 1115 l 239 1056 q 274 1123 239 1097 q 374 1149 310 1149 q 472 1117 428 1149 q 544 1085 515 1085 q 611 1144 611 1085 l 674 1144 q 638 1077 674 1103 q 539 1051 603 1051 z "},"ẵ":{"ha":732,"x_min":67,"x_max":628,"o":"m 628 0 l 524 0 l 524 76 q 301 -17 439 -17 q 138 43 208 -17 q 67 206 67 103 q 137 369 67 311 q 301 426 207 426 q 524 335 444 426 l 524 456 q 476 560 524 522 q 354 597 429 597 q 149 504 236 597 l 100 576 q 368 688 207 688 q 556 632 483 688 q 628 461 628 576 l 628 0 m 339 58 q 524 142 464 58 l 524 268 q 339 351 464 351 q 220 310 267 351 q 174 204 174 269 q 220 99 174 140 q 339 58 267 58 m 611 851 q 368 729 521 729 q 124 851 217 729 l 175 896 q 368 796 247 796 q 560 896 490 796 l 611 851 m 449 913 q 388 933 414 913 q 350 976 363 953 q 319 1020 338 1000 q 278 1040 300 1040 q 230 1010 249 1040 q 211 921 211 981 l 149 921 q 184 1056 149 1004 q 283 1107 219 1107 q 342 1087 317 1107 q 381 1043 368 1067 q 413 999 394 1019 q 454 979 432 979 q 502 1009 483 979 q 521 1099 521 1039 l 583 1099 q 548 964 583 1015 q 449 913 513 913 z "},"Ặ":{"ha":914,"x_min":13,"x_max":901,"o":"m 901 0 l 769 0 l 688 206 l 226 206 l 144 0 l 13 0 l 385 926 l 528 926 l 901 0 m 653 308 l 457 807 l 260 308 l 653 308 m 502 -237 q 493 -246 502 -237 q 457 -256 483 -256 q 411 -236 431 -256 q 392 -190 392 -217 q 411 -144 392 -164 q 457 -125 431 -125 q 502 -144 483 -125 q 521 -190 521 -162 q 502 -237 521 -218 m 700 1101 q 457 979 610 979 q 213 1101 306 979 l 264 1146 q 457 1046 336 1046 q 649 1146 579 1046 l 700 1101 z "},"ặ":{"ha":732,"x_min":67,"x_max":628,"o":"m 628 0 l 524 0 l 524 76 q 301 -17 439 -17 q 138 43 208 -17 q 67 206 67 103 q 137 369 67 311 q 301 426 207 426 q 524 335 444 426 l 524 456 q 476 560 524 522 q 354 597 429 597 q 149 504 236 597 l 100 576 q 368 688 207 688 q 556 632 483 688 q 628 461 628 576 l 628 0 m 339 58 q 524 142 464 58 l 524 268 q 339 351 464 351 q 220 310 267 351 q 174 204 174 269 q 220 99 174 140 q 339 58 267 58 m 412 -237 q 402 -246 412 -237 q 367 -256 393 -256 q 321 -236 340 -256 q 301 -190 301 -217 q 321 -144 301 -164 q 367 -125 340 -125 q 412 -144 393 -125 q 431 -190 431 -162 q 412 -237 431 -218 m 607 869 q 364 747 517 747 q 119 869 213 747 l 171 914 q 364 814 243 814 q 556 914 486 814 l 607 869 z "},"Ẹ":{"ha":790,"x_min":108,"x_max":715,"o":"m 715 0 l 108 0 l 108 926 l 715 926 l 715 824 l 224 824 l 224 525 l 706 525 l 706 422 l 224 422 l 224 103 l 715 103 l 715 0 m 462 -237 q 452 -246 462 -237 q 417 -256 443 -256 q 371 -236 390 -256 q 351 -190 351 -217 q 371 -144 351 -164 q 417 -125 390 -125 q 462 -144 443 -125 q 481 -190 481 -162 q 462 -237 481 -218 z "},"ẹ":{"ha":782,"x_min":65,"x_max":718,"o":"m 407 -17 q 161 81 257 -17 q 65 336 65 179 q 160 585 65 483 q 396 688 254 688 q 631 585 544 688 q 718 328 718 483 l 718 301 l 175 301 q 247 136 182 203 q 417 69 313 69 q 624 154 542 69 l 674 86 q 407 -17 571 -17 m 615 378 q 557 533 614 464 q 394 601 500 601 q 237 533 294 601 q 175 378 179 465 l 615 378 m 442 -237 q 433 -246 442 -237 q 397 -256 424 -256 q 351 -236 371 -256 q 332 -190 332 -217 q 351 -144 332 -164 q 397 -125 371 -125 q 442 -144 424 -125 q 461 -190 461 -162 q 442 -237 461 -218 z "},"Ẻ":{"ha":790,"x_min":108,"x_max":715,"o":"m 715 0 l 108 0 l 108 926 l 715 926 l 715 824 l 224 824 l 224 525 l 706 525 l 706 422 l 224 422 l 224 103 l 715 103 l 715 0 m 350 1050 l 304 1063 q 406 1139 329 1139 q 477 1115 449 1139 q 506 1043 506 1090 q 479 968 506 1004 l 424 968 q 456 1040 456 1000 q 406 1094 456 1094 q 350 1050 365 1094 z "},"ẻ":{"ha":782,"x_min":65,"x_max":718,"o":"m 407 -17 q 161 81 257 -17 q 65 336 65 179 q 160 585 65 483 q 396 688 254 688 q 631 585 544 688 q 718 328 718 483 l 718 301 l 175 301 q 247 136 182 203 q 417 69 313 69 q 624 154 542 69 l 674 86 q 407 -17 571 -17 m 615 378 q 557 533 614 464 q 394 601 500 601 q 237 533 294 601 q 175 378 179 465 l 615 378 m 339 814 l 293 826 q 394 903 318 903 q 466 878 438 903 q 494 807 494 854 q 468 732 494 768 l 413 732 q 444 804 444 764 q 394 858 444 858 q 339 814 354 858 z "},"Ẽ":{"ha":790,"x_min":108,"x_max":715,"o":"m 715 0 l 108 0 l 108 926 l 715 926 l 715 824 l 224 824 l 224 525 l 706 525 l 706 422 l 224 422 l 224 103 l 715 103 l 715 0 m 496 1001 q 435 1022 461 1001 q 397 1065 410 1042 q 366 1109 385 1089 q 325 1129 347 1129 q 277 1099 296 1129 q 258 1010 258 1069 l 196 1010 q 231 1144 196 1093 q 331 1196 267 1196 q 390 1176 364 1196 q 428 1132 415 1156 q 460 1088 442 1108 q 501 1068 479 1068 q 549 1098 531 1068 q 568 1188 568 1128 l 631 1188 q 595 1053 631 1104 q 496 1001 560 1001 z "},"ẽ":{"ha":782,"x_min":65,"x_max":718,"o":"m 407 -17 q 161 81 257 -17 q 65 336 65 179 q 160 585 65 483 q 396 688 254 688 q 631 585 544 688 q 718 328 718 483 l 718 301 l 175 301 q 247 136 182 203 q 417 69 313 69 q 624 154 542 69 l 674 86 q 407 -17 571 -17 m 615 378 q 557 533 614 464 q 394 601 500 601 q 237 533 294 601 q 175 378 179 465 l 615 378 m 478 769 q 417 790 443 769 q 379 833 392 810 q 348 877 367 857 q 307 897 329 897 q 259 867 278 897 q 240 778 240 838 l 178 778 q 213 913 178 861 q 313 964 249 964 q 372 944 346 964 q 410 900 397 924 q 442 856 424 876 q 483 836 461 836 q 531 866 513 836 q 550 956 550 896 l 613 956 q 577 821 613 872 q 478 769 542 769 z "},"Ế":{"ha":790,"x_min":108,"x_max":872,"o":"m 603 947 l 532 947 l 417 1057 l 306 947 l 235 947 l 367 1097 l 467 1097 l 603 947 m 872 1172 l 638 1022 l 558 1022 l 764 1172 l 872 1172 m 715 0 l 108 0 l 108 926 l 715 926 l 715 824 l 224 824 l 224 525 l 706 525 l 706 422 l 224 422 l 224 103 l 715 103 l 715 0 z "},"ế":{"ha":782,"x_min":65,"x_max":839,"o":"m 581 772 l 510 772 l 394 919 l 283 772 l 213 772 l 344 972 l 444 972 l 581 772 m 839 1069 l 604 869 l 525 869 l 731 1069 l 839 1069 m 407 -17 q 161 81 257 -17 q 65 336 65 179 q 160 585 65 483 q 396 688 254 688 q 631 585 544 688 q 718 328 718 483 l 718 301 l 175 301 q 247 136 182 203 q 417 69 313 69 q 624 154 542 69 l 674 86 q 407 -17 571 -17 m 615 378 q 557 533 614 464 q 394 601 500 601 q 237 533 294 601 q 175 378 179 465 l 615 378 z "},"Ề":{"ha":790,"x_min":-37,"x_max":715,"o":"m 601 947 l 531 947 l 415 1057 l 304 947 l 233 947 l 365 1097 l 465 1097 l 601 947 m 715 0 l 108 0 l 108 926 l 715 926 l 715 824 l 224 824 l 224 525 l 706 525 l 706 422 l 224 422 l 224 103 l 715 103 l 715 0 m 276 1022 l 197 1022 l -37 1172 l 71 1172 l 276 1022 z "}}}
